{
.appVersion = "870";
date = "2016-03-11 05:41:28 +0000";
designer = Pablo;
familyName = Rin;
featurePrefixes = (
{
automatic = 1;
code = "languagesystem DFLT dflt;\012";
name = Languagesystems;
}
);
fontMaster = (
{
alignmentZones = (
"{740, 11}",
"{706, 11}",
"{469, 11}",
"{0, -11}",
"{-236, 11}"
);
ascender = 740;
capHeight = 706;
customParameters = (
{
name = typoAscender;
value = 918;
},
{
name = winAscent;
value = 918;
},
{
name = typoDescender;
value = -332;
},
{
name = winDescent;
value = -332;
},
{
name = typoLineGap;
value = 0;
},
{
name = parametroArea;
value = "306";
},
{
name = parametroProfundidad;
value = "15";
},
{
name = parametroExcedente;
value = "0";
}
);
descender = -236;
guideLines = (
{
position = "{-154, -332}";
},
{
position = "{320, 918}";
}
);
id = "BE599D47-15C2-4DC8-BE97-05FFE6CA3179";
italicAngle = 16;
xHeight = 469;
}
);
glyphs = (
{
color = -1;
glyphname = A;
lastChange = "2016-04-03 02:12:17 +0000";
layers = (
{
background = {
paths = (
{
closed = 1;
nodes = (
"144 -44 OFFCURVE",
"174 68 OFFCURVE",
"190 109 CURVE SMOOTH",
"231 215 OFFCURVE",
"303 314 OFFCURVE",
"375 430 CURVE",
"378 430 LINE",
"378 419 OFFCURVE",
"379 408 OFFCURVE",
"379 398 CURVE SMOOTH",
"379 284 OFFCURVE",
"337 194 OFFCURVE",
"337 84 CURVE SMOOTH",
"337 -5 OFFCURVE",
"358 -54 OFFCURVE",
"435 -54 CURVE SMOOTH",
"502 -54 OFFCURVE",
"560 -24 OFFCURVE",
"605 16 CURVE",
"582 56 OFFCURVE",
"576 102 OFFCURVE",
"576 157 CURVE SMOOTH",
"576 310 OFFCURVE",
"619 452 OFFCURVE",
"619 562 CURVE SMOOTH",
"619 649 OFFCURVE",
"587 679 OFFCURVE",
"516 679 CURVE SMOOTH",
"417 679 OFFCURVE",
"322 669 OFFCURVE",
"250 642 CURVE",
"278 591 OFFCURVE",
"164 443 OFFCURVE",
"102 343 CURVE SMOOTH",
"28 233 OFFCURVE",
"-40 126 OFFCURVE",
"-40 43 CURVE SMOOTH",
"-40 -32 OFFCURVE",
"12 -54 OFFCURVE",
"145 -70 CURVE"
);
},
{
closed = 1;
nodes = (
"402 170 LINE",
"419 265 LINE",
"133 265 LINE",
"116 170 LINE"
);
}
);
};
layerId = "BE599D47-15C2-4DC8-BE97-05FFE6CA3179";
paths = (
{
closed = 1;
nodes = (
"144 -1 OFFCURVE",
"174 111 OFFCURVE",
"190 152 CURVE SMOOTH",
"231 258 OFFCURVE",
"303 357 OFFCURVE",
"375 473 CURVE",
"378 473 LINE",
"378 462 OFFCURVE",
"379 452 OFFCURVE",
"379 441 CURVE SMOOTH",
"379 327 OFFCURVE",
"337 238 OFFCURVE",
"337 128 CURVE SMOOTH",
"337 38 OFFCURVE",
"358 -10 OFFCURVE",
"435 -10 CURVE SMOOTH",
"502 -10 OFFCURVE",
"560 20 OFFCURVE",
"605 59 CURVE",
"582 99 OFFCURVE",
"576 146 OFFCURVE",
"576 201 CURVE SMOOTH",
"576 353 OFFCURVE",
"619 495 OFFCURVE",
"619 605 CURVE SMOOTH",
"619 693 OFFCURVE",
"587 723 OFFCURVE",
"516 723 CURVE SMOOTH",
"417 723 OFFCURVE",
"322 712 OFFCURVE",
"250 685 CURVE",
"278 634 OFFCURVE",
"164 486 OFFCURVE",
"102 386 CURVE SMOOTH",
"28 277 OFFCURVE",
"-40 169 OFFCURVE",
"-40 86 CURVE SMOOTH",
"-40 11 OFFCURVE",
"12 -10 OFFCURVE",
"145 -26 CURVE"
);
},
{
closed = 1;
nodes = (
"415 162 LINE",
"433 294 LINE",
"147 294 LINE",
"129 162 LINE"
);
}
);
width = 633;
},
{
associatedMasterId = "BE599D47-15C2-4DC8-BE97-05FFE6CA3179";
background = {
paths = (
{
closed = 1;
nodes = (
"278 236 OFFCURVE",
"245 196 OFFCURVE",
"199 196 CURVE SMOOTH",
"169 196 OFFCURVE",
"151 213 OFFCURVE",
"137 261 CURVE",
"33 231 OFFCURVE",
"-20 139 OFFCURVE",
"-20 52 CURVE SMOOTH",
"-20 -39 OFFCURVE",
"41 -82 OFFCURVE",
"111 -82 CURVE SMOOTH",
"165 -82 OFFCURVE",
"219 -57 OFFCURVE",
"273 23 CURVE SMOOTH",
"378 180 OFFCURVE",
"475 418 OFFCURVE",
"535 502 CURVE SMOOTH",
"549 521 OFFCURVE",
"564 532 OFFCURVE",
"576 532 CURVE SMOOTH",
"585 532 OFFCURVE",
"592 524 OFFCURVE",
"592 509 CURVE SMOOTH",
"592 503 OFFCURVE",
"591 500 OFFCURVE",
"589 495 CURVE SMOOTH",
"562 398 OFFCURVE",
"436 147 OFFCURVE",
"436 8 CURVE SMOOTH",
"436 -82 OFFCURVE",
"492 -123 OFFCURVE",
"569 -123 CURVE SMOOTH",
"637 -123 OFFCURVE",
"733 -91 OFFCURVE",
"795 -30 CURVE",
"754 -13 OFFCURVE",
"739 23 OFFCURVE",
"739 70 CURVE SMOOTH",
"739 204 OFFCURVE",
"858 426 OFFCURVE",
"858 544 CURVE SMOOTH",
"858 641 OFFCURVE",
"780 674 OFFCURVE",
"695 674 CURVE SMOOTH",
"556 674 OFFCURVE",
"484 601 OFFCURVE",
"365 389 CURVE SMOOTH"
);
},
{
closed = 1;
nodes = (
"314 205 LINE",
"589 205 LINE",
"604 279 LINE",
"330 279 LINE"
);
}
);
};
layerId = "F338CEEC-FB4F-4EA2-8628-1D3334EBA76A";
name = "Regular Italic Mar 25 16, 21:13";
paths = (
{
closed = 1;
nodes = (
"278 236 OFFCURVE",
"245 196 OFFCURVE",
"199 196 CURVE SMOOTH",
"169 196 OFFCURVE",
"151 213 OFFCURVE",
"137 261 CURVE",
"33 231 OFFCURVE",
"-20 139 OFFCURVE",
"-20 52 CURVE SMOOTH",
"-20 -39 OFFCURVE",
"41 -82 OFFCURVE",
"111 -82 CURVE SMOOTH",
"165 -82 OFFCURVE",
"219 -57 OFFCURVE",
"288 46 CURVE SMOOTH",
"378 180 OFFCURVE",
"465 404 OFFCURVE",
"528 493 CURVE SMOOTH",
"549 521 OFFCURVE",
"564 532 OFFCURVE",
"576 532 CURVE SMOOTH",
"585 532 OFFCURVE",
"592 524 OFFCURVE",
"592 509 CURVE SMOOTH",
"592 440 OFFCURVE",
"436 171 OFFCURVE",
"436 13 CURVE SMOOTH",
"436 -82 OFFCURVE",
"492 -123 OFFCURVE",
"569 -123 CURVE SMOOTH",
"639 -123 OFFCURVE",
"740 -91 OFFCURVE",
"802 -30 CURVE",
"761 -13 OFFCURVE",
"746 23 OFFCURVE",
"746 70 CURVE SMOOTH",
"739 204 OFFCURVE",
"858 426 OFFCURVE",
"865 544 CURVE SMOOTH",
"865 641 OFFCURVE",
"783 674 OFFCURVE",
"695 674 CURVE SMOOTH",
"556 674 OFFCURVE",
"484 601 OFFCURVE",
"365 389 CURVE SMOOTH"
);
},
{
closed = 1;
nodes = (
"314 205 LINE",
"589 205 LINE",
"604 279 LINE",
"330 279 LINE"
);
}
);
width = 837;
},
{
associatedMasterId = "BE599D47-15C2-4DC8-BE97-05FFE6CA3179";
background = {
paths = (
{
closed = 1;
nodes = (
"-28 12 OFFCURVE",
"7 -26 OFFCURVE",
"162 -54 CURVE",
"162 -38 OFFCURVE",
"181 19 OFFCURVE",
"187 42 CURVE SMOOTH",
"224 174 OFFCURVE",
"346 325 OFFCURVE",
"431 447 CURVE",
"419 454 LINE",
"424 291 OFFCURVE",
"341 165 OFFCURVE",
"366 22 CURVE SMOOTH",
"378 -41 OFFCURVE",
"409 -54 OFFCURVE",
"469 -54 CURVE SMOOTH",
"521 -54 OFFCURVE",
"580 -26 OFFCURVE",
"621 7 CURVE",
"613 23 OFFCURVE",
"606 40 OFFCURVE",
"603 63 CURVE SMOOTH",
"572 264 OFFCURVE",
"703 482 OFFCURVE",
"673 606 CURVE SMOOTH",
"660 661 OFFCURVE",
"622 674 OFFCURVE",
"569 674 CURVE SMOOTH",
"468 674 OFFCURVE",
"462 647 OFFCURVE",
"336 677 CURVE",
"288 509 OFFCURVE",
"61 279 OFFCURVE",
"14 138 CURVE SMOOTH"
);
},
{
closed = 1;
nodes = (
"171 205 LINE",
"446 205 LINE",
"463 279 LINE",
"189 279 LINE"
);
}
);
};
layerId = "66A671F9-7F48-4C16-93CB-3ACF993B3A6F";
name = "Regular Italic Mar 28 16, 05:23";
paths = (
{
closed = 1;
nodes = (
"-38 12 OFFCURVE",
"-1 -26 OFFCURVE",
"169 -54 CURVE",
"168 -38 OFFCURVE",
"187 19 OFFCURVE",
"194 42 CURVE SMOOTH",
"229 169 OFFCURVE",
"343 314 OFFCURVE",
"424 433 CURVE",
"427 433 LINE",
"431 278 OFFCURVE",
"348 157 OFFCURVE",
"373 22 CURVE SMOOTH",
"384 -41 OFFCURVE",
"415 -54 OFFCURVE",
"475 -54 CURVE SMOOTH",
"530 -54 OFFCURVE",
"591 -26 OFFCURVE",
"633 7 CURVE",
"625 23 OFFCURVE",
"618 40 OFFCURVE",
"615 63 CURVE SMOOTH",
"584 264 OFFCURVE",
"715 482 OFFCURVE",
"685 606 CURVE SMOOTH",
"671 661 OFFCURVE",
"631 674 OFFCURVE",
"576 674 CURVE SMOOTH",
"473 674 OFFCURVE",
"468 647 OFFCURVE",
"341 677 CURVE",
"292 509 OFFCURVE",
"56 279 OFFCURVE",
"7 138 CURVE SMOOTH"
);
},
{
closed = 1;
nodes = (
"159 177 LINE",
"445 177 LINE",
"463 272 LINE",
"176 272 LINE"
);
}
);
width = 663;
},
{
associatedMasterId = "BE599D47-15C2-4DC8-BE97-05FFE6CA3179";
background = {
paths = (
{
closed = 1;
nodes = (
"-38 12 OFFCURVE",
"-1 -26 OFFCURVE",
"169 -54 CURVE",
"168 -38 OFFCURVE",
"187 19 OFFCURVE",
"194 42 CURVE SMOOTH",
"229 169 OFFCURVE",
"343 314 OFFCURVE",
"424 433 CURVE",
"427 433 LINE",
"431 278 OFFCURVE",
"348 157 OFFCURVE",
"373 22 CURVE SMOOTH",
"384 -41 OFFCURVE",
"415 -54 OFFCURVE",
"475 -54 CURVE SMOOTH",
"530 -54 OFFCURVE",
"591 -26 OFFCURVE",
"633 7 CURVE",
"625 23 OFFCURVE",
"618 40 OFFCURVE",
"615 63 CURVE SMOOTH",
"584 264 OFFCURVE",
"715 482 OFFCURVE",
"685 606 CURVE SMOOTH",
"671 661 OFFCURVE",
"631 674 OFFCURVE",
"576 674 CURVE SMOOTH",
"473 674 OFFCURVE",
"468 647 OFFCURVE",
"341 677 CURVE",
"292 509 OFFCURVE",
"56 279 OFFCURVE",
"7 138 CURVE SMOOTH"
);
},
{
closed = 1;
nodes = (
"159 177 LINE",
"445 177 LINE",
"463 272 LINE",
"176 272 LINE"
);
}
);
};
layerId = "5712074A-C34A-4DB5-AD6F-C80BF40B468C";
name = "Regular Italic Mar 28 16, 05:28";
paths = (
{
closed = 1;
nodes = (
"169 -29 OFFCURVE",
"206 82 OFFCURVE",
"224 121 CURVE SMOOTH",
"272 224 OFFCURVE",
"347 320 OFFCURVE",
"424 433 CURVE",
"427 433 LINE",
"430 295 OFFCURVE",
"369 198 OFFCURVE",
"369 67 CURVE SMOOTH",
"369 -13 OFFCURVE",
"391 -54 OFFCURVE",
"470 -54 CURVE SMOOTH",
"532 -54 OFFCURVE",
"588 -28 OFFCURVE",
"633 7 CURVE",
"615 45 OFFCURVE",
"610 80 OFFCURVE",
"610 123 CURVE SMOOTH",
"610 293 OFFCURVE",
"689 448 OFFCURVE",
"689 566 CURVE SMOOTH",
"689 647 OFFCURVE",
"651 674 OFFCURVE",
"569 674 CURVE SMOOTH",
"516 674 OFFCURVE",
"482 663 OFFCURVE",
"440 663 CURVE SMOOTH",
"417 663 OFFCURVE",
"387 666 OFFCURVE",
"341 677 CURVE",
"281 473 OFFCURVE",
"-10 226 OFFCURVE",
"-10 61 CURVE SMOOTH",
"-10 -8 OFFCURVE",
"41 -32 OFFCURVE",
"169 -54 CURVE"
);
},
{
closed = 1;
nodes = (
"445 177 LINE",
"463 272 LINE",
"176 272 LINE",
"159 177 LINE"
);
}
);
width = 663;
},
{
associatedMasterId = "BE599D47-15C2-4DC8-BE97-05FFE6CA3179";
background = {
paths = (
{
closed = 1;
nodes = (
"-43 12 OFFCURVE",
"-5 -26 OFFCURVE",
"164 -54 CURVE",
"164 -38 OFFCURVE",
"183 19 OFFCURVE",
"190 42 CURVE SMOOTH",
"224 169 OFFCURVE",
"339 314 OFFCURVE",
"420 433 CURVE",
"423 433 LINE",
"426 278 OFFCURVE",
"344 157 OFFCURVE",
"369 22 CURVE SMOOTH",
"380 -41 OFFCURVE",
"411 -54 OFFCURVE",
"471 -54 CURVE SMOOTH",
"525 -54 OFFCURVE",
"587 -26 OFFCURVE",
"628 7 CURVE",
"621 23 OFFCURVE",
"614 40 OFFCURVE",
"610 63 CURVE SMOOTH",
"580 264 OFFCURVE",
"711 482 OFFCURVE",
"681 606 CURVE SMOOTH",
"667 661 OFFCURVE",
"626 674 OFFCURVE",
"571 674 CURVE SMOOTH",
"469 674 OFFCURVE",
"463 647 OFFCURVE",
"337 677 CURVE",
"288 509 OFFCURVE",
"52 279 OFFCURVE",
"3 138 CURVE SMOOTH"
);
},
{
closed = 1;
nodes = (
"155 177 LINE",
"441 177 LINE",
"458 272 LINE",
"172 272 LINE"
);
}
);
};
layerId = "0C6A4436-E03B-45C0-AD49-6A3736D3407A";
name = "Regular Italic Mar 28 16, 05:31";
paths = (
{
closed = 1;
nodes = (
"169 -44 OFFCURVE",
"199 68 OFFCURVE",
"215 109 CURVE SMOOTH",
"256 215 OFFCURVE",
"328 314 OFFCURVE",
"400 430 CURVE",
"403 430 LINE",
"412 293 OFFCURVE",
"356 192 OFFCURVE",
"363 62 CURVE SMOOTH",
"367 -17 OFFCURVE",
"392 -58 OFFCURVE",
"470 -54 CURVE SMOOTH",
"533 -50 OFFCURVE",
"587 -22 OFFCURVE",
"630 16 CURVE",
"610 52 OFFCURVE",
"603 88 OFFCURVE",
"601 130 CURVE SMOOTH",
"593 300 OFFCURVE",
"663 459 OFFCURVE",
"657 577 CURVE SMOOTH",
"653 658 OFFCURVE",
"614 683 OFFCURVE",
"532 679 CURVE SMOOTH",
"479 676 OFFCURVE",
"445 663 OFFCURVE",
"403 661 CURVE SMOOTH",
"380 659 OFFCURVE",
"350 661 OFFCURVE",
"303 670 CURVE",
"279 568 OFFCURVE",
"201 452 OFFCURVE",
"127 343 CURVE SMOOTH",
"50 229 OFFCURVE",
"-20 120 OFFCURVE",
"-15 36 CURVE SMOOTH",
"-12 -33 OFFCURVE",
"41 -54 OFFCURVE",
"170 -70 CURVE"
);
},
{
closed = 1;
nodes = (
"427 170 LINE",
"445 265 LINE",
"158 265 LINE",
"141 170 LINE"
);
}
);
width = 654;
},
{
associatedMasterId = "BE599D47-15C2-4DC8-BE97-05FFE6CA3179";
background = {
paths = (
{
closed = 1;
nodes = (
"169 -44 OFFCURVE",
"199 68 OFFCURVE",
"215 109 CURVE SMOOTH",
"256 215 OFFCURVE",
"328 314 OFFCURVE",
"400 430 CURVE",
"403 430 LINE",
"403 419 OFFCURVE",
"404 408 OFFCURVE",
"404 398 CURVE SMOOTH",
"404 284 OFFCURVE",
"362 194 OFFCURVE",
"362 84 CURVE SMOOTH",
"362 -5 OFFCURVE",
"383 -54 OFFCURVE",
"460 -54 CURVE SMOOTH",
"527 -54 OFFCURVE",
"585 -24 OFFCURVE",
"630 16 CURVE",
"608 56 OFFCURVE",
"601 102 OFFCURVE",
"601 157 CURVE SMOOTH",
"601 310 OFFCURVE",
"658 452 OFFCURVE",
"658 562 CURVE SMOOTH",
"658 649 OFFCURVE",
"624 679 OFFCURVE",
"548 679 CURVE SMOOTH",
"412 679 OFFCURVE",
"369 677 OFFCURVE",
"303 670 CURVE",
"279 568 OFFCURVE",
"201 452 OFFCURVE",
"127 343 CURVE SMOOTH",
"53 233 OFFCURVE",
"-15 126 OFFCURVE",
"-15 43 CURVE SMOOTH",
"-15 -32 OFFCURVE",
"37 -54 OFFCURVE",
"170 -70 CURVE"
);
},
{
closed = 1;
nodes = (
"427 170 LINE",
"445 265 LINE",
"158 265 LINE",
"141 170 LINE"
);
}
);
};
layerId = "CA961428-86AA-4AB8-8952-31052F681C2C";
name = "Regular Italic Mar 28 16, 05:33";
paths = (
{
closed = 1;
nodes = (
"169 -44 OFFCURVE",
"199 68 OFFCURVE",
"215 109 CURVE SMOOTH",
"256 215 OFFCURVE",
"328 314 OFFCURVE",
"400 430 CURVE",
"403 430 LINE",
"403 419 OFFCURVE",
"404 408 OFFCURVE",
"404 398 CURVE SMOOTH",
"404 284 OFFCURVE",
"362 194 OFFCURVE",
"362 84 CURVE SMOOTH",
"362 -5 OFFCURVE",
"383 -54 OFFCURVE",
"460 -54 CURVE SMOOTH",
"527 -54 OFFCURVE",
"585 -24 OFFCURVE",
"630 16 CURVE",
"608 56 OFFCURVE",
"601 102 OFFCURVE",
"601 157 CURVE SMOOTH",
"601 310 OFFCURVE",
"658 452 OFFCURVE",
"658 562 CURVE SMOOTH",
"658 649 OFFCURVE",
"624 679 OFFCURVE",
"548 679 CURVE SMOOTH",
"479 679 OFFCURVE",
"442 660 OFFCURVE",
"389 660 CURVE SMOOTH",
"369 660 OFFCURVE",
"341 663 OFFCURVE",
"303 670 CURVE",
"279 568 OFFCURVE",
"201 452 OFFCURVE",
"127 343 CURVE SMOOTH",
"53 233 OFFCURVE",
"-15 126 OFFCURVE",
"-15 43 CURVE SMOOTH",
"-15 -32 OFFCURVE",
"37 -54 OFFCURVE",
"170 -70 CURVE"
);
},
{
closed = 1;
nodes = (
"427 170 LINE",
"445 265 LINE",
"158 265 LINE",
"141 170 LINE"
);
}
);
width = 654;
},
{
associatedMasterId = "BE599D47-15C2-4DC8-BE97-05FFE6CA3179";
background = {
paths = (
{
closed = 1;
nodes = (
"163 -44 OFFCURVE",
"194 68 OFFCURVE",
"210 109 CURVE SMOOTH",
"251 215 OFFCURVE",
"323 314 OFFCURVE",
"394 430 CURVE",
"397 430 LINE",
"398 419 OFFCURVE",
"399 408 OFFCURVE",
"399 398 CURVE SMOOTH",
"399 284 OFFCURVE",
"357 194 OFFCURVE",
"357 84 CURVE SMOOTH",
"357 -5 OFFCURVE",
"378 -54 OFFCURVE",
"454 -54 CURVE SMOOTH",
"521 -54 OFFCURVE",
"579 -24 OFFCURVE",
"624 16 CURVE",
"602 56 OFFCURVE",
"595 102 OFFCURVE",
"595 157 CURVE SMOOTH",
"595 310 OFFCURVE",
"652 452 OFFCURVE",
"652 562 CURVE SMOOTH",
"652 649 OFFCURVE",
"618 679 OFFCURVE",
"543 679 CURVE SMOOTH",
"474 679 OFFCURVE",
"437 660 OFFCURVE",
"384 660 CURVE SMOOTH",
"363 660 OFFCURVE",
"336 663 OFFCURVE",
"298 670 CURVE",
"274 568 OFFCURVE",
"195 452 OFFCURVE",
"121 343 CURVE SMOOTH",
"47 233 OFFCURVE",
"-21 126 OFFCURVE",
"-21 43 CURVE SMOOTH",
"-21 -32 OFFCURVE",
"31 -54 OFFCURVE",
"164 -70 CURVE"
);
},
{
closed = 1;
nodes = (
"422 170 LINE",
"439 265 LINE",
"153 265 LINE",
"135 170 LINE"
);
}
);
};
layerId = "91D9C0AA-863E-4433-BE0E-35712C1D4481";
name = "Regular Italic Apr 1 16, 22:39";
paths = (
{
closed = 1;
nodes = (
"163 -44 OFFCURVE",
"194 68 OFFCURVE",
"210 109 CURVE SMOOTH",
"251 215 OFFCURVE",
"323 314 OFFCURVE",
"394 430 CURVE",
"397 430 LINE",
"398 419 OFFCURVE",
"399 408 OFFCURVE",
"399 398 CURVE SMOOTH",
"399 284 OFFCURVE",
"357 194 OFFCURVE",
"357 84 CURVE SMOOTH",
"357 -5 OFFCURVE",
"378 -54 OFFCURVE",
"454 -54 CURVE SMOOTH",
"521 -54 OFFCURVE",
"579 -24 OFFCURVE",
"624 16 CURVE",
"602 56 OFFCURVE",
"595 102 OFFCURVE",
"595 157 CURVE SMOOTH",
"595 310 OFFCURVE",
"638 452 OFFCURVE",
"638 562 CURVE SMOOTH",
"638 649 OFFCURVE",
"606 679 OFFCURVE",
"536 679 CURVE SMOOTH",
"437 679 OFFCURVE",
"341 669 OFFCURVE",
"270 642 CURVE",
"298 591 OFFCURVE",
"183 443 OFFCURVE",
"121 343 CURVE SMOOTH",
"47 233 OFFCURVE",
"-21 126 OFFCURVE",
"-21 43 CURVE SMOOTH",
"-21 -32 OFFCURVE",
"31 -54 OFFCURVE",
"164 -70 CURVE"
);
},
{
closed = 1;
nodes = (
"422 170 LINE",
"439 265 LINE",
"153 265 LINE",
"135 170 LINE"
);
}
);
width = 673;
}
);
unicode = 0041;
},
{
glyphname = Aring;
lastChange = "2016-04-03 02:12:17 +0000";
layers = (
{
components = (
{
name = A;
}
);
layerId = "BE599D47-15C2-4DC8-BE97-05FFE6CA3179";
paths = (
{
closed = 1;
nodes = (
"509 741 OFFCURVE",
"580 796 OFFCURVE",
"580 854 CURVE SMOOTH",
"580 882 OFFCURVE",
"562 918 OFFCURVE",
"498 918 CURVE SMOOTH",
"415 918 OFFCURVE",
"334 857 OFFCURVE",
"334 797 CURVE SMOOTH",
"334 762 OFFCURVE",
"362 741 OFFCURVE",
"417 741 CURVE SMOOTH"
);
},
{
closed = 1;
nodes = (
"429 801 OFFCURVE",
"421 807 OFFCURVE",
"421 819 CURVE SMOOTH",
"421 839 OFFCURVE",
"445 858 OFFCURVE",
"469 858 CURVE SMOOTH",
"488 858 OFFCURVE",
"493 847 OFFCURVE",
"493 838 CURVE SMOOTH",
"493 819 OFFCURVE",
"472 801 OFFCURVE",
"445 801 CURVE SMOOTH"
);
}
);
width = 633;
}
);
unicode = 00C5;
},
{
glyphname = B;
lastChange = "2016-04-03 02:12:17 +0000";
layers = (
{
background = {
paths = (
{
closed = 1;
nodes = (
"245 674 LINE SMOOTH",
"176 674 OFFCURVE",
"118 663 OFFCURVE",
"84 521 CURVE",
"132 521 OFFCURVE",
"144 514 OFFCURVE",
"144 477 CURVE SMOOTH",
"144 352 OFFCURVE",
"12 180 OFFCURVE",
"12 77 CURVE SMOOTH",
"12 -34 OFFCURVE",
"147 -55 OFFCURVE",
"304 -55 CURVE SMOOTH",
"458 -55 OFFCURVE",
"616 43 OFFCURVE",
"640 174 CURVE SMOOTH",
"658 271 OFFCURVE",
"627 412 OFFCURVE",
"232 360 CURVE",
"197 228 LINE",
"351 249 OFFCURVE",
"406 240 OFFCURVE",
"406 185 CURVE SMOOTH",
"406 156 OFFCURVE",
"385 123 OFFCURVE",
"280 123 CURVE SMOOTH",
"261 123 OFFCURVE",
"242 130 OFFCURVE",
"242 148 CURVE SMOOTH",
"242 198 OFFCURVE",
"368 463 OFFCURVE",
"405 532 CURVE",
"316 488 LINE",
"364 502 OFFCURVE",
"390 504 OFFCURVE",
"400 504 CURVE SMOOTH",
"429 504 OFFCURVE",
"464 486 OFFCURVE",
"454 445 CURVE SMOOTH",
"441 389 OFFCURVE",
"422 369 OFFCURVE",
"350 338 CURVE",
"488 286 LINE",
"593 330 OFFCURVE",
"667 419 OFFCURVE",
"667 493 CURVE SMOOTH",
"667 598 OFFCURVE",
"576 674 OFFCURVE",
"432 674 CURVE"
);
}
);
};
layerId = "BE599D47-15C2-4DC8-BE97-05FFE6CA3179";
paths = (
{
closed = 1;
nodes = (
"12 24 OFFCURVE",
"133 -12 OFFCURVE",
"263 -12 CURVE SMOOTH",
"463 -12 OFFCURVE",
"644 83 OFFCURVE",
"644 256 CURVE SMOOTH",
"644 300 OFFCURVE",
"628 346 OFFCURVE",
"571 378 CURVE",
"630 424 OFFCURVE",
"667 484 OFFCURVE",
"667 537 CURVE SMOOTH",
"667 641 OFFCURVE",
"576 717 OFFCURVE",
"432 717 CURVE SMOOTH",
"245 717 LINE SMOOTH",
"176 717 OFFCURVE",
"118 707 OFFCURVE",
"84 564 CURVE",
"132 564 OFFCURVE",
"144 557 OFFCURVE",
"144 520 CURVE SMOOTH",
"144 395 OFFCURVE",
"12 223 OFFCURVE",
"12 121 CURVE SMOOTH"
);
},
{
closed = 1;
nodes = (
"242 215 OFFCURVE",
"256 252 OFFCURVE",
"267 277 CURVE",
"288 279 OFFCURVE",
"307 279 OFFCURVE",
"323 279 CURVE SMOOTH",
"386 279 OFFCURVE",
"405 266 OFFCURVE",
"405 230 CURVE SMOOTH",
"405 197 OFFCURVE",
"385 167 OFFCURVE",
"284 167 CURVE SMOOTH",
"264 167 OFFCURVE",
"242 171 OFFCURVE",
"242 194 CURVE SMOOTH"
);
},
{
closed = 1;
nodes = (
"349 463 OFFCURVE",
"373 513 OFFCURVE",
"390 547 CURVE",
"400 547 LINE SMOOTH",
"425 547 OFFCURVE",
"456 533 OFFCURVE",
"456 502 CURVE SMOOTH",
"456 497 OFFCURVE",
"456 493 OFFCURVE",
"454 488 CURVE",
"446 453 OFFCURVE",
"435 432 OFFCURVE",
"411 414 CURVE",
"387 414 LINE SMOOTH",
"368 414 OFFCURVE",
"348 413 OFFCURVE",
"326 412 CURVE"
);
}
);
width = 638;
},
{
associatedMasterId = "BE599D47-15C2-4DC8-BE97-05FFE6CA3179";
background = {
paths = (
{
closed = 1;
nodes = (
"520 -55 OFFCURVE",
"715 167 OFFCURVE",
"715 403 CURVE SMOOTH",
"715 574 OFFCURVE",
"617 674 OFFCURVE",
"432 674 CURVE SMOOTH",
"245 674 LINE SMOOTH",
"176 674 OFFCURVE",
"118 663 OFFCURVE",
"84 521 CURVE",
"132 521 OFFCURVE",
"144 514 OFFCURVE",
"144 477 CURVE SMOOTH",
"144 352 OFFCURVE",
"12 180 OFFCURVE",
"12 77 CURVE SMOOTH",
"12 -13 OFFCURVE",
"114 -55 OFFCURVE",
"236 -55 CURVE SMOOTH"
);
},
{
closed = 1;
nodes = (
"269 123 OFFCURVE",
"250 130 OFFCURVE",
"250 148 CURVE SMOOTH",
"250 196 OFFCURVE",
"369 450 OFFCURVE",
"404 516 CURVE",
"317 477 LINE",
"365 492 OFFCURVE",
"392 493 OFFCURVE",
"401 493 CURVE SMOOTH",
"443 493 OFFCURVE",
"467 468 OFFCURVE",
"467 407 CURVE SMOOTH",
"467 292 OFFCURVE",
"384 123 OFFCURVE",
"288 123 CURVE SMOOTH"
);
}
);
};
layerId = "380EF5FB-E096-494B-B813-F80B22F603C4";
name = "Regular Italic Mar 26 16, 00:49";
paths = (
{
closed = 1;
nodes = (
"245 674 LINE SMOOTH",
"176 674 OFFCURVE",
"118 663 OFFCURVE",
"84 521 CURVE",
"132 521 OFFCURVE",
"144 514 OFFCURVE",
"144 477 CURVE SMOOTH",
"144 352 OFFCURVE",
"12 180 OFFCURVE",
"12 77 CURVE SMOOTH",
"12 -34 OFFCURVE",
"147 -55 OFFCURVE",
"304 -55 CURVE SMOOTH",
"458 -55 OFFCURVE",
"615 35 OFFCURVE",
"640 167 CURVE SMOOTH",
"657 254 OFFCURVE",
"560 343 OFFCURVE",
"252 352 CURVE",
"203 227 LINE",
"213 228 OFFCURVE",
"223 228 OFFCURVE",
"232 228 CURVE SMOOTH",
"358 228 OFFCURVE",
"399 208 OFFCURVE",
"399 185 CURVE SMOOTH",
"399 156 OFFCURVE",
"391 123 OFFCURVE",
"280 123 CURVE SMOOTH",
"261 123 OFFCURVE",
"242 130 OFFCURVE",
"242 148 CURVE SMOOTH",
"242 198 OFFCURVE",
"368 463 OFFCURVE",
"405 532 CURVE",
"316 488 LINE",
"364 502 OFFCURVE",
"390 504 OFFCURVE",
"400 504 CURVE SMOOTH",
"424 504 OFFCURVE",
"439 486 OFFCURVE",
"439 445 CURVE SMOOTH",
"439 387 OFFCURVE",
"386 355 OFFCURVE",
"320 355 CURVE SMOOTH",
"288 355 OFFCURVE",
"257 361 OFFCURVE",
"213 370 CURVE",
"165 233 LINE",
"206 214 OFFCURVE",
"259 204 OFFCURVE",
"318 204 CURVE SMOOTH",
"518 204 OFFCURVE",
"674 300 OFFCURVE",
"674 472 CURVE SMOOTH",
"674 589 OFFCURVE",
"580 674 OFFCURVE",
"432 674 CURVE"
);
}
);
width = 725;
},
{
associatedMasterId = "BE599D47-15C2-4DC8-BE97-05FFE6CA3179";
background = {
paths = (
{
closed = 1;
nodes = (
"171 237 OFFCURVE",
"206 232 OFFCURVE",
"314 232 CURVE SMOOTH",
"479 232 OFFCURVE",
"569 245 OFFCURVE",
"572 339 CURVE SMOOTH",
"573 359 OFFCURVE",
"570 378 OFFCURVE",
"560 402 CURVE",
"485 386 OFFCURVE",
"426 376 OFFCURVE",
"258 376 CURVE SMOOTH",
"199 376 OFFCURVE",
"176 350 OFFCURVE",
"173 303 CURVE SMOOTH"
);
},
{
closed = 1;
nodes = (
"10 -25 OFFCURVE",
"112 -55 OFFCURVE",
"309 -55 CURVE SMOOTH",
"452 -55 OFFCURVE",
"569 -40 OFFCURVE",
"569 102 CURVE SMOOTH",
"569 125 OFFCURVE",
"566 148 OFFCURVE",
"553 168 CURVE",
"525 143 OFFCURVE",
"438 116 OFFCURVE",
"353 116 CURVE SMOOTH",
"318 116 OFFCURVE",
"286 120 OFFCURVE",
"270 125 CURVE SMOOTH",
"254 131 OFFCURVE",
"250 139 OFFCURVE",
"250 148 CURVE SMOOTH",
"250 193 OFFCURVE",
"358 415 OFFCURVE",
"393 479 CURVE",
"406 479 OFFCURVE",
"419 478 OFFCURVE",
"433 478 CURVE SMOOTH",
"602 478 OFFCURVE",
"713 501 OFFCURVE",
"713 613 CURVE SMOOTH",
"713 637 OFFCURVE",
"708 661 OFFCURVE",
"697 686 CURVE",
"625 663 OFFCURVE",
"561 656 OFFCURVE",
"509 656 CURVE SMOOTH",
"429 656 OFFCURVE",
"336 674 OFFCURVE",
"245 674 CURVE SMOOTH",
"176 674 OFFCURVE",
"118 663 OFFCURVE",
"84 521 CURVE",
"132 521 OFFCURVE",
"144 514 OFFCURVE",
"144 477 CURVE SMOOTH",
"144 353 OFFCURVE",
"14 183 OFFCURVE",
"12 73 CURVE SMOOTH"
);
}
);
};
layerId = "DC25D6E3-B0D0-457D-9D94-58E22B558085";
name = "Regular Italic Mar 26 16, 00:52";
paths = (
{
closed = 1;
nodes = (
"245 674 LINE SMOOTH",
"176 674 OFFCURVE",
"118 663 OFFCURVE",
"84 521 CURVE",
"132 521 OFFCURVE",
"144 514 OFFCURVE",
"144 477 CURVE SMOOTH",
"144 352 OFFCURVE",
"12 180 OFFCURVE",
"12 77 CURVE SMOOTH",
"12 -34 OFFCURVE",
"147 -55 OFFCURVE",
"304 -55 CURVE SMOOTH",
"458 -55 OFFCURVE",
"615 43 OFFCURVE",
"640 174 CURVE SMOOTH",
"657 271 OFFCURVE",
"627 412 OFFCURVE",
"232 360 CURVE",
"197 228 LINE",
"351 249 OFFCURVE",
"406 240 OFFCURVE",
"406 185 CURVE SMOOTH",
"406 156 OFFCURVE",
"385 123 OFFCURVE",
"280 123 CURVE SMOOTH",
"261 123 OFFCURVE",
"242 130 OFFCURVE",
"242 148 CURVE SMOOTH",
"242 198 OFFCURVE",
"368 463 OFFCURVE",
"405 532 CURVE",
"316 488 LINE",
"364 502 OFFCURVE",
"390 504 OFFCURVE",
"400 504 CURVE SMOOTH",
"429 504 OFFCURVE",
"464 486 OFFCURVE",
"454 445 CURVE SMOOTH",
"441 389 OFFCURVE",
"422 369 OFFCURVE",
"350 338 CURVE",
"488 286 LINE",
"593 330 OFFCURVE",
"667 419 OFFCURVE",
"667 493 CURVE SMOOTH",
"667 598 OFFCURVE",
"576 674 OFFCURVE",
"432 674 CURVE"
);
}
);
width = 725;
},
{
associatedMasterId = "BE599D47-15C2-4DC8-BE97-05FFE6CA3179";
background = {
paths = (
{
closed = 1;
nodes = (
"245 674 LINE SMOOTH",
"176 674 OFFCURVE",
"118 663 OFFCURVE",
"84 521 CURVE",
"132 521 OFFCURVE",
"144 514 OFFCURVE",
"144 477 CURVE SMOOTH",
"144 352 OFFCURVE",
"12 180 OFFCURVE",
"12 77 CURVE SMOOTH",
"12 -34 OFFCURVE",
"147 -55 OFFCURVE",
"304 -55 CURVE SMOOTH",
"458 -55 OFFCURVE",
"616 43 OFFCURVE",
"640 174 CURVE SMOOTH",
"658 271 OFFCURVE",
"627 412 OFFCURVE",
"232 360 CURVE",
"197 228 LINE",
"351 249 OFFCURVE",
"406 240 OFFCURVE",
"406 185 CURVE SMOOTH",
"406 156 OFFCURVE",
"385 123 OFFCURVE",
"280 123 CURVE SMOOTH",
"261 123 OFFCURVE",
"242 130 OFFCURVE",
"242 148 CURVE SMOOTH",
"242 198 OFFCURVE",
"368 463 OFFCURVE",
"405 532 CURVE",
"316 488 LINE",
"364 502 OFFCURVE",
"390 504 OFFCURVE",
"400 504 CURVE SMOOTH",
"429 504 OFFCURVE",
"464 486 OFFCURVE",
"454 445 CURVE SMOOTH",
"441 389 OFFCURVE",
"422 369 OFFCURVE",
"350 338 CURVE",
"488 286 LINE",
"593 330 OFFCURVE",
"667 419 OFFCURVE",
"667 493 CURVE SMOOTH",
"667 598 OFFCURVE",
"576 674 OFFCURVE",
"432 674 CURVE"
);
}
);
};
layerId = "9E2D2D0E-4977-49D1-9880-B962125E7189";
name = "Regular Italic Mar 26 16, 00:56";
paths = (
{
closed = 1;
nodes = (
"12 -34 OFFCURVE",
"147 -55 OFFCURVE",
"304 -55 CURVE SMOOTH",
"458 -55 OFFCURVE",
"615 43 OFFCURVE",
"640 174 CURVE SMOOTH",
"651 233 OFFCURVE",
"643 309 OFFCURVE",
"545 348 CURVE",
"552 321 LINE",
"622 368 OFFCURVE",
"667 435 OFFCURVE",
"667 493 CURVE SMOOTH",
"667 598 OFFCURVE",
"576 674 OFFCURVE",
"432 674 CURVE SMOOTH",
"245 674 LINE SMOOTH",
"176 674 OFFCURVE",
"118 663 OFFCURVE",
"84 521 CURVE",
"132 521 OFFCURVE",
"144 514 OFFCURVE",
"144 477 CURVE SMOOTH",
"144 352 OFFCURVE",
"12 180 OFFCURVE",
"12 77 CURVE SMOOTH"
);
},
{
closed = 1;
nodes = (
"346 413 OFFCURVE",
"378 479 OFFCURVE",
"397 517 CURVE",
"359 503 LINE",
"400 504 LINE SMOOTH",
"429 504 OFFCURVE",
"464 486 OFFCURVE",
"454 445 CURVE SMOOTH",
"444 401 OFFCURVE",
"431 380 OFFCURVE",
"392 358 CURVE",
"429 370 LINE",
"393 371 OFFCURVE",
"351 371 OFFCURVE",
"301 367 CURVE",
"316 347 LINE"
);
},
{
closed = 1;
nodes = (
"262 123 OFFCURVE",
"243 130 OFFCURVE",
"242 149 CURVE SMOOTH",
"242 176 OFFCURVE",
"264 228 OFFCURVE",
"274 249 CURVE",
"197 228 LINE",
"363 244 OFFCURVE",
"405 240 OFFCURVE",
"405 187 CURVE SMOOTH",
"405 153 OFFCURVE",
"385 123 OFFCURVE",
"280 123 CURVE SMOOTH"
);
}
);
width = 725;
},
{
associatedMasterId = "BE599D47-15C2-4DC8-BE97-05FFE6CA3179";
background = {
paths = (
{
closed = 1;
nodes = (
"279 674 LINE SMOOTH",
"210 674 OFFCURVE",
"153 663 OFFCURVE",
"119 521 CURVE",
"167 521 OFFCURVE",
"179 514 OFFCURVE",
"179 477 CURVE SMOOTH",
"179 352 OFFCURVE",
"47 180 OFFCURVE",
"47 77 CURVE SMOOTH",
"47 -34 OFFCURVE",
"182 -55 OFFCURVE",
"339 -55 CURVE SMOOTH",
"493 -55 OFFCURVE",
"651 43 OFFCURVE",
"675 174 CURVE SMOOTH",
"693 271 OFFCURVE",
"662 412 OFFCURVE",
"267 360 CURVE",
"232 228 LINE",
"386 249 OFFCURVE",
"440 240 OFFCURVE",
"440 185 CURVE SMOOTH",
"440 156 OFFCURVE",
"419 123 OFFCURVE",
"315 123 CURVE SMOOTH",
"295 123 OFFCURVE",
"277 130 OFFCURVE",
"277 148 CURVE SMOOTH",
"277 198 OFFCURVE",
"403 463 OFFCURVE",
"440 532 CURVE",
"350 488 LINE",
"399 502 OFFCURVE",
"425 504 OFFCURVE",
"435 504 CURVE SMOOTH",
"463 504 OFFCURVE",
"499 486 OFFCURVE",
"489 445 CURVE SMOOTH",
"476 389 OFFCURVE",
"457 369 OFFCURVE",
"385 338 CURVE",
"523 286 LINE",
"628 330 OFFCURVE",
"702 419 OFFCURVE",
"702 493 CURVE SMOOTH",
"702 598 OFFCURVE",
"611 674 OFFCURVE",
"467 674 CURVE"
);
}
);
};
layerId = "BEEECADA-6412-4ADD-9B0F-94B94D5FFAB6";
name = "Regular Italic Mar 27 16, 16:25";
paths = (
{
closed = 1;
nodes = (
"47 -19 OFFCURVE",
"168 -55 OFFCURVE",
"298 -55 CURVE SMOOTH",
"498 -55 OFFCURVE",
"679 40 OFFCURVE",
"679 213 CURVE SMOOTH",
"679 263 OFFCURVE",
"658 317 OFFCURVE",
"580 348 CURVE",
"587 321 LINE",
"656 368 OFFCURVE",
"702 435 OFFCURVE",
"702 493 CURVE SMOOTH",
"702 598 OFFCURVE",
"611 674 OFFCURVE",
"467 674 CURVE SMOOTH",
"279 674 LINE SMOOTH",
"210 674 OFFCURVE",
"153 663 OFFCURVE",
"119 521 CURVE",
"167 521 OFFCURVE",
"179 514 OFFCURVE",
"179 477 CURVE SMOOTH",
"179 352 OFFCURVE",
"47 180 OFFCURVE",
"47 78 CURVE SMOOTH"
);
},
{
closed = 1;
nodes = (
"380 413 OFFCURVE",
"412 479 OFFCURVE",
"432 517 CURVE",
"394 503 LINE",
"435 504 LINE SMOOTH",
"460 504 OFFCURVE",
"491 490 OFFCURVE",
"491 458 CURVE SMOOTH",
"491 454 OFFCURVE",
"491 450 OFFCURVE",
"489 445 CURVE SMOOTH",
"479 401 OFFCURVE",
"465 380 OFFCURVE",
"426 358 CURVE",
"464 370 LINE",
"451 371 OFFCURVE",
"437 371 OFFCURVE",
"422 371 CURVE SMOOTH",
"396 371 OFFCURVE",
"368 370 OFFCURVE",
"336 367 CURVE",
"351 347 LINE"
);
},
{
closed = 1;
nodes = (
"299 123 OFFCURVE",
"277 128 OFFCURVE",
"277 151 CURVE SMOOTH",
"277 177 OFFCURVE",
"299 228 OFFCURVE",
"309 249 CURVE",
"232 228 LINE",
"286 233 OFFCURVE",
"327 236 OFFCURVE",
"357 236 CURVE SMOOTH",
"421 236 OFFCURVE",
"440 223 OFFCURVE",
"440 187 CURVE SMOOTH",
"440 154 OFFCURVE",
"420 123 OFFCURVE",
"318 123 CURVE SMOOTH"
);
}
);
width = 699;
}
);
unicode = 0042;
},
{
glyphname = C;
lastChange = "2016-04-03 02:12:17 +0000";
layers = (
{
background = {
paths = (
{
closed = 1;
nodes = (
"19 26 OFFCURVE",
"126 -63 OFFCURVE",
"318 -63 CURVE SMOOTH",
"471 -63 OFFCURVE",
"619 -6 OFFCURVE",
"619 128 CURVE SMOOTH",
"619 150 OFFCURVE",
"615 180 OFFCURVE",
"596 219 CURVE",
"542 166 OFFCURVE",
"461 137 OFFCURVE",
"378 137 CURVE SMOOTH",
"348 137 OFFCURVE",
"295 153 OFFCURVE",
"295 232 CURVE SMOOTH",
"295 333 OFFCURVE",
"383 511 OFFCURVE",
"472 511 CURVE SMOOTH",
"502 511 OFFCURVE",
"514 491 OFFCURVE",
"514 463 CURVE SMOOTH",
"514 422 OFFCURVE",
"491 376 OFFCURVE",
"454 335 CURVE",
"481 320 OFFCURVE",
"509 313 OFFCURVE",
"537 313 CURVE SMOOTH",
"625 313 OFFCURVE",
"706 387 OFFCURVE",
"706 495 CURVE SMOOTH",
"706 610 OFFCURVE",
"617 674 OFFCURVE",
"477 674 CURVE SMOOTH",
"226 674 OFFCURVE",
"19 470 OFFCURVE",
"19 213 CURVE SMOOTH"
);
}
);
};
layerId = "BE599D47-15C2-4DC8-BE97-05FFE6CA3179";
paths = (
{
closed = 1;
nodes = (
"26 70 OFFCURVE",
"130 -20 OFFCURVE",
"318 -20 CURVE SMOOTH",
"468 -20 OFFCURVE",
"612 38 OFFCURVE",
"612 171 CURVE SMOOTH",
"612 193 OFFCURVE",
"608 224 OFFCURVE",
"589 263 CURVE",
"535 209 OFFCURVE",
"458 180 OFFCURVE",
"378 180 CURVE SMOOTH",
"348 180 OFFCURVE",
"295 196 OFFCURVE",
"295 275 CURVE SMOOTH",
"295 376 OFFCURVE",
"383 554 OFFCURVE",
"472 554 CURVE SMOOTH",
"502 554 OFFCURVE",
"514 534 OFFCURVE",
"514 506 CURVE SMOOTH",
"514 465 OFFCURVE",
"491 419 OFFCURVE",
"454 378 CURVE",
"481 363 OFFCURVE",
"509 356 OFFCURVE",
"537 356 CURVE SMOOTH",
"622 356 OFFCURVE",
"699 430 OFFCURVE",
"699 538 CURVE SMOOTH",
"699 653 OFFCURVE",
"613 717 OFFCURVE",
"477 717 CURVE SMOOTH",
"230 717 OFFCURVE",
"26 514 OFFCURVE",
"26 256 CURVE SMOOTH"
);
}
);
width = 636;
},
{
associatedMasterId = "BE599D47-15C2-4DC8-BE97-05FFE6CA3179";
background = {
paths = (
{
closed = 1;
nodes = (
"337 110 OFFCURVE",
"329 128 OFFCURVE",
"329 164 CURVE SMOOTH",
"329 286 OFFCURVE",
"419 502 OFFCURVE",
"477 502 CURVE SMOOTH",
"494 502 OFFCURVE",
"498 484 OFFCURVE",
"498 453 CURVE SMOOTH",
"498 319 OFFCURVE",
"411 110 OFFCURVE",
"353 110 CURVE SMOOTH"
);
},
{
closed = 1;
nodes = (
"44 15 OFFCURVE",
"185 -58 OFFCURVE",
"324 -58 CURVE SMOOTH",
"569 -58 OFFCURVE",
"753 169 OFFCURVE",
"762 429 CURVE SMOOTH",
"769 616 OFFCURVE",
"627 677 OFFCURVE",
"500 677 CURVE SMOOTH",
"252 677 OFFCURVE",
"61 461 OFFCURVE",
"52 219 CURVE SMOOTH"
);
}
);
};
layerId = "4E5EA5C6-2A9B-46A3-AEE0-F8FF65556DF6";
name = "Regular Italic Mar 25 16, 21:26";
paths = (
{
closed = 1;
nodes = (
"55 26 OFFCURVE",
"162 -63 OFFCURVE",
"346 -63 CURVE SMOOTH",
"472 -63 OFFCURVE",
"647 -6 OFFCURVE",
"647 98 CURVE SMOOTH",
"647 147 OFFCURVE",
"642 192 OFFCURVE",
"625 219 CURVE",
"571 166 OFFCURVE",
"497 137 OFFCURVE",
"415 137 CURVE SMOOTH",
"385 137 OFFCURVE",
"332 153 OFFCURVE",
"332 232 CURVE SMOOTH",
"332 333 OFFCURVE",
"419 511 OFFCURVE",
"511 511 CURVE SMOOTH",
"539 511 OFFCURVE",
"550 491 OFFCURVE",
"550 464 CURVE SMOOTH",
"550 424 OFFCURVE",
"525 369 OFFCURVE",
"491 335 CURVE",
"518 320 OFFCURVE",
"546 313 OFFCURVE",
"573 313 CURVE SMOOTH",
"662 313 OFFCURVE",
"742 387 OFFCURVE",
"742 499 CURVE SMOOTH",
"742 610 OFFCURVE",
"654 674 OFFCURVE",
"494 674 CURVE SMOOTH",
"263 674 OFFCURVE",
"55 470 OFFCURVE",
"55 207 CURVE SMOOTH"
);
}
);
width = 691;
},
{
associatedMasterId = "BE599D47-15C2-4DC8-BE97-05FFE6CA3179";
background = {
paths = (
{
closed = 1;
nodes = (
"54 26 OFFCURVE",
"162 -63 OFFCURVE",
"346 -63 CURVE SMOOTH",
"472 -63 OFFCURVE",
"647 -6 OFFCURVE",
"647 98 CURVE SMOOTH",
"647 147 OFFCURVE",
"641 192 OFFCURVE",
"624 219 CURVE",
"571 166 OFFCURVE",
"496 137 OFFCURVE",
"414 137 CURVE SMOOTH",
"384 137 OFFCURVE",
"331 153 OFFCURVE",
"331 232 CURVE SMOOTH",
"331 333 OFFCURVE",
"418 511 OFFCURVE",
"510 511 CURVE SMOOTH",
"538 511 OFFCURVE",
"549 491 OFFCURVE",
"549 464 CURVE SMOOTH",
"549 424 OFFCURVE",
"525 369 OFFCURVE",
"490 335 CURVE",
"517 320 OFFCURVE",
"545 313 OFFCURVE",
"572 313 CURVE SMOOTH",
"661 313 OFFCURVE",
"741 387 OFFCURVE",
"741 499 CURVE SMOOTH",
"741 610 OFFCURVE",
"653 674 OFFCURVE",
"493 674 CURVE SMOOTH",
"262 674 OFFCURVE",
"54 470 OFFCURVE",
"54 207 CURVE SMOOTH"
);
}
);
};
layerId = "40B8CCE1-4585-447C-BA12-7CA9ECF6E9D9";
name = "Regular Italic Mar 26 16, 00:59";
paths = (
{
closed = 1;
nodes = (
"54 26 OFFCURVE",
"162 -63 OFFCURVE",
"353 -63 CURVE SMOOTH",
"507 -63 OFFCURVE",
"654 -6 OFFCURVE",
"654 128 CURVE SMOOTH",
"654 150 OFFCURVE",
"650 180 OFFCURVE",
"631 219 CURVE",
"578 166 OFFCURVE",
"496 137 OFFCURVE",
"414 137 CURVE SMOOTH",
"384 137 OFFCURVE",
"331 153 OFFCURVE",
"331 232 CURVE SMOOTH",
"331 333 OFFCURVE",
"419 511 OFFCURVE",
"508 511 CURVE SMOOTH",
"538 511 OFFCURVE",
"549 491 OFFCURVE",
"549 463 CURVE SMOOTH",
"549 422 OFFCURVE",
"526 376 OFFCURVE",
"490 335 CURVE",
"517 320 OFFCURVE",
"545 313 OFFCURVE",
"572 313 CURVE SMOOTH",
"661 313 OFFCURVE",
"741 387 OFFCURVE",
"741 495 CURVE SMOOTH",
"741 610 OFFCURVE",
"653 674 OFFCURVE",
"512 674 CURVE SMOOTH",
"262 674 OFFCURVE",
"54 470 OFFCURVE",
"54 213 CURVE SMOOTH"
);
}
);
width = 690;
}
);
unicode = 0043;
},
{
glyphname = D;
lastChange = "2016-04-03 02:12:17 +0000";
layers = (
{
background = {
paths = (
{
closed = 1;
nodes = (
"10 -25 OFFCURVE",
"112 -55 OFFCURVE",
"309 -55 CURVE SMOOTH",
"452 -55 OFFCURVE",
"569 -40 OFFCURVE",
"569 102 CURVE SMOOTH",
"569 125 OFFCURVE",
"566 148 OFFCURVE",
"553 168 CURVE",
"525 143 OFFCURVE",
"438 116 OFFCURVE",
"353 116 CURVE SMOOTH",
"318 116 OFFCURVE",
"286 120 OFFCURVE",
"270 125 CURVE SMOOTH",
"254 131 OFFCURVE",
"250 139 OFFCURVE",
"250 148 CURVE SMOOTH",
"250 193 OFFCURVE",
"358 415 OFFCURVE",
"393 479 CURVE",
"406 479 OFFCURVE",
"419 478 OFFCURVE",
"433 478 CURVE SMOOTH",
"602 478 OFFCURVE",
"713 501 OFFCURVE",
"713 613 CURVE SMOOTH",
"713 637 OFFCURVE",
"708 661 OFFCURVE",
"697 686 CURVE",
"625 663 OFFCURVE",
"561 656 OFFCURVE",
"509 656 CURVE SMOOTH",
"429 656 OFFCURVE",
"336 674 OFFCURVE",
"245 674 CURVE SMOOTH",
"176 674 OFFCURVE",
"118 663 OFFCURVE",
"84 521 CURVE",
"132 521 OFFCURVE",
"144 514 OFFCURVE",
"144 477 CURVE SMOOTH",
"144 353 OFFCURVE",
"14 183 OFFCURVE",
"12 73 CURVE SMOOTH"
);
},
{
closed = 1;
nodes = (
"288 110 OFFCURVE",
"280 128 OFFCURVE",
"280 164 CURVE SMOOTH",
"280 286 OFFCURVE",
"370 502 OFFCURVE",
"429 502 CURVE SMOOTH",
"445 502 OFFCURVE",
"449 484 OFFCURVE",
"449 453 CURVE SMOOTH",
"449 319 OFFCURVE",
"362 110 OFFCURVE",
"304 110 CURVE SMOOTH"
);
},
{
closed = 1;
nodes = (
"-5 15 OFFCURVE",
"136 -58 OFFCURVE",
"275 -58 CURVE SMOOTH",
"520 -58 OFFCURVE",
"704 169 OFFCURVE",
"713 429 CURVE SMOOTH",
"720 616 OFFCURVE",
"578 677 OFFCURVE",
"452 677 CURVE SMOOTH",
"203 677 OFFCURVE",
"12 461 OFFCURVE",
"3 219 CURVE SMOOTH"
);
}
);
};
layerId = "BE599D47-15C2-4DC8-BE97-05FFE6CA3179";
paths = (
{
closed = 1;
nodes = (
"12 30 OFFCURVE",
"114 -12 OFFCURVE",
"236 -12 CURVE SMOOTH",
"520 -12 OFFCURVE",
"715 210 OFFCURVE",
"715 447 CURVE SMOOTH",
"715 617 OFFCURVE",
"617 717 OFFCURVE",
"432 717 CURVE SMOOTH",
"245 717 LINE SMOOTH",
"176 717 OFFCURVE",
"118 707 OFFCURVE",
"84 564 CURVE",
"132 564 OFFCURVE",
"144 557 OFFCURVE",
"144 520 CURVE SMOOTH",
"144 395 OFFCURVE",
"12 223 OFFCURVE",
"12 121 CURVE SMOOTH"
);
},
{
closed = 1;
nodes = (
"250 235 OFFCURVE",
"348 448 OFFCURVE",
"392 537 CURVE",
"444 537 OFFCURVE",
"467 516 OFFCURVE",
"467 450 CURVE SMOOTH",
"467 335 OFFCURVE",
"384 166 OFFCURVE",
"288 166 CURVE SMOOTH",
"269 166 OFFCURVE",
"250 173 OFFCURVE",
"250 192 CURVE SMOOTH"
);
}
);
width = 671;
},
{
associatedMasterId = "BE599D47-15C2-4DC8-BE97-05FFE6CA3179";
background = {
paths = (
{
closed = 1;
nodes = (
"10 -25 OFFCURVE",
"112 -55 OFFCURVE",
"309 -55 CURVE SMOOTH",
"452 -55 OFFCURVE",
"569 -40 OFFCURVE",
"569 102 CURVE SMOOTH",
"569 125 OFFCURVE",
"566 148 OFFCURVE",
"553 168 CURVE",
"525 143 OFFCURVE",
"438 116 OFFCURVE",
"353 116 CURVE SMOOTH",
"318 116 OFFCURVE",
"286 120 OFFCURVE",
"270 125 CURVE SMOOTH",
"254 131 OFFCURVE",
"250 139 OFFCURVE",
"250 148 CURVE SMOOTH",
"250 193 OFFCURVE",
"358 415 OFFCURVE",
"393 479 CURVE",
"406 479 OFFCURVE",
"419 478 OFFCURVE",
"433 478 CURVE SMOOTH",
"602 478 OFFCURVE",
"713 501 OFFCURVE",
"713 613 CURVE SMOOTH",
"713 637 OFFCURVE",
"708 661 OFFCURVE",
"697 686 CURVE",
"625 663 OFFCURVE",
"561 656 OFFCURVE",
"509 656 CURVE SMOOTH",
"429 656 OFFCURVE",
"336 674 OFFCURVE",
"245 674 CURVE SMOOTH",
"176 674 OFFCURVE",
"118 663 OFFCURVE",
"84 521 CURVE",
"132 521 OFFCURVE",
"144 514 OFFCURVE",
"144 477 CURVE SMOOTH",
"144 353 OFFCURVE",
"14 183 OFFCURVE",
"12 73 CURVE SMOOTH"
);
},
{
closed = 1;
nodes = (
"288 110 OFFCURVE",
"280 128 OFFCURVE",
"280 164 CURVE SMOOTH",
"280 286 OFFCURVE",
"370 502 OFFCURVE",
"429 502 CURVE SMOOTH",
"445 502 OFFCURVE",
"449 484 OFFCURVE",
"449 453 CURVE SMOOTH",
"449 319 OFFCURVE",
"362 110 OFFCURVE",
"304 110 CURVE SMOOTH"
);
},
{
closed = 1;
nodes = (
"-5 15 OFFCURVE",
"136 -58 OFFCURVE",
"275 -58 CURVE SMOOTH",
"520 -58 OFFCURVE",
"704 169 OFFCURVE",
"713 429 CURVE SMOOTH",
"720 616 OFFCURVE",
"578 677 OFFCURVE",
"452 677 CURVE SMOOTH",
"203 677 OFFCURVE",
"12 461 OFFCURVE",
"3 219 CURVE SMOOTH"
);
}
);
};
layerId = "EB4167F3-FAD2-41A9-90A8-A81535180353";
name = "Regular Italic Mar 25 16, 21:32";
paths = (
{
closed = 1;
nodes = (
"10 -25 OFFCURVE",
"112 -55 OFFCURVE",
"309 -55 CURVE SMOOTH",
"452 -55 OFFCURVE",
"569 -40 OFFCURVE",
"569 102 CURVE SMOOTH",
"569 125 OFFCURVE",
"566 148 OFFCURVE",
"553 168 CURVE",
"525 143 OFFCURVE",
"438 116 OFFCURVE",
"353 116 CURVE SMOOTH",
"318 116 OFFCURVE",
"286 120 OFFCURVE",
"270 125 CURVE SMOOTH",
"254 131 OFFCURVE",
"250 139 OFFCURVE",
"250 148 CURVE SMOOTH",
"250 193 OFFCURVE",
"358 415 OFFCURVE",
"393 479 CURVE",
"406 479 OFFCURVE",
"419 478 OFFCURVE",
"433 478 CURVE SMOOTH",
"602 478 OFFCURVE",
"713 501 OFFCURVE",
"713 613 CURVE SMOOTH",
"713 637 OFFCURVE",
"708 661 OFFCURVE",
"697 686 CURVE",
"625 663 OFFCURVE",
"561 656 OFFCURVE",
"509 656 CURVE SMOOTH",
"429 656 OFFCURVE",
"336 674 OFFCURVE",
"245 674 CURVE SMOOTH",
"176 674 OFFCURVE",
"118 663 OFFCURVE",
"84 521 CURVE",
"132 521 OFFCURVE",
"144 514 OFFCURVE",
"144 477 CURVE SMOOTH",
"144 353 OFFCURVE",
"14 183 OFFCURVE",
"12 73 CURVE SMOOTH"
);
},
{
closed = 1;
nodes = (
"288 110 OFFCURVE",
"280 128 OFFCURVE",
"280 164 CURVE SMOOTH",
"280 286 OFFCURVE",
"370 502 OFFCURVE",
"429 502 CURVE SMOOTH",
"445 502 OFFCURVE",
"449 484 OFFCURVE",
"449 453 CURVE SMOOTH",
"449 319 OFFCURVE",
"362 110 OFFCURVE",
"304 110 CURVE SMOOTH"
);
},
{
closed = 1;
nodes = (
"-5 15 OFFCURVE",
"136 -58 OFFCURVE",
"275 -58 CURVE SMOOTH",
"520 -58 OFFCURVE",
"704 169 OFFCURVE",
"713 429 CURVE SMOOTH",
"720 616 OFFCURVE",
"578 677 OFFCURVE",
"452 677 CURVE SMOOTH",
"203 677 OFFCURVE",
"12 461 OFFCURVE",
"3 219 CURVE SMOOTH"
);
}
);
width = 614;
},
{
associatedMasterId = "BE599D47-15C2-4DC8-BE97-05FFE6CA3179";
background = {
paths = (
{
closed = 1;
nodes = (
"10 -25 OFFCURVE",
"112 -55 OFFCURVE",
"309 -55 CURVE SMOOTH",
"452 -55 OFFCURVE",
"569 -40 OFFCURVE",
"569 102 CURVE SMOOTH",
"569 125 OFFCURVE",
"566 148 OFFCURVE",
"553 168 CURVE",
"525 143 OFFCURVE",
"438 116 OFFCURVE",
"353 116 CURVE SMOOTH",
"318 116 OFFCURVE",
"286 120 OFFCURVE",
"270 125 CURVE SMOOTH",
"254 131 OFFCURVE",
"250 139 OFFCURVE",
"250 148 CURVE SMOOTH",
"250 193 OFFCURVE",
"358 415 OFFCURVE",
"393 479 CURVE",
"406 479 OFFCURVE",
"419 478 OFFCURVE",
"433 478 CURVE SMOOTH",
"602 478 OFFCURVE",
"713 501 OFFCURVE",
"713 613 CURVE SMOOTH",
"713 637 OFFCURVE",
"708 661 OFFCURVE",
"697 686 CURVE",
"625 663 OFFCURVE",
"561 656 OFFCURVE",
"509 656 CURVE SMOOTH",
"429 656 OFFCURVE",
"336 674 OFFCURVE",
"245 674 CURVE SMOOTH",
"176 674 OFFCURVE",
"118 663 OFFCURVE",
"84 521 CURVE",
"132 521 OFFCURVE",
"144 514 OFFCURVE",
"144 477 CURVE SMOOTH",
"144 353 OFFCURVE",
"14 183 OFFCURVE",
"12 73 CURVE SMOOTH"
);
},
{
closed = 1;
nodes = (
"288 110 OFFCURVE",
"280 128 OFFCURVE",
"280 164 CURVE SMOOTH",
"280 286 OFFCURVE",
"370 502 OFFCURVE",
"429 502 CURVE SMOOTH",
"445 502 OFFCURVE",
"449 484 OFFCURVE",
"449 453 CURVE SMOOTH",
"449 319 OFFCURVE",
"362 110 OFFCURVE",
"304 110 CURVE SMOOTH"
);
},
{
closed = 1;
nodes = (
"-5 15 OFFCURVE",
"136 -58 OFFCURVE",
"275 -58 CURVE SMOOTH",
"520 -58 OFFCURVE",
"704 169 OFFCURVE",
"713 429 CURVE SMOOTH",
"720 616 OFFCURVE",
"578 677 OFFCURVE",
"452 677 CURVE SMOOTH",
"203 677 OFFCURVE",
"12 461 OFFCURVE",
"3 219 CURVE SMOOTH"
);
}
);
};
layerId = "6F2FA73D-AA46-406F-8641-5BE3BC5A840D";
name = "Regular Italic Mar 25 16, 23:14";
paths = (
{
closed = 1;
nodes = (
"432 243 OFFCURVE",
"339 102 OFFCURVE",
"270 125 CURVE SMOOTH",
"254 131 OFFCURVE",
"250 139 OFFCURVE",
"250 148 CURVE SMOOTH",
"250 193 OFFCURVE",
"354 418 OFFCURVE",
"389 483 CURVE",
"462 517 OFFCURVE",
"488 437 OFFCURVE",
"449 304 CURVE SMOOTH"
);
},
{
closed = 1;
nodes = (
"753 528 OFFCURVE",
"655 674 OFFCURVE",
"432 674 CURVE SMOOTH",
"245 674 LINE SMOOTH",
"176 674 OFFCURVE",
"118 663 OFFCURVE",
"84 521 CURVE",
"132 521 OFFCURVE",
"144 514 OFFCURVE",
"144 477 CURVE SMOOTH",
"144 353 OFFCURVE",
"15 183 OFFCURVE",
"12 73 CURVE SMOOTH",
"10 -13 OFFCURVE",
"112 -55 OFFCURVE",
"238 -55 CURVE SMOOTH",
"379 -55 OFFCURVE",
"599 -33 OFFCURVE",
"702 347 CURVE SMOOTH"
);
}
);
width = 614;
},
{
associatedMasterId = "BE599D47-15C2-4DC8-BE97-05FFE6CA3179";
background = {
paths = (
{
closed = 1;
nodes = (
"45 -25 OFFCURVE",
"147 -55 OFFCURVE",
"344 -55 CURVE SMOOTH",
"486 -55 OFFCURVE",
"603 -40 OFFCURVE",
"603 102 CURVE SMOOTH",
"603 125 OFFCURVE",
"601 148 OFFCURVE",
"588 168 CURVE",
"560 143 OFFCURVE",
"472 116 OFFCURVE",
"388 116 CURVE SMOOTH",
"353 116 OFFCURVE",
"321 120 OFFCURVE",
"305 125 CURVE SMOOTH",
"289 131 OFFCURVE",
"285 139 OFFCURVE",
"285 148 CURVE SMOOTH",
"285 193 OFFCURVE",
"393 415 OFFCURVE",
"428 479 CURVE",
"440 479 OFFCURVE",
"454 478 OFFCURVE",
"468 478 CURVE SMOOTH",
"637 478 OFFCURVE",
"748 501 OFFCURVE",
"748 613 CURVE SMOOTH",
"748 637 OFFCURVE",
"743 661 OFFCURVE",
"732 686 CURVE",
"660 663 OFFCURVE",
"596 656 OFFCURVE",
"544 656 CURVE SMOOTH",
"464 656 OFFCURVE",
"371 674 OFFCURVE",
"279 674 CURVE SMOOTH",
"210 674 OFFCURVE",
"153 663 OFFCURVE",
"119 521 CURVE",
"167 521 OFFCURVE",
"179 514 OFFCURVE",
"179 477 CURVE SMOOTH",
"179 353 OFFCURVE",
"49 183 OFFCURVE",
"47 73 CURVE SMOOTH"
);
},
{
closed = 1;
nodes = (
"323 110 OFFCURVE",
"315 128 OFFCURVE",
"315 164 CURVE SMOOTH",
"315 286 OFFCURVE",
"405 502 OFFCURVE",
"463 502 CURVE SMOOTH",
"480 502 OFFCURVE",
"484 484 OFFCURVE",
"484 453 CURVE SMOOTH",
"484 319 OFFCURVE",
"397 110 OFFCURVE",
"339 110 CURVE SMOOTH"
);
},
{
closed = 1;
nodes = (
"30 15 OFFCURVE",
"171 -58 OFFCURVE",
"310 -58 CURVE SMOOTH",
"555 -58 OFFCURVE",
"739 169 OFFCURVE",
"748 429 CURVE SMOOTH",
"755 616 OFFCURVE",
"613 677 OFFCURVE",
"486 677 CURVE SMOOTH",
"238 677 OFFCURVE",
"47 461 OFFCURVE",
"38 219 CURVE SMOOTH"
);
}
);
};
layerId = "D86A3163-925A-4137-83AF-1E7AA10FA8E7";
name = "Regular Italic Mar 27 16, 16:25";
paths = (
{
closed = 1;
nodes = (
"555 -55 OFFCURVE",
"750 167 OFFCURVE",
"750 403 CURVE SMOOTH",
"750 574 OFFCURVE",
"651 674 OFFCURVE",
"467 674 CURVE SMOOTH",
"279 674 LINE SMOOTH",
"210 674 OFFCURVE",
"153 663 OFFCURVE",
"119 521 CURVE",
"167 521 OFFCURVE",
"179 514 OFFCURVE",
"179 477 CURVE SMOOTH",
"179 352 OFFCURVE",
"47 180 OFFCURVE",
"47 77 CURVE SMOOTH",
"47 -13 OFFCURVE",
"148 -55 OFFCURVE",
"271 -55 CURVE SMOOTH"
);
},
{
closed = 1;
nodes = (
"304 123 OFFCURVE",
"285 130 OFFCURVE",
"285 148 CURVE SMOOTH",
"285 196 OFFCURVE",
"404 450 OFFCURVE",
"439 516 CURVE",
"352 477 LINE",
"400 492 OFFCURVE",
"426 493 OFFCURVE",
"436 493 CURVE SMOOTH",
"478 493 OFFCURVE",
"502 468 OFFCURVE",
"502 407 CURVE SMOOTH",
"502 292 OFFCURVE",
"419 123 OFFCURVE",
"323 123 CURVE SMOOTH"
);
}
);
width = 734;
}
);
unicode = 0044;
},
{
glyphname = E;
lastChange = "2016-04-03 02:12:17 +0000";
layers = (
{
background = {
paths = (
{
closed = 1;
nodes = (
"20 -28 OFFCURVE",
"135 -59 OFFCURVE",
"330 -59 CURVE SMOOTH",
"498 -59 OFFCURVE",
"589 -44 OFFCURVE",
"589 100 CURVE SMOOTH",
"589 124 OFFCURVE",
"585 148 OFFCURVE",
"571 168 CURVE",
"545 141 OFFCURVE",
"450 113 OFFCURVE",
"365 113 CURVE SMOOTH",
"325 113 OFFCURVE",
"293 117 OFFCURVE",
"273 124 CURVE SMOOTH",
"261 128 OFFCURVE",
"256 137 OFFCURVE",
"256 146 CURVE SMOOTH",
"256 148 OFFCURVE",
"256 151 OFFCURVE",
"257 154 CURVE SMOOTH",
"282 267 OFFCURVE",
"348 383 OFFCURVE",
"387 479 CURVE",
"400 479 OFFCURVE",
"413 478 OFFCURVE",
"428 478 CURVE SMOOTH",
"596 478 OFFCURVE",
"697 500 OFFCURVE",
"697 617 CURVE SMOOTH",
"697 641 OFFCURVE",
"696 665 OFFCURVE",
"684 686 CURVE",
"613 663 OFFCURVE",
"556 656 OFFCURVE",
"505 656 CURVE SMOOTH",
"435 656 OFFCURVE",
"377 676 OFFCURVE",
"307 674 CURVE SMOOTH",
"180 670 OFFCURVE",
"107 663 OFFCURVE",
"77 521 CURVE",
"83 521 OFFCURVE",
"88 522 OFFCURVE",
"93 522 CURVE SMOOTH",
"119 522 OFFCURVE",
"139 516 OFFCURVE",
"139 491 CURVE SMOOTH",
"139 353 OFFCURVE",
"20 197 OFFCURVE",
"20 77 CURVE SMOOTH"
);
},
{
closed = 1;
nodes = (
"174 237 OFFCURVE",
"209 232 OFFCURVE",
"330 232 CURVE SMOOTH",
"480 232 OFFCURVE",
"570 245 OFFCURVE",
"570 350 CURVE SMOOTH",
"570 371 OFFCURVE",
"569 392 OFFCURVE",
"558 411 CURVE",
"484 395 OFFCURVE",
"423 385 OFFCURVE",
"255 385 CURVE SMOOTH",
"196 385 OFFCURVE",
"174 356 OFFCURVE",
"174 306 CURVE SMOOTH"
);
}
);
};
layerId = "BE599D47-15C2-4DC8-BE97-05FFE6CA3179";
paths = (
{
closed = 1;
nodes = (
"171 280 OFFCURVE",
"206 275 OFFCURVE",
"314 275 CURVE SMOOTH",
"479 275 OFFCURVE",
"569 288 OFFCURVE",
"572 382 CURVE SMOOTH",
"573 402 OFFCURVE",
"570 422 OFFCURVE",
"560 445 CURVE",
"485 429 OFFCURVE",
"426 419 OFFCURVE",
"258 419 CURVE SMOOTH",
"199 419 OFFCURVE",
"176 394 OFFCURVE",
"173 346 CURVE SMOOTH"
);
},
{
closed = 1;
nodes = (
"10 18 OFFCURVE",
"112 -12 OFFCURVE",
"309 -12 CURVE SMOOTH",
"452 -12 OFFCURVE",
"569 3 OFFCURVE",
"569 146 CURVE SMOOTH",
"569 168 OFFCURVE",
"566 191 OFFCURVE",
"553 211 CURVE",
"525 186 OFFCURVE",
"438 159 OFFCURVE",
"353 159 CURVE SMOOTH",
"318 159 OFFCURVE",
"286 163 OFFCURVE",
"270 169 CURVE SMOOTH",
"254 174 OFFCURVE",
"250 183 OFFCURVE",
"250 192 CURVE SMOOTH",
"250 236 OFFCURVE",
"358 458 OFFCURVE",
"393 523 CURVE",
"406 522 OFFCURVE",
"419 521 OFFCURVE",
"433 521 CURVE SMOOTH",
"602 521 OFFCURVE",
"713 544 OFFCURVE",
"713 656 CURVE SMOOTH",
"713 680 OFFCURVE",
"708 704 OFFCURVE",
"697 730 CURVE",
"625 707 OFFCURVE",
"561 700 OFFCURVE",
"509 700 CURVE SMOOTH",
"429 700 OFFCURVE",
"336 717 OFFCURVE",
"245 717 CURVE SMOOTH",
"176 717 OFFCURVE",
"118 707 OFFCURVE",
"84 564 CURVE",
"132 564 OFFCURVE",
"144 557 OFFCURVE",
"144 520 CURVE SMOOTH",
"144 396 OFFCURVE",
"14 226 OFFCURVE",
"12 116 CURVE SMOOTH"
);
}
);
width = 601;
},
{
associatedMasterId = "BE599D47-15C2-4DC8-BE97-05FFE6CA3179";
background = {
paths = (
{
closed = 1;
nodes = (
"141 -54 OFFCURVE",
"200 -26 OFFCURVE",
"240 7 CURVE",
"235 23 OFFCURVE",
"232 40 OFFCURVE",
"232 63 CURVE SMOOTH",
"232 255 OFFCURVE",
"411 487 OFFCURVE",
"405 606 CURVE SMOOTH",
"402 661 OFFCURVE",
"366 674 OFFCURVE",
"314 674 CURVE SMOOTH",
"251 674 OFFCURVE",
"180 654 OFFCURVE",
"115 615 CURVE",
"132 584 OFFCURVE",
"135 553 OFFCURVE",
"135 526 CURVE SMOOTH",
"135 336 OFFCURVE",
"-6 199 OFFCURVE",
"-7 43 CURVE SMOOTH",
"-8 -20 OFFCURVE",
"33 -54 OFFCURVE",
"89 -54 CURVE SMOOTH"
);
},
{
closed = 1;
nodes = (
"386 -56 OFFCURVE",
"540 -13 OFFCURVE",
"540 73 CURVE SMOOTH",
"540 102 OFFCURVE",
"530 134 OFFCURVE",
"523 147 CURVE",
"486 111 OFFCURVE",
"389 114 OFFCURVE",
"321 114 CURVE SMOOTH",
"270 114 OFFCURVE",
"231 122 OFFCURVE",
"231 176 CURVE",
"4 119 LINE",
"4 -3 OFFCURVE",
"106 -56 OFFCURVE",
"244 -56 CURVE SMOOTH"
);
}
);
};
layerId = "62449B94-6233-40A0-A075-5FB10F0E59DB";
name = "Regular Italic Mar 23 16, 21:36";
paths = (
{
closed = 1;
nodes = (
"5 -27 OFFCURVE",
"120 -59 OFFCURVE",
"316 -59 CURVE SMOOTH",
"484 -59 OFFCURVE",
"576 -44 OFFCURVE",
"576 100 CURVE SMOOTH",
"576 124 OFFCURVE",
"571 148 OFFCURVE",
"557 168 CURVE",
"531 141 OFFCURVE",
"436 113 OFFCURVE",
"351 113 CURVE SMOOTH",
"311 113 OFFCURVE",
"279 117 OFFCURVE",
"259 124 CURVE SMOOTH",
"243 130 OFFCURVE",
"240 141 OFFCURVE",
"243 154 CURVE SMOOTH",
"268 267 OFFCURVE",
"334 383 OFFCURVE",
"373 479 CURVE",
"386 478 OFFCURVE",
"399 478 OFFCURVE",
"414 478 CURVE SMOOTH",
"582 478 OFFCURVE",
"684 493 OFFCURVE",
"684 610 CURVE SMOOTH",
"684 634 OFFCURVE",
"682 658 OFFCURVE",
"670 679 CURVE",
"617 664 OFFCURVE",
"587 659 OFFCURVE",
"502 659 CURVE SMOOTH",
"463 659 OFFCURVE",
"371 673 OFFCURVE",
"317 674 CURVE SMOOTH",
"314 674 LINE SMOOTH",
"251 674 OFFCURVE",
"180 654 OFFCURVE",
"115 615 CURVE",
"132 584 OFFCURVE",
"135 553 OFFCURVE",
"135 526 CURVE SMOOTH",
"135 336 OFFCURVE",
"8 199 OFFCURVE",
"6 114 CURVE SMOOTH"
);
},
{
closed = 1;
nodes = (
"159 237 OFFCURVE",
"192 232 OFFCURVE",
"316 232 CURVE SMOOTH",
"466 232 OFFCURVE",
"556 245 OFFCURVE",
"556 350 CURVE SMOOTH",
"556 371 OFFCURVE",
"555 392 OFFCURVE",
"544 411 CURVE",
"470 395 OFFCURVE",
"409 385 OFFCURVE",
"241 385 CURVE SMOOTH",
"184 385 OFFCURVE",
"161 357 OFFCURVE",
"160 310 CURVE SMOOTH"
);
}
);
width = 628;
},
{
associatedMasterId = "BE599D47-15C2-4DC8-BE97-05FFE6CA3179";
background = {
paths = (
{
closed = 1;
nodes = (
"5 -27 OFFCURVE",
"120 -59 OFFCURVE",
"316 -59 CURVE SMOOTH",
"484 -59 OFFCURVE",
"576 -44 OFFCURVE",
"576 100 CURVE SMOOTH",
"576 124 OFFCURVE",
"571 148 OFFCURVE",
"557 168 CURVE",
"531 141 OFFCURVE",
"436 113 OFFCURVE",
"351 113 CURVE SMOOTH",
"311 113 OFFCURVE",
"279 117 OFFCURVE",
"259 124 CURVE SMOOTH",
"243 130 OFFCURVE",
"240 141 OFFCURVE",
"243 154 CURVE SMOOTH",
"268 267 OFFCURVE",
"334 383 OFFCURVE",
"373 479 CURVE",
"386 478 OFFCURVE",
"399 478 OFFCURVE",
"414 478 CURVE SMOOTH",
"582 478 OFFCURVE",
"684 493 OFFCURVE",
"684 610 CURVE SMOOTH",
"684 634 OFFCURVE",
"682 658 OFFCURVE",
"670 679 CURVE",
"617 664 OFFCURVE",
"587 659 OFFCURVE",
"502 659 CURVE SMOOTH",
"463 659 OFFCURVE",
"371 673 OFFCURVE",
"317 674 CURVE SMOOTH",
"314 674 LINE SMOOTH",
"251 674 OFFCURVE",
"180 654 OFFCURVE",
"115 615 CURVE",
"132 584 OFFCURVE",
"135 553 OFFCURVE",
"135 526 CURVE SMOOTH",
"135 336 OFFCURVE",
"8 199 OFFCURVE",
"6 114 CURVE SMOOTH"
);
},
{
closed = 1;
nodes = (
"159 237 OFFCURVE",
"192 232 OFFCURVE",
"316 232 CURVE SMOOTH",
"466 232 OFFCURVE",
"556 245 OFFCURVE",
"556 350 CURVE SMOOTH",
"556 371 OFFCURVE",
"555 392 OFFCURVE",
"544 411 CURVE",
"470 395 OFFCURVE",
"409 385 OFFCURVE",
"241 385 CURVE SMOOTH",
"184 385 OFFCURVE",
"161 357 OFFCURVE",
"160 310 CURVE SMOOTH"
);
}
);
};
layerId = "4C8E2084-5746-4CA2-BF8F-39A6E5FC7649";
name = "Regular Italic Mar 23 16, 21:41";
paths = (
{
closed = 1;
nodes = (
"6 -28 OFFCURVE",
"121 -59 OFFCURVE",
"316 -59 CURVE SMOOTH",
"484 -59 OFFCURVE",
"576 -44 OFFCURVE",
"576 100 CURVE SMOOTH",
"576 124 OFFCURVE",
"571 148 OFFCURVE",
"557 168 CURVE",
"531 141 OFFCURVE",
"436 113 OFFCURVE",
"351 113 CURVE SMOOTH",
"311 113 OFFCURVE",
"279 117 OFFCURVE",
"259 124 CURVE SMOOTH",
"247 128 OFFCURVE",
"242 137 OFFCURVE",
"242 146 CURVE SMOOTH",
"242 148 OFFCURVE",
"242 151 OFFCURVE",
"243 154 CURVE SMOOTH",
"268 267 OFFCURVE",
"334 383 OFFCURVE",
"373 479 CURVE",
"386 478 OFFCURVE",
"399 478 OFFCURVE",
"414 478 CURVE SMOOTH",
"582 478 OFFCURVE",
"684 500 OFFCURVE",
"684 617 CURVE SMOOTH",
"684 641 OFFCURVE",
"682 665 OFFCURVE",
"670 686 CURVE",
"599 663 OFFCURVE",
"542 656 OFFCURVE",
"491 656 CURVE SMOOTH",
"422 656 OFFCURVE",
"363 676 OFFCURVE",
"293 674 CURVE SMOOTH",
"166 670 OFFCURVE",
"93 663 OFFCURVE",
"63 521 CURVE",
"69 521 OFFCURVE",
"74 522 OFFCURVE",
"79 522 CURVE SMOOTH",
"105 522 OFFCURVE",
"125 516 OFFCURVE",
"125 491 CURVE SMOOTH",
"125 353 OFFCURVE",
"6 197 OFFCURVE",
"6 77 CURVE SMOOTH"
);
},
{
closed = 1;
nodes = (
"160 237 OFFCURVE",
"195 232 OFFCURVE",
"316 232 CURVE SMOOTH",
"466 232 OFFCURVE",
"556 245 OFFCURVE",
"556 350 CURVE SMOOTH",
"556 371 OFFCURVE",
"555 392 OFFCURVE",
"544 411 CURVE",
"470 395 OFFCURVE",
"409 385 OFFCURVE",
"241 385 CURVE SMOOTH",
"183 385 OFFCURVE",
"160 356 OFFCURVE",
"160 306 CURVE SMOOTH"
);
}
);
width = 628;
}
);
unicode = 0045;
},
{
glyphname = F;
lastChange = "2016-04-03 02:12:17 +0000";
layers = (
{
background = {
paths = (
{
closed = 1;
nodes = (
"170 237 OFFCURVE",
"205 232 OFFCURVE",
"313 232 CURVE SMOOTH",
"479 232 OFFCURVE",
"568 245 OFFCURVE",
"571 339 CURVE SMOOTH",
"572 359 OFFCURVE",
"569 378 OFFCURVE",
"560 402 CURVE",
"484 386 OFFCURVE",
"425 376 OFFCURVE",
"257 376 CURVE SMOOTH",
"198 376 OFFCURVE",
"175 350 OFFCURVE",
"173 303 CURVE SMOOTH"
);
},
{
closed = 1;
nodes = (
"9 -25 OFFCURVE",
"111 -55 OFFCURVE",
"309 -55 CURVE SMOOTH",
"451 -55 OFFCURVE",
"568 -40 OFFCURVE",
"568 102 CURVE SMOOTH",
"568 125 OFFCURVE",
"565 148 OFFCURVE",
"553 168 CURVE",
"525 143 OFFCURVE",
"437 116 OFFCURVE",
"353 116 CURVE SMOOTH",
"318 116 OFFCURVE",
"286 120 OFFCURVE",
"270 125 CURVE SMOOTH",
"254 131 OFFCURVE",
"249 139 OFFCURVE",
"249 148 CURVE SMOOTH",
"249 193 OFFCURVE",
"357 415 OFFCURVE",
"392 479 CURVE",
"405 479 OFFCURVE",
"418 478 OFFCURVE",
"433 478 CURVE SMOOTH",
"601 478 OFFCURVE",
"712 501 OFFCURVE",
"712 613 CURVE SMOOTH",
"712 637 OFFCURVE",
"707 661 OFFCURVE",
"697 686 CURVE",
"624 663 OFFCURVE",
"560 656 OFFCURVE",
"509 656 CURVE SMOOTH",
"429 656 OFFCURVE",
"335 674 OFFCURVE",
"244 674 CURVE SMOOTH",
"175 674 OFFCURVE",
"118 663 OFFCURVE",
"84 521 CURVE",
"132 521 OFFCURVE",
"144 514 OFFCURVE",
"144 477 CURVE SMOOTH",
"144 353 OFFCURVE",
"13 183 OFFCURVE",
"11 73 CURVE SMOOTH"
);
}
);
};
layerId = "BE599D47-15C2-4DC8-BE97-05FFE6CA3179";
paths = (
{
closed = 1;
nodes = (
"6 23 OFFCURVE",
"47 -11 OFFCURVE",
"111 -11 CURVE SMOOTH",
"167 -11 OFFCURVE",
"222 15 OFFCURVE",
"261 50 CURVE",
"247 74 OFFCURVE",
"240 99 OFFCURVE",
"240 132 CURVE SMOOTH",
"240 254 OFFCURVE",
"341 440 OFFCURVE",
"391 523 CURVE",
"432 521 LINE SMOOTH",
"583 516 OFFCURVE",
"672 536 OFFCURVE",
"672 649 CURVE SMOOTH",
"672 677 OFFCURVE",
"666 700 OFFCURVE",
"656 723 CURVE",
"610 707 OFFCURVE",
"569 700 OFFCURVE",
"525 700 CURVE SMOOTH",
"460 700 OFFCURVE",
"319 717 OFFCURVE",
"254 717 CURVE SMOOTH",
"155 717 OFFCURVE",
"113 681 OFFCURVE",
"86 566 CURVE",
"132 562 OFFCURVE",
"144 556 OFFCURVE",
"144 519 CURVE SMOOTH",
"144 395 OFFCURVE",
"6 215 OFFCURVE",
"6 91 CURVE SMOOTH"
);
},
{
closed = 1;
nodes = (
"173 279 OFFCURVE",
"209 275 OFFCURVE",
"313 275 CURVE SMOOTH",
"450 275 OFFCURVE",
"523 287 OFFCURVE",
"523 386 CURVE SMOOTH",
"523 404 OFFCURVE",
"520 422 OFFCURVE",
"511 444 CURVE",
"435 428 OFFCURVE",
"398 419 OFFCURVE",
"257 419 CURVE SMOOTH",
"195 419 OFFCURVE",
"173 391 OFFCURVE",
"173 339 CURVE SMOOTH"
);
}
);
width = 545;
}
);
unicode = 0046;
},
{
glyphname = G;
lastChange = "2016-04-03 02:12:17 +0000";
layers = (
{
background = {
paths = (
{
closed = 1;
nodes = (
"26 26 OFFCURVE",
"129 -63 OFFCURVE",
"322 -63 CURVE SMOOTH",
"486 -63 OFFCURVE",
"596 1 OFFCURVE",
"683 309 CURVE",
"631 321 OFFCURVE",
"495 330 OFFCURVE",
"449 321 CURVE SMOOTH",
"411 313 OFFCURVE",
"381 283 OFFCURVE",
"355 188 CURVE",
"468 187 LINE",
"450 140 OFFCURVE",
"411 117 OFFCURVE",
"373 117 CURVE SMOOTH",
"329 117 OFFCURVE",
"287 149 OFFCURVE",
"287 224 CURVE SMOOTH",
"287 332 OFFCURVE",
"373 504 OFFCURVE",
"474 504 CURVE SMOOTH",
"516 504 OFFCURVE",
"544 474 OFFCURVE",
"544 433 CURVE SMOOTH",
"544 427 OFFCURVE",
"543 419 OFFCURVE",
"541 411 CURVE",
"551 409 OFFCURVE",
"570 406 OFFCURVE",
"589 406 CURVE SMOOTH",
"642 406 OFFCURVE",
"711 431 OFFCURVE",
"711 518 CURVE SMOOTH",
"711 628 OFFCURVE",
"599 674 OFFCURVE",
"480 674 CURVE SMOOTH",
"227 674 OFFCURVE",
"26 470 OFFCURVE",
"26 212 CURVE SMOOTH"
);
}
);
};
layerId = "BE599D47-15C2-4DC8-BE97-05FFE6CA3179";
paths = (
{
closed = 1;
nodes = (
"26 70 OFFCURVE",
"129 -20 OFFCURVE",
"308 -20 CURVE SMOOTH",
"488 -20 OFFCURVE",
"625 65 OFFCURVE",
"686 353 CURVE",
"634 364 OFFCURVE",
"496 373 OFFCURVE",
"449 364 CURVE SMOOTH",
"411 356 OFFCURVE",
"381 326 OFFCURVE",
"355 231 CURVE",
"468 231 LINE",
"450 183 OFFCURVE",
"411 160 OFFCURVE",
"373 160 CURVE SMOOTH",
"329 160 OFFCURVE",
"287 192 OFFCURVE",
"287 268 CURVE SMOOTH",
"287 375 OFFCURVE",
"373 547 OFFCURVE",
"474 547 CURVE SMOOTH",
"516 547 OFFCURVE",
"544 517 OFFCURVE",
"544 477 CURVE SMOOTH",
"544 470 OFFCURVE",
"543 462 OFFCURVE",
"541 454 CURVE",
"551 452 OFFCURVE",
"570 449 OFFCURVE",
"589 449 CURVE SMOOTH",
"642 449 OFFCURVE",
"711 474 OFFCURVE",
"711 561 CURVE SMOOTH",
"711 672 OFFCURVE",
"599 717 OFFCURVE",
"480 717 CURVE SMOOTH",
"227 717 OFFCURVE",
"26 514 OFFCURVE",
"26 255 CURVE SMOOTH"
);
}
);
width = 655;
},
{
associatedMasterId = "BE599D47-15C2-4DC8-BE97-05FFE6CA3179";
layerId = "529CB9E8-6538-447A-948A-752476FF5489";
name = "Regular Italic Mar 27 16, 16:27";
paths = (
{
closed = 1;
nodes = (
"54 26 OFFCURVE",
"159 -63 OFFCURVE",
"346 -63 CURVE SMOOTH",
"496 -63 OFFCURVE",
"640 -6 OFFCURVE",
"640 128 CURVE SMOOTH",
"640 150 OFFCURVE",
"636 180 OFFCURVE",
"617 219 CURVE",
"564 166 OFFCURVE",
"486 137 OFFCURVE",
"407 137 CURVE SMOOTH",
"377 137 OFFCURVE",
"324 153 OFFCURVE",
"324 232 CURVE SMOOTH",
"324 333 OFFCURVE",
"412 511 OFFCURVE",
"501 511 CURVE SMOOTH",
"531 511 OFFCURVE",
"542 491 OFFCURVE",
"542 463 CURVE SMOOTH",
"542 422 OFFCURVE",
"519 376 OFFCURVE",
"483 335 CURVE",
"510 320 OFFCURVE",
"538 313 OFFCURVE",
"565 313 CURVE SMOOTH",
"650 313 OFFCURVE",
"727 387 OFFCURVE",
"727 495 CURVE SMOOTH",
"727 610 OFFCURVE",
"642 674 OFFCURVE",
"505 674 CURVE SMOOTH",
"259 674 OFFCURVE",
"54 470 OFFCURVE",
"54 213 CURVE SMOOTH"
);
}
);
width = 677;
},
{
associatedMasterId = "BE599D47-15C2-4DC8-BE97-05FFE6CA3179";
background = {
paths = (
{
closed = 1;
nodes = (
"54 26 OFFCURVE",
"159 -63 OFFCURVE",
"346 -63 CURVE SMOOTH",
"496 -63 OFFCURVE",
"640 -6 OFFCURVE",
"640 128 CURVE SMOOTH",
"640 150 OFFCURVE",
"636 180 OFFCURVE",
"617 219 CURVE",
"564 166 OFFCURVE",
"486 137 OFFCURVE",
"407 137 CURVE SMOOTH",
"377 137 OFFCURVE",
"324 153 OFFCURVE",
"324 232 CURVE SMOOTH",
"324 333 OFFCURVE",
"412 511 OFFCURVE",
"501 511 CURVE SMOOTH",
"531 511 OFFCURVE",
"542 491 OFFCURVE",
"542 463 CURVE SMOOTH",
"542 422 OFFCURVE",
"519 376 OFFCURVE",
"483 335 CURVE",
"510 320 OFFCURVE",
"538 313 OFFCURVE",
"565 313 CURVE SMOOTH",
"650 313 OFFCURVE",
"727 387 OFFCURVE",
"727 495 CURVE SMOOTH",
"727 610 OFFCURVE",
"642 674 OFFCURVE",
"505 674 CURVE SMOOTH",
"259 674 OFFCURVE",
"54 470 OFFCURVE",
"54 213 CURVE SMOOTH"
);
}
);
};
layerId = "ABCC03B8-054B-4498-A1B0-800F370B2A89";
name = "Regular Italic Mar 27 16, 16:30";
paths = (
{
closed = 1;
nodes = (
"54 26 OFFCURVE",
"159 -63 OFFCURVE",
"346 -63 CURVE SMOOTH",
"510 -63 OFFCURVE",
"647 6 OFFCURVE",
"647 164 CURVE",
"507 218 LINE",
"530 123 OFFCURVE",
"486 95 OFFCURVE",
"407 95 CURVE SMOOTH",
"377 95 OFFCURVE",
"324 118 OFFCURVE",
"324 232 CURVE SMOOTH",
"324 338 OFFCURVE",
"419 525 OFFCURVE",
"515 525 CURVE SMOOTH",
"545 525 OFFCURVE",
"558 504 OFFCURVE",
"559 477 CURVE SMOOTH",
"560 427 OFFCURVE",
"556 408 OFFCURVE",
"520 368 CURVE",
"547 353 OFFCURVE",
"575 346 OFFCURVE",
"602 346 CURVE SMOOTH",
"672 346 OFFCURVE",
"727 410 OFFCURVE",
"727 495 CURVE SMOOTH",
"727 610 OFFCURVE",
"642 674 OFFCURVE",
"505 674 CURVE SMOOTH",
"259 674 OFFCURVE",
"54 470 OFFCURVE",
"54 213 CURVE SMOOTH"
);
},
{
closed = 1;
nodes = (
"694 153 OFFCURVE",
"740 197 OFFCURVE",
"753 310 CURVE",
"723 297 OFFCURVE",
"696 293 OFFCURVE",
"672 293 CURVE SMOOTH",
"622 293 OFFCURVE",
"566 308 OFFCURVE",
"521 308 CURVE SMOOTH",
"445 308 OFFCURVE",
"396 222 OFFCURVE",
"396 157 CURVE",
"418 164 OFFCURVE",
"437 166 OFFCURVE",
"462 166 CURVE SMOOTH",
"528 166 OFFCURVE",
"566 153 OFFCURVE",
"620 153 CURVE SMOOTH"
);
}
);
width = 697;
},
{
associatedMasterId = "BE599D47-15C2-4DC8-BE97-05FFE6CA3179";
background = {
paths = (
{
closed = 1;
nodes = (
"54 26 OFFCURVE",
"159 -63 OFFCURVE",
"346 -63 CURVE SMOOTH",
"496 -63 OFFCURVE",
"640 -6 OFFCURVE",
"640 128 CURVE SMOOTH",
"640 150 OFFCURVE",
"636 180 OFFCURVE",
"617 219 CURVE",
"564 166 OFFCURVE",
"486 137 OFFCURVE",
"407 137 CURVE SMOOTH",
"377 137 OFFCURVE",
"324 153 OFFCURVE",
"324 232 CURVE SMOOTH",
"324 333 OFFCURVE",
"412 511 OFFCURVE",
"501 511 CURVE SMOOTH",
"531 511 OFFCURVE",
"542 491 OFFCURVE",
"542 463 CURVE SMOOTH",
"542 422 OFFCURVE",
"519 376 OFFCURVE",
"483 335 CURVE",
"510 320 OFFCURVE",
"538 313 OFFCURVE",
"565 313 CURVE SMOOTH",
"650 313 OFFCURVE",
"727 387 OFFCURVE",
"727 495 CURVE SMOOTH",
"727 610 OFFCURVE",
"642 674 OFFCURVE",
"505 674 CURVE SMOOTH",
"259 674 OFFCURVE",
"54 470 OFFCURVE",
"54 213 CURVE SMOOTH"
);
}
);
};
layerId = "D02F85D7-0836-43C9-8621-D4214BDB811B";
name = "Regular Italic Mar 27 16, 16:31";
paths = (
{
closed = 1;
nodes = (
"54 26 OFFCURVE",
"159 -63 OFFCURVE",
"346 -63 CURVE SMOOTH",
"465 -63 OFFCURVE",
"525 -13 OFFCURVE",
"583 -83 CURVE",
"591 -24 OFFCURVE",
"654 162 OFFCURVE",
"713 289 CURVE",
"682 276 OFFCURVE",
"656 272 OFFCURVE",
"631 272 CURVE SMOOTH",
"581 272 OFFCURVE",
"512 294 OFFCURVE",
"467 294 CURVE SMOOTH",
"390 294 OFFCURVE",
"396 213 OFFCURVE",
"396 157 CURVE",
"427 167 OFFCURVE",
"462 167 OFFCURVE",
"504 164 CURVE",
"500 112 OFFCURVE",
"447 95 OFFCURVE",
"407 95 CURVE SMOOTH",
"377 95 OFFCURVE",
"324 118 OFFCURVE",
"324 232 CURVE SMOOTH",
"324 338 OFFCURVE",
"419 525 OFFCURVE",
"515 525 CURVE SMOOTH",
"545 525 OFFCURVE",
"558 504 OFFCURVE",
"559 477 CURVE SMOOTH",
"560 427 OFFCURVE",
"556 408 OFFCURVE",
"520 368 CURVE",
"547 353 OFFCURVE",
"575 346 OFFCURVE",
"602 346 CURVE SMOOTH",
"672 346 OFFCURVE",
"727 410 OFFCURVE",
"727 495 CURVE SMOOTH",
"727 610 OFFCURVE",
"642 674 OFFCURVE",
"505 674 CURVE SMOOTH",
"259 674 OFFCURVE",
"54 470 OFFCURVE",
"54 213 CURVE SMOOTH"
);
}
);
width = 697;
},
{
associatedMasterId = "BE599D47-15C2-4DC8-BE97-05FFE6CA3179";
background = {
paths = (
{
closed = 1;
nodes = (
"54 26 OFFCURVE",
"159 -63 OFFCURVE",
"346 -63 CURVE SMOOTH",
"496 -63 OFFCURVE",
"640 -6 OFFCURVE",
"640 128 CURVE SMOOTH",
"640 150 OFFCURVE",
"636 180 OFFCURVE",
"617 219 CURVE",
"564 166 OFFCURVE",
"486 137 OFFCURVE",
"407 137 CURVE SMOOTH",
"377 137 OFFCURVE",
"324 153 OFFCURVE",
"324 232 CURVE SMOOTH",
"324 333 OFFCURVE",
"412 511 OFFCURVE",
"501 511 CURVE SMOOTH",
"531 511 OFFCURVE",
"542 491 OFFCURVE",
"542 463 CURVE SMOOTH",
"542 422 OFFCURVE",
"519 376 OFFCURVE",
"483 335 CURVE",
"510 320 OFFCURVE",
"538 313 OFFCURVE",
"565 313 CURVE SMOOTH",
"650 313 OFFCURVE",
"727 387 OFFCURVE",
"727 495 CURVE SMOOTH",
"727 610 OFFCURVE",
"642 674 OFFCURVE",
"505 674 CURVE SMOOTH",
"259 674 OFFCURVE",
"54 470 OFFCURVE",
"54 213 CURVE SMOOTH"
);
}
);
};
layerId = "32DBA38F-B4E2-4B64-BD66-70E9E3D40764";
name = "Regular Italic Mar 27 16, 16:31";
paths = (
{
closed = 1;
nodes = (
"54 26 OFFCURVE",
"159 -63 OFFCURVE",
"346 -63 CURVE SMOOTH",
"465 -63 OFFCURVE",
"525 -13 OFFCURVE",
"583 -83 CURVE",
"650 144 OFFCURVE",
"712 252 OFFCURVE",
"631 272 CURVE SMOOTH",
"582 285 OFFCURVE",
"512 294 OFFCURVE",
"467 294 CURVE SMOOTH",
"390 294 OFFCURVE",
"396 213 OFFCURVE",
"396 157 CURVE",
"427 167 OFFCURVE",
"462 167 OFFCURVE",
"504 164 CURVE",
"500 112 OFFCURVE",
"447 95 OFFCURVE",
"407 95 CURVE SMOOTH",
"377 95 OFFCURVE",
"324 118 OFFCURVE",
"324 232 CURVE SMOOTH",
"324 338 OFFCURVE",
"419 525 OFFCURVE",
"515 525 CURVE SMOOTH",
"545 525 OFFCURVE",
"558 504 OFFCURVE",
"559 477 CURVE SMOOTH",
"560 427 OFFCURVE",
"556 408 OFFCURVE",
"520 368 CURVE",
"547 353 OFFCURVE",
"575 346 OFFCURVE",
"602 346 CURVE SMOOTH",
"672 346 OFFCURVE",
"727 410 OFFCURVE",
"727 495 CURVE SMOOTH",
"727 610 OFFCURVE",
"642 674 OFFCURVE",
"505 674 CURVE SMOOTH",
"259 674 OFFCURVE",
"54 470 OFFCURVE",
"54 213 CURVE SMOOTH"
);
}
);
width = 697;
},
{
associatedMasterId = "BE599D47-15C2-4DC8-BE97-05FFE6CA3179";
background = {
paths = (
{
closed = 1;
nodes = (
"54 26 OFFCURVE",
"159 -63 OFFCURVE",
"346 -63 CURVE SMOOTH",
"496 -63 OFFCURVE",
"640 -6 OFFCURVE",
"640 128 CURVE SMOOTH",
"640 150 OFFCURVE",
"636 180 OFFCURVE",
"617 219 CURVE",
"564 166 OFFCURVE",
"486 137 OFFCURVE",
"407 137 CURVE SMOOTH",
"377 137 OFFCURVE",
"324 153 OFFCURVE",
"324 232 CURVE SMOOTH",
"324 333 OFFCURVE",
"412 511 OFFCURVE",
"501 511 CURVE SMOOTH",
"531 511 OFFCURVE",
"542 491 OFFCURVE",
"542 463 CURVE SMOOTH",
"542 422 OFFCURVE",
"519 376 OFFCURVE",
"483 335 CURVE",
"510 320 OFFCURVE",
"538 313 OFFCURVE",
"565 313 CURVE SMOOTH",
"650 313 OFFCURVE",
"727 387 OFFCURVE",
"727 495 CURVE SMOOTH",
"727 610 OFFCURVE",
"642 674 OFFCURVE",
"505 674 CURVE SMOOTH",
"259 674 OFFCURVE",
"54 470 OFFCURVE",
"54 213 CURVE SMOOTH"
);
}
);
};
layerId = "6D725111-3A13-414D-BA80-2F5641CDDF89";
name = "Regular Italic Mar 27 16, 16:34";
paths = (
{
closed = 1;
nodes = (
"54 26 OFFCURVE",
"159 -63 OFFCURVE",
"346 -63 CURVE SMOOTH",
"555 -63 OFFCURVE",
"664 33 OFFCURVE",
"677 283 CURVE",
"628 295 OFFCURVE",
"519 315 OFFCURVE",
"474 315 CURVE SMOOTH",
"408 315 OFFCURVE",
"372 265 OFFCURVE",
"396 171 CURVE",
"416 178 OFFCURVE",
"442 180 OFFCURVE",
"469 180 CURVE SMOOTH",
"486 180 OFFCURVE",
"502 179 OFFCURVE",
"518 178 CURVE",
"514 126 OFFCURVE",
"446 105 OFFCURVE",
"407 108 CURVE SMOOTH",
"377 111 OFFCURVE",
"324 132 OFFCURVE",
"324 232 CURVE SMOOTH",
"324 338 OFFCURVE",
"405 504 OFFCURVE",
"501 504 CURVE SMOOTH",
"560 504 OFFCURVE",
"603 488 OFFCURVE",
"603 422 CURVE",
"635 414 OFFCURVE",
"739 424 OFFCURVE",
"739 528 CURVE SMOOTH",
"739 615 OFFCURVE",
"642 674 OFFCURVE",
"505 674 CURVE SMOOTH",
"259 674 OFFCURVE",
"54 470 OFFCURVE",
"54 213 CURVE SMOOTH"
);
}
);
width = 697;
},
{
associatedMasterId = "BE599D47-15C2-4DC8-BE97-05FFE6CA3179";
background = {
paths = (
{
closed = 1;
nodes = (
"54 26 OFFCURVE",
"159 -63 OFFCURVE",
"346 -63 CURVE SMOOTH",
"496 -63 OFFCURVE",
"640 -6 OFFCURVE",
"640 128 CURVE SMOOTH",
"640 150 OFFCURVE",
"636 180 OFFCURVE",
"617 219 CURVE",
"564 166 OFFCURVE",
"486 137 OFFCURVE",
"407 137 CURVE SMOOTH",
"377 137 OFFCURVE",
"324 153 OFFCURVE",
"324 232 CURVE SMOOTH",
"324 333 OFFCURVE",
"412 511 OFFCURVE",
"501 511 CURVE SMOOTH",
"531 511 OFFCURVE",
"542 491 OFFCURVE",
"542 463 CURVE SMOOTH",
"542 422 OFFCURVE",
"519 376 OFFCURVE",
"483 335 CURVE",
"510 320 OFFCURVE",
"538 313 OFFCURVE",
"565 313 CURVE SMOOTH",
"650 313 OFFCURVE",
"727 387 OFFCURVE",
"727 495 CURVE SMOOTH",
"727 610 OFFCURVE",
"642 674 OFFCURVE",
"505 674 CURVE SMOOTH",
"259 674 OFFCURVE",
"54 470 OFFCURVE",
"54 213 CURVE SMOOTH"
);
}
);
};
layerId = "AD1684EF-E613-46A6-AF9E-6C75B606CB11";
name = "Regular Italic Mar 27 16, 16:35";
paths = (
{
closed = 1;
nodes = (
"54 26 OFFCURVE",
"159 -63 OFFCURVE",
"346 -63 CURVE SMOOTH",
"555 -63 OFFCURVE",
"686 39 OFFCURVE",
"687 302 CURVE",
"638 315 OFFCURVE",
"529 334 OFFCURVE",
"484 334 CURVE SMOOTH",
"430 334 OFFCURVE",
"389 295 OFFCURVE",
"389 229 CURVE SMOOTH",
"389 215 OFFCURVE",
"392 199 OFFCURVE",
"396 181 CURVE",
"412 187 OFFCURVE",
"435 190 OFFCURVE",
"459 190 CURVE SMOOTH",
"472 190 OFFCURVE",
"485 189 OFFCURVE",
"497 187 CURVE",
"493 136 OFFCURVE",
"438 118 OFFCURVE",
"407 118 CURVE SMOOTH",
"377 118 OFFCURVE",
"324 132 OFFCURVE",
"324 232 CURVE SMOOTH",
"324 338 OFFCURVE",
"405 504 OFFCURVE",
"501 504 CURVE SMOOTH",
"545 504 OFFCURVE",
"573 474 OFFCURVE",
"573 434 CURVE SMOOTH",
"573 427 OFFCURVE",
"572 419 OFFCURVE",
"570 411 CURVE",
"580 409 OFFCURVE",
"598 406 OFFCURVE",
"619 406 CURVE SMOOTH",
"671 406 OFFCURVE",
"739 425 OFFCURVE",
"739 528 CURVE SMOOTH",
"739 615 OFFCURVE",
"642 674 OFFCURVE",
"505 674 CURVE SMOOTH",
"259 674 OFFCURVE",
"54 470 OFFCURVE",
"54 213 CURVE SMOOTH"
);
}
);
width = 697;
},
{
associatedMasterId = "BE599D47-15C2-4DC8-BE97-05FFE6CA3179";
background = {
paths = (
{
closed = 1;
nodes = (
"54 26 OFFCURVE",
"159 -63 OFFCURVE",
"346 -63 CURVE SMOOTH",
"555 -63 OFFCURVE",
"686 39 OFFCURVE",
"687 302 CURVE",
"638 315 OFFCURVE",
"529 334 OFFCURVE",
"484 334 CURVE SMOOTH",
"430 334 OFFCURVE",
"389 295 OFFCURVE",
"389 229 CURVE SMOOTH",
"389 215 OFFCURVE",
"392 199 OFFCURVE",
"396 181 CURVE",
"412 187 OFFCURVE",
"435 190 OFFCURVE",
"459 190 CURVE SMOOTH",
"472 190 OFFCURVE",
"485 189 OFFCURVE",
"497 187 CURVE",
"493 136 OFFCURVE",
"438 118 OFFCURVE",
"407 118 CURVE SMOOTH",
"377 118 OFFCURVE",
"324 132 OFFCURVE",
"324 232 CURVE SMOOTH",
"324 338 OFFCURVE",
"405 504 OFFCURVE",
"501 504 CURVE SMOOTH",
"545 504 OFFCURVE",
"573 474 OFFCURVE",
"573 434 CURVE SMOOTH",
"573 427 OFFCURVE",
"572 419 OFFCURVE",
"570 411 CURVE",
"580 409 OFFCURVE",
"598 406 OFFCURVE",
"619 406 CURVE SMOOTH",
"671 406 OFFCURVE",
"739 425 OFFCURVE",
"739 528 CURVE SMOOTH",
"739 615 OFFCURVE",
"642 674 OFFCURVE",
"505 674 CURVE SMOOTH",
"259 674 OFFCURVE",
"54 470 OFFCURVE",
"54 213 CURVE SMOOTH"
);
}
);
};
layerId = "897CF628-6DFD-4C95-B5FD-C12008AACFF1";
name = "Regular Italic Mar 27 16, 16:36";
paths = (
{
closed = 1;
nodes = (
"54 26 OFFCURVE",
"158 -63 OFFCURVE",
"349 -63 CURVE SMOOTH",
"556 -63 OFFCURVE",
"686 43 OFFCURVE",
"687 302 CURVE",
"638 315 OFFCURVE",
"527 334 OFFCURVE",
"486 334 CURVE SMOOTH",
"429 334 OFFCURVE",
"389 295 OFFCURVE",
"389 229 CURVE SMOOTH",
"389 215 OFFCURVE",
"392 199 OFFCURVE",
"396 181 CURVE",
"412 187 OFFCURVE",
"435 190 OFFCURVE",
"460 190 CURVE SMOOTH",
"472 190 OFFCURVE",
"485 189 OFFCURVE",
"497 187 CURVE",
"493 138 OFFCURVE",
"444 118 OFFCURVE",
"410 118 CURVE SMOOTH",
"378 118 OFFCURVE",
"324 135 OFFCURVE",
"324 228 CURVE SMOOTH",
"324 342 OFFCURVE",
"405 504 OFFCURVE",
"502 504 CURVE SMOOTH",
"544 504 OFFCURVE",
"573 474 OFFCURVE",
"573 433 CURVE SMOOTH",
"573 427 OFFCURVE",
"572 419 OFFCURVE",
"570 411 CURVE",
"580 409 OFFCURVE",
"599 406 OFFCURVE",
"618 406 CURVE SMOOTH",
"671 406 OFFCURVE",
"739 431 OFFCURVE",
"739 518 CURVE SMOOTH",
"739 628 OFFCURVE",
"628 674 OFFCURVE",
"509 674 CURVE SMOOTH",
"256 674 OFFCURVE",
"54 470 OFFCURVE",
"54 212 CURVE SMOOTH"
);
}
);
width = 697;
},
{
associatedMasterId = "BE599D47-15C2-4DC8-BE97-05FFE6CA3179";
background = {
paths = (
{
closed = 1;
nodes = (
"54 26 OFFCURVE",
"159 -63 OFFCURVE",
"346 -63 CURVE SMOOTH",
"555 -63 OFFCURVE",
"686 39 OFFCURVE",
"687 302 CURVE",
"638 315 OFFCURVE",
"529 334 OFFCURVE",
"484 334 CURVE SMOOTH",
"430 334 OFFCURVE",
"389 295 OFFCURVE",
"389 229 CURVE SMOOTH",
"389 215 OFFCURVE",
"392 199 OFFCURVE",
"396 181 CURVE",
"412 187 OFFCURVE",
"435 190 OFFCURVE",
"459 190 CURVE SMOOTH",
"472 190 OFFCURVE",
"485 189 OFFCURVE",
"497 187 CURVE",
"493 136 OFFCURVE",
"438 118 OFFCURVE",
"407 118 CURVE SMOOTH",
"377 118 OFFCURVE",
"324 132 OFFCURVE",
"324 232 CURVE SMOOTH",
"324 338 OFFCURVE",
"405 504 OFFCURVE",
"501 504 CURVE SMOOTH",
"545 504 OFFCURVE",
"573 474 OFFCURVE",
"573 434 CURVE SMOOTH",
"573 427 OFFCURVE",
"572 419 OFFCURVE",
"570 411 CURVE",
"580 409 OFFCURVE",
"598 406 OFFCURVE",
"619 406 CURVE SMOOTH",
"671 406 OFFCURVE",
"739 425 OFFCURVE",
"739 528 CURVE SMOOTH",
"739 615 OFFCURVE",
"642 674 OFFCURVE",
"505 674 CURVE SMOOTH",
"259 674 OFFCURVE",
"54 470 OFFCURVE",
"54 213 CURVE SMOOTH"
);
}
);
};
layerId = "E9BEE757-DD55-4DEF-B10D-16427650F74F";
name = "Regular Italic Mar 27 16, 16:37";
paths = (
{
closed = 1;
nodes = (
"54 26 OFFCURVE",
"158 -63 OFFCURVE",
"349 -63 CURVE SMOOTH",
"556 -63 OFFCURVE",
"686 43 OFFCURVE",
"687 302 CURVE",
"638 315 OFFCURVE",
"527 334 OFFCURVE",
"486 334 CURVE SMOOTH",
"429 334 OFFCURVE",
"389 295 OFFCURVE",
"389 229 CURVE SMOOTH",
"389 215 OFFCURVE",
"392 199 OFFCURVE",
"396 181 CURVE",
"412 187 OFFCURVE",
"435 190 OFFCURVE",
"460 190 CURVE SMOOTH",
"472 190 OFFCURVE",
"485 189 OFFCURVE",
"497 187 CURVE",
"479 140 OFFCURVE",
"440 117 OFFCURVE",
"402 117 CURVE SMOOTH",
"357 117 OFFCURVE",
"316 149 OFFCURVE",
"316 212 CURVE SMOOTH",
"316 217 OFFCURVE",
"316 222 OFFCURVE",
"316 228 CURVE SMOOTH",
"328 341 OFFCURVE",
"398 504 OFFCURVE",
"502 504 CURVE SMOOTH",
"544 504 OFFCURVE",
"573 474 OFFCURVE",
"573 433 CURVE SMOOTH",
"573 427 OFFCURVE",
"572 419 OFFCURVE",
"570 411 CURVE",
"580 409 OFFCURVE",
"599 406 OFFCURVE",
"618 406 CURVE SMOOTH",
"671 406 OFFCURVE",
"739 431 OFFCURVE",
"739 518 CURVE SMOOTH",
"739 628 OFFCURVE",
"628 674 OFFCURVE",
"509 674 CURVE SMOOTH",
"256 674 OFFCURVE",
"54 470 OFFCURVE",
"54 212 CURVE SMOOTH"
);
}
);
width = 697;
},
{
associatedMasterId = "BE599D47-15C2-4DC8-BE97-05FFE6CA3179";
background = {
paths = (
{
closed = 1;
nodes = (
"54 26 OFFCURVE",
"158 -63 OFFCURVE",
"349 -63 CURVE SMOOTH",
"556 -63 OFFCURVE",
"686 43 OFFCURVE",
"687 302 CURVE",
"638 315 OFFCURVE",
"527 334 OFFCURVE",
"486 334 CURVE SMOOTH",
"429 334 OFFCURVE",
"389 295 OFFCURVE",
"389 229 CURVE SMOOTH",
"389 215 OFFCURVE",
"392 199 OFFCURVE",
"396 181 CURVE",
"412 187 OFFCURVE",
"435 190 OFFCURVE",
"460 190 CURVE SMOOTH",
"472 190 OFFCURVE",
"485 189 OFFCURVE",
"497 187 CURVE",
"479 140 OFFCURVE",
"440 117 OFFCURVE",
"402 117 CURVE SMOOTH",
"357 117 OFFCURVE",
"316 149 OFFCURVE",
"316 212 CURVE SMOOTH",
"316 217 OFFCURVE",
"316 222 OFFCURVE",
"316 228 CURVE SMOOTH",
"328 341 OFFCURVE",
"398 504 OFFCURVE",
"502 504 CURVE SMOOTH",
"544 504 OFFCURVE",
"573 474 OFFCURVE",
"573 433 CURVE SMOOTH",
"573 427 OFFCURVE",
"572 419 OFFCURVE",
"570 411 CURVE",
"580 409 OFFCURVE",
"599 406 OFFCURVE",
"618 406 CURVE SMOOTH",
"671 406 OFFCURVE",
"739 431 OFFCURVE",
"739 518 CURVE SMOOTH",
"739 628 OFFCURVE",
"628 674 OFFCURVE",
"509 674 CURVE SMOOTH",
"256 674 OFFCURVE",
"54 470 OFFCURVE",
"54 212 CURVE SMOOTH"
);
}
);
};
layerId = "F0BFB48A-FE12-442E-8BCB-C5A3C3D4BFD6";
name = "Regular Italic Mar 27 16, 16:43";
paths = (
{
closed = 1;
nodes = (
"54 26 OFFCURVE",
"158 -63 OFFCURVE",
"349 -63 CURVE SMOOTH",
"556 -63 OFFCURVE",
"686 43 OFFCURVE",
"687 302 CURVE",
"638 315 OFFCURVE",
"527 334 OFFCURVE",
"486 334 CURVE SMOOTH",
"429 334 OFFCURVE",
"389 295 OFFCURVE",
"389 229 CURVE SMOOTH",
"389 215 OFFCURVE",
"392 199 OFFCURVE",
"396 181 CURVE",
"412 187 OFFCURVE",
"435 190 OFFCURVE",
"460 190 CURVE SMOOTH",
"472 190 OFFCURVE",
"485 189 OFFCURVE",
"497 187 CURVE",
"479 140 OFFCURVE",
"440 117 OFFCURVE",
"402 117 CURVE SMOOTH",
"357 117 OFFCURVE",
"316 149 OFFCURVE",
"316 224 CURVE SMOOTH",
"316 332 OFFCURVE",
"402 504 OFFCURVE",
"502 504 CURVE SMOOTH",
"544 504 OFFCURVE",
"573 474 OFFCURVE",
"573 433 CURVE SMOOTH",
"573 427 OFFCURVE",
"572 419 OFFCURVE",
"570 411 CURVE",
"580 409 OFFCURVE",
"599 406 OFFCURVE",
"618 406 CURVE SMOOTH",
"671 406 OFFCURVE",
"739 431 OFFCURVE",
"739 518 CURVE SMOOTH",
"739 628 OFFCURVE",
"628 674 OFFCURVE",
"509 674 CURVE SMOOTH",
"256 674 OFFCURVE",
"54 470 OFFCURVE",
"54 212 CURVE SMOOTH"
);
}
);
width = 697;
},
{
associatedMasterId = "BE599D47-15C2-4DC8-BE97-05FFE6CA3179";
background = {
paths = (
{
closed = 1;
nodes = (
"54 26 OFFCURVE",
"158 -63 OFFCURVE",
"349 -63 CURVE SMOOTH",
"556 -63 OFFCURVE",
"686 43 OFFCURVE",
"687 302 CURVE",
"638 315 OFFCURVE",
"527 334 OFFCURVE",
"486 334 CURVE SMOOTH",
"429 334 OFFCURVE",
"389 295 OFFCURVE",
"389 229 CURVE SMOOTH",
"389 215 OFFCURVE",
"392 199 OFFCURVE",
"396 181 CURVE",
"412 187 OFFCURVE",
"435 190 OFFCURVE",
"460 190 CURVE SMOOTH",
"472 190 OFFCURVE",
"485 189 OFFCURVE",
"497 187 CURVE",
"479 140 OFFCURVE",
"440 117 OFFCURVE",
"402 117 CURVE SMOOTH",
"357 117 OFFCURVE",
"316 149 OFFCURVE",
"316 212 CURVE SMOOTH",
"316 217 OFFCURVE",
"316 222 OFFCURVE",
"316 228 CURVE SMOOTH",
"328 341 OFFCURVE",
"398 504 OFFCURVE",
"502 504 CURVE SMOOTH",
"544 504 OFFCURVE",
"573 474 OFFCURVE",
"573 433 CURVE SMOOTH",
"573 427 OFFCURVE",
"572 419 OFFCURVE",
"570 411 CURVE",
"580 409 OFFCURVE",
"599 406 OFFCURVE",
"618 406 CURVE SMOOTH",
"671 406 OFFCURVE",
"739 431 OFFCURVE",
"739 518 CURVE SMOOTH",
"739 628 OFFCURVE",
"628 674 OFFCURVE",
"509 674 CURVE SMOOTH",
"256 674 OFFCURVE",
"54 470 OFFCURVE",
"54 212 CURVE SMOOTH"
);
}
);
};
layerId = "0F069C50-FF73-4A7C-940A-0C0B45FB5818";
name = "Regular Italic Mar 27 16, 16:47";
paths = (
{
closed = 1;
nodes = (
"54 26 OFFCURVE",
"157 -63 OFFCURVE",
"350 -63 CURVE SMOOTH",
"515 -63 OFFCURVE",
"624 1 OFFCURVE",
"711 309 CURVE",
"660 321 OFFCURVE",
"524 330 OFFCURVE",
"477 321 CURVE SMOOTH",
"440 313 OFFCURVE",
"410 283 OFFCURVE",
"384 188 CURVE",
"497 187 LINE",
"479 140 OFFCURVE",
"440 117 OFFCURVE",
"402 117 CURVE SMOOTH",
"357 117 OFFCURVE",
"316 149 OFFCURVE",
"316 224 CURVE SMOOTH",
"316 332 OFFCURVE",
"402 504 OFFCURVE",
"502 504 CURVE SMOOTH",
"544 504 OFFCURVE",
"573 474 OFFCURVE",
"573 433 CURVE SMOOTH",
"573 427 OFFCURVE",
"572 419 OFFCURVE",
"570 411 CURVE",
"580 409 OFFCURVE",
"599 406 OFFCURVE",
"618 406 CURVE SMOOTH",
"671 406 OFFCURVE",
"739 431 OFFCURVE",
"739 518 CURVE SMOOTH",
"739 628 OFFCURVE",
"628 674 OFFCURVE",
"509 674 CURVE SMOOTH",
"256 674 OFFCURVE",
"54 470 OFFCURVE",
"54 212 CURVE SMOOTH"
);
}
);
width = 697;
}
);
unicode = 0047;
},
{
glyphname = H;
lastChange = "2016-04-03 02:12:17 +0000";
layers = (
{
background = {
paths = (
{
closed = 1;
nodes = (
"188 258 LINE",
"535 258 LINE",
"555 351 LINE",
"207 351 LINE"
);
},
{
closed = 1;
nodes = (
"141 -75 OFFCURVE",
"192 -47 OFFCURVE",
"239 -14 CURVE",
"234 2 OFFCURVE",
"231 19 OFFCURVE",
"231 42 CURVE SMOOTH",
"231 242 OFFCURVE",
"410 482 OFFCURVE",
"404 606 CURVE SMOOTH",
"401 661 OFFCURVE",
"366 674 OFFCURVE",
"314 674 CURVE SMOOTH",
"250 674 OFFCURVE",
"174 654 OFFCURVE",
"107 615 CURVE",
"124 584 OFFCURVE",
"128 553 OFFCURVE",
"128 526 CURVE SMOOTH",
"128 327 OFFCURVE",
"-13 185 OFFCURVE",
"-15 22 CURVE SMOOTH",
"-15 -41 OFFCURVE",
"29 -75 OFFCURVE",
"88 -75 CURVE SMOOTH"
);
},
{
closed = 1;
nodes = (
"514 -75 OFFCURVE",
"565 -47 OFFCURVE",
"612 -14 CURVE",
"607 2 OFFCURVE",
"604 19 OFFCURVE",
"604 42 CURVE SMOOTH",
"604 242 OFFCURVE",
"783 482 OFFCURVE",
"777 606 CURVE SMOOTH",
"774 661 OFFCURVE",
"739 674 OFFCURVE",
"686 674 CURVE SMOOTH",
"623 674 OFFCURVE",
"547 654 OFFCURVE",
"480 615 CURVE",
"497 584 OFFCURVE",
"500 553 OFFCURVE",
"500 526 CURVE SMOOTH",
"500 327 OFFCURVE",
"360 185 OFFCURVE",
"358 22 CURVE SMOOTH",
"357 -41 OFFCURVE",
"401 -75 OFFCURVE",
"461 -75 CURVE SMOOTH"
);
}
);
};
layerId = "BE599D47-15C2-4DC8-BE97-05FFE6CA3179";
paths = (
{
closed = 1;
nodes = (
"146 -32 OFFCURVE",
"198 -4 OFFCURVE",
"245 29 CURVE",
"240 45 OFFCURVE",
"237 62 OFFCURVE",
"237 85 CURVE SMOOTH",
"237 278 OFFCURVE",
"416 525 OFFCURVE",
"410 649 CURVE SMOOTH",
"407 704 OFFCURVE",
"371 717 OFFCURVE",
"319 717 CURVE SMOOTH",
"256 717 OFFCURVE",
"180 697 OFFCURVE",
"113 658 CURVE",
"130 627 OFFCURVE",
"133 596 OFFCURVE",
"133 569 CURVE SMOOTH",
"133 371 OFFCURVE",
"-7 229 OFFCURVE",
"-9 65 CURVE SMOOTH",
"-10 2 OFFCURVE",
"34 -32 OFFCURVE",
"94 -32 CURVE SMOOTH"
);
},
{
closed = 1;
nodes = (
"519 -32 OFFCURVE",
"571 -4 OFFCURVE",
"617 29 CURVE",
"612 45 OFFCURVE",
"610 62 OFFCURVE",
"610 85 CURVE SMOOTH",
"610 285 OFFCURVE",
"789 525 OFFCURVE",
"782 649 CURVE SMOOTH",
"780 704 OFFCURVE",
"744 717 OFFCURVE",
"692 717 CURVE SMOOTH",
"628 717 OFFCURVE",
"553 697 OFFCURVE",
"486 658 CURVE",
"502 627 OFFCURVE",
"506 596 OFFCURVE",
"506 569 CURVE SMOOTH",
"506 378 OFFCURVE",
"366 229 OFFCURVE",
"364 65 CURVE SMOOTH",
"363 2 OFFCURVE",
"407 -32 OFFCURVE",
"467 -32 CURVE SMOOTH"
);
},
{
closed = 1;
nodes = (
"218 268 LINE",
"504 268 LINE",
"522 411 LINE",
"236 411 LINE"
);
}
);
width = 692;
},
{
associatedMasterId = "BE599D47-15C2-4DC8-BE97-05FFE6CA3179";
layerId = "D1255F81-47FD-4292-A4D5-2E2F74A5A84D";
name = "Regular Italic Mar 24 16, 01:10";
paths = (
{
closed = 1;
nodes = (
"141 -54 OFFCURVE",
"200 -26 OFFCURVE",
"240 7 CURVE",
"235 23 OFFCURVE",
"232 40 OFFCURVE",
"232 63 CURVE SMOOTH",
"232 255 OFFCURVE",
"411 487 OFFCURVE",
"405 606 CURVE SMOOTH",
"402 661 OFFCURVE",
"366 674 OFFCURVE",
"314 674 CURVE SMOOTH",
"251 674 OFFCURVE",
"180 654 OFFCURVE",
"115 615 CURVE",
"132 584 OFFCURVE",
"135 553 OFFCURVE",
"135 526 CURVE SMOOTH",
"135 336 OFFCURVE",
"-6 199 OFFCURVE",
"-7 43 CURVE SMOOTH",
"-8 -20 OFFCURVE",
"33 -54 OFFCURVE",
"89 -54 CURVE SMOOTH"
);
},
{
closed = 1;
nodes = (
"525 -54 OFFCURVE",
"583 -26 OFFCURVE",
"623 7 CURVE",
"618 23 OFFCURVE",
"615 40 OFFCURVE",
"615 63 CURVE SMOOTH",
"615 255 OFFCURVE",
"794 487 OFFCURVE",
"788 606 CURVE SMOOTH",
"785 661 OFFCURVE",
"750 674 OFFCURVE",
"697 674 CURVE SMOOTH",
"634 674 OFFCURVE",
"563 654 OFFCURVE",
"498 615 CURVE",
"515 584 OFFCURVE",
"518 553 OFFCURVE",
"518 526 CURVE SMOOTH",
"518 336 OFFCURVE",
"378 199 OFFCURVE",
"376 43 CURVE SMOOTH",
"376 -20 OFFCURVE",
"417 -54 OFFCURVE",
"472 -54 CURVE SMOOTH"
);
},
{
closed = 1;
nodes = (
"196 258 LINE",
"543 258 LINE",
"562 351 LINE",
"215 351 LINE"
);
}
);
width = 690;
}
);
unicode = 0048;
},
{
glyphname = I;
lastChange = "2016-04-03 02:12:17 +0000";
layers = (
{
layerId = "BE599D47-15C2-4DC8-BE97-05FFE6CA3179";
paths = (
{
closed = 1;
nodes = (
"146 -32 OFFCURVE",
"198 -4 OFFCURVE",
"245 29 CURVE",
"240 45 OFFCURVE",
"237 62 OFFCURVE",
"237 85 CURVE SMOOTH",
"237 285 OFFCURVE",
"416 525 OFFCURVE",
"410 649 CURVE SMOOTH",
"407 704 OFFCURVE",
"371 717 OFFCURVE",
"319 717 CURVE SMOOTH",
"256 717 OFFCURVE",
"180 697 OFFCURVE",
"113 658 CURVE",
"130 627 OFFCURVE",
"133 596 OFFCURVE",
"133 569 CURVE SMOOTH",
"133 371 OFFCURVE",
"-8 229 OFFCURVE",
"-9 65 CURVE SMOOTH",
"-10 2 OFFCURVE",
"34 -32 OFFCURVE",
"94 -32 CURVE SMOOTH"
);
}
);
width = 319;
},
{
associatedMasterId = "BE599D47-15C2-4DC8-BE97-05FFE6CA3179";
layerId = "5FAE9B01-1040-49BE-AB96-8A465C40B196";
name = "Regular Italic Mar 24 16, 01:01";
paths = (
{
closed = 1;
nodes = (
"141 -54 OFFCURVE",
"200 -26 OFFCURVE",
"240 7 CURVE",
"235 23 OFFCURVE",
"232 40 OFFCURVE",
"232 63 CURVE SMOOTH",
"232 255 OFFCURVE",
"411 487 OFFCURVE",
"405 606 CURVE SMOOTH",
"402 661 OFFCURVE",
"366 674 OFFCURVE",
"314 674 CURVE SMOOTH",
"251 674 OFFCURVE",
"180 654 OFFCURVE",
"115 615 CURVE",
"132 584 OFFCURVE",
"135 553 OFFCURVE",
"135 526 CURVE SMOOTH",
"135 336 OFFCURVE",
"-6 199 OFFCURVE",
"-7 43 CURVE SMOOTH",
"-8 -20 OFFCURVE",
"33 -54 OFFCURVE",
"89 -54 CURVE SMOOTH"
);
}
);
width = 307;
}
);
unicode = 0049;
},
{
glyphname = J;
lastChange = "2016-04-03 02:12:17 +0000";
layers = (
{
background = {
paths = (
{
closed = 1;
nodes = (
"45 -223 OFFCURVE",
"147 -172 OFFCURVE",
"238 7 CURVE SMOOTH",
"311 153 OFFCURVE",
"394 419 OFFCURVE",
"394 562 CURVE SMOOTH",
"394 661 OFFCURVE",
"355 674 OFFCURVE",
"307 674 CURVE SMOOTH",
"248 674 OFFCURVE",
"183 654 OFFCURVE",
"125 615 CURVE",
"141 584 OFFCURVE",
"145 553 OFFCURVE",
"145 526 CURVE SMOOTH",
"145 429 OFFCURVE",
"95 128 OFFCURVE",
"2 13 CURVE SMOOTH",
"-36 -34 OFFCURVE",
"-82 -52 OFFCURVE",
"-130 -52 CURVE SMOOTH",
"-144 -52 OFFCURVE",
"-159 -50 OFFCURVE",
"-173 -47 CURVE",
"-178 -61 OFFCURVE",
"-182 -77 OFFCURVE",
"-182 -96 CURVE SMOOTH",
"-182 -160 OFFCURVE",
"-134 -223 OFFCURVE",
"-40 -223 CURVE SMOOTH"
);
}
);
};
layerId = "BE599D47-15C2-4DC8-BE97-05FFE6CA3179";
paths = (
{
closed = 1;
nodes = (
"125 -194 OFFCURVE",
"203 -68 OFFCURVE",
"262 88 CURVE SMOOTH",
"358 344 OFFCURVE",
"431 545 OFFCURVE",
"431 635 CURVE SMOOTH",
"431 702 OFFCURVE",
"394 716 OFFCURVE",
"279 716 CURVE SMOOTH",
"198 716 OFFCURVE",
"125 711 OFFCURVE",
"88 564 CURVE",
"139 564 OFFCURVE",
"176 555 OFFCURVE",
"176 525 CURVE SMOOTH",
"176 481 OFFCURVE",
"117 270 OFFCURVE",
"59 142 CURVE SMOOTH",
"-13 -13 OFFCURVE",
"-75 -36 OFFCURVE",
"-185 -51 CURVE",
"-185 -153 OFFCURVE",
"-95 -194 OFFCURVE",
"-15 -194 CURVE SMOOTH"
);
}
);
width = 354;
},
{
associatedMasterId = "BE599D47-15C2-4DC8-BE97-05FFE6CA3179";
background = {
paths = (
{
closed = 1;
nodes = (
"152 -223 OFFCURVE",
"253 -172 OFFCURVE",
"344 7 CURVE SMOOTH",
"418 153 OFFCURVE",
"500 419 OFFCURVE",
"500 562 CURVE SMOOTH",
"500 661 OFFCURVE",
"462 674 OFFCURVE",
"413 674 CURVE SMOOTH",
"355 674 OFFCURVE",
"289 654 OFFCURVE",
"231 615 CURVE",
"248 584 OFFCURVE",
"252 553 OFFCURVE",
"252 526 CURVE SMOOTH",
"252 429 OFFCURVE",
"202 128 OFFCURVE",
"109 13 CURVE SMOOTH",
"71 -34 OFFCURVE",
"25 -52 OFFCURVE",
"-24 -52 CURVE SMOOTH",
"-38 -52 OFFCURVE",
"-52 -50 OFFCURVE",
"-67 -47 CURVE",
"-71 -61 OFFCURVE",
"-75 -77 OFFCURVE",
"-75 -96 CURVE SMOOTH",
"-75 -160 OFFCURVE",
"-28 -223 OFFCURVE",
"67 -223 CURVE SMOOTH"
);
}
);
};
layerId = "ACAB985A-2741-46CC-8BA9-6F7C0E7DC47B";
name = "Regular Italic Apr 1 16, 04:05";
paths = (
{
closed = 1;
nodes = (
"152 -223 OFFCURVE",
"253 -172 OFFCURVE",
"344 7 CURVE SMOOTH",
"418 153 OFFCURVE",
"500 419 OFFCURVE",
"500 562 CURVE SMOOTH",
"500 661 OFFCURVE",
"462 674 OFFCURVE",
"413 674 CURVE SMOOTH",
"355 674 OFFCURVE",
"289 654 OFFCURVE",
"231 615 CURVE",
"248 584 OFFCURVE",
"252 553 OFFCURVE",
"252 526 CURVE SMOOTH",
"252 429 OFFCURVE",
"202 128 OFFCURVE",
"109 13 CURVE SMOOTH",
"71 -34 OFFCURVE",
"25 -52 OFFCURVE",
"-24 -52 CURVE SMOOTH",
"-38 -52 OFFCURVE",
"-52 -50 OFFCURVE",
"-67 -47 CURVE",
"-71 -61 OFFCURVE",
"-75 -77 OFFCURVE",
"-75 -96 CURVE SMOOTH",
"-75 -160 OFFCURVE",
"-28 -223 OFFCURVE",
"67 -223 CURVE SMOOTH"
);
}
);
width = 454;
}
);
unicode = 004A;
},
{
glyphname = K;
lastChange = "2016-04-03 02:12:17 +0000";
layers = (
{
background = {
paths = (
{
closed = 1;
nodes = (
"146 -75 OFFCURVE",
"198 -47 OFFCURVE",
"245 -14 CURVE",
"240 2 OFFCURVE",
"237 19 OFFCURVE",
"237 42 CURVE SMOOTH",
"237 242 OFFCURVE",
"416 482 OFFCURVE",
"410 606 CURVE SMOOTH",
"407 661 OFFCURVE",
"371 674 OFFCURVE",
"319 674 CURVE SMOOTH",
"256 674 OFFCURVE",
"180 654 OFFCURVE",
"113 615 CURVE",
"130 584 OFFCURVE",
"133 553 OFFCURVE",
"133 526 CURVE SMOOTH",
"133 327 OFFCURVE",
"-8 185 OFFCURVE",
"-9 22 CURVE SMOOTH",
"-10 -41 OFFCURVE",
"34 -75 OFFCURVE",
"94 -75 CURVE SMOOTH"
);
},
{
closed = 1;
nodes = (
"271 262 OFFCURVE",
"285 262 OFFCURVE",
"298 262 CURVE SMOOTH",
"472 262 OFFCURVE",
"707 365 OFFCURVE",
"707 562 CURVE SMOOTH",
"707 637 OFFCURVE",
"635 674 OFFCURVE",
"549 674 CURVE",
"489 511 OFFCURVE",
"401 394 OFFCURVE",
"280 357 CURVE",
"258 263 LINE"
);
},
{
closed = 1;
nodes = (
"304 70 OFFCURVE",
"403 -54 OFFCURVE",
"502 -54 CURVE SMOOTH",
"624 -54 OFFCURVE",
"669 48 OFFCURVE",
"656 135 CURVE",
"569 153 OFFCURVE",
"504 179 OFFCURVE",
"449 298 CURVE",
"244 269 LINE"
);
}
);
};
layerId = "BE599D47-15C2-4DC8-BE97-05FFE6CA3179";
paths = (
{
closed = 1;
nodes = (
"146 -32 OFFCURVE",
"198 -4 OFFCURVE",
"245 29 CURVE",
"240 45 OFFCURVE",
"237 62 OFFCURVE",
"237 85 CURVE SMOOTH",
"237 285 OFFCURVE",
"416 525 OFFCURVE",
"410 649 CURVE SMOOTH",
"407 704 OFFCURVE",
"371 717 OFFCURVE",
"319 717 CURVE SMOOTH",
"256 717 OFFCURVE",
"180 697 OFFCURVE",
"113 658 CURVE",
"130 627 OFFCURVE",
"133 596 OFFCURVE",
"133 569 CURVE SMOOTH",
"133 371 OFFCURVE",
"-8 229 OFFCURVE",
"-9 65 CURVE SMOOTH",
"-10 2 OFFCURVE",
"34 -32 OFFCURVE",
"94 -32 CURVE SMOOTH"
);
},
{
closed = 1;
nodes = (
"271 305 OFFCURVE",
"285 305 OFFCURVE",
"298 305 CURVE SMOOTH",
"472 305 OFFCURVE",
"707 408 OFFCURVE",
"707 605 CURVE SMOOTH",
"707 680 OFFCURVE",
"635 718 OFFCURVE",
"549 717 CURVE",
"489 555 OFFCURVE",
"401 437 OFFCURVE",
"280 401 CURVE",
"258 306 LINE"
);
},
{
closed = 1;
nodes = (
"304 113 OFFCURVE",
"403 -11 OFFCURVE",
"502 -11 CURVE SMOOTH",
"624 -11 OFFCURVE",
"669 134 OFFCURVE",
"656 259 CURVE",
"628 240 OFFCURVE",
"601 231 OFFCURVE",
"573 231 CURVE SMOOTH",
"518 231 OFFCURVE",
"474 264 OFFCURVE",
"449 341 CURVE",
"244 312 LINE"
);
}
);
width = 669;
},
{
associatedMasterId = "BE599D47-15C2-4DC8-BE97-05FFE6CA3179";
layerId = "F6CBF3D6-7712-4EE2-AC38-762D28A0D85E";
name = "Regular Italic Mar 28 16, 04:43";
paths = (
{
closed = 1;
nodes = (
"148 -75 OFFCURVE",
"200 -47 OFFCURVE",
"247 -14 CURVE",
"242 2 OFFCURVE",
"239 19 OFFCURVE",
"239 42 CURVE SMOOTH",
"239 242 OFFCURVE",
"418 482 OFFCURVE",
"412 606 CURVE SMOOTH",
"409 661 OFFCURVE",
"373 674 OFFCURVE",
"321 674 CURVE SMOOTH",
"258 674 OFFCURVE",
"182 654 OFFCURVE",
"115 615 CURVE",
"132 584 OFFCURVE",
"135 553 OFFCURVE",
"135 526 CURVE SMOOTH",
"135 327 OFFCURVE",
"-6 185 OFFCURVE",
"-7 22 CURVE SMOOTH",
"-8 -41 OFFCURVE",
"36 -75 OFFCURVE",
"96 -75 CURVE SMOOTH"
);
},
{
closed = 1;
nodes = (
"273 262 OFFCURVE",
"287 262 OFFCURVE",
"300 262 CURVE SMOOTH",
"474 262 OFFCURVE",
"709 334 OFFCURVE",
"709 471 CURVE SMOOTH",
"709 546 OFFCURVE",
"637 583 OFFCURVE",
"551 582 CURVE",
"491 467 OFFCURVE",
"403 383 OFFCURVE",
"282 357 CURVE",
"260 263 LINE"
);
},
{
closed = 1;
nodes = (
"307 70 OFFCURVE",
"406 -54 OFFCURVE",
"504 -54 CURVE SMOOTH",
"626 -54 OFFCURVE",
"671 91 OFFCURVE",
"658 215 CURVE",
"631 197 OFFCURVE",
"603 188 OFFCURVE",
"575 188 CURVE SMOOTH",
"520 188 OFFCURVE",
"477 221 OFFCURVE",
"452 298 CURVE",
"246 269 LINE"
);
}
);
width = 697;
},
{
associatedMasterId = "BE599D47-15C2-4DC8-BE97-05FFE6CA3179";
background = {
paths = (
{
closed = 1;
nodes = (
"148 -75 OFFCURVE",
"200 -47 OFFCURVE",
"247 -14 CURVE",
"242 2 OFFCURVE",
"239 19 OFFCURVE",
"239 42 CURVE SMOOTH",
"239 242 OFFCURVE",
"418 482 OFFCURVE",
"412 606 CURVE SMOOTH",
"409 661 OFFCURVE",
"373 674 OFFCURVE",
"321 674 CURVE SMOOTH",
"258 674 OFFCURVE",
"182 654 OFFCURVE",
"115 615 CURVE",
"132 584 OFFCURVE",
"135 553 OFFCURVE",
"135 526 CURVE SMOOTH",
"135 327 OFFCURVE",
"-6 185 OFFCURVE",
"-7 22 CURVE SMOOTH",
"-8 -41 OFFCURVE",
"36 -75 OFFCURVE",
"96 -75 CURVE SMOOTH"
);
},
{
closed = 1;
nodes = (
"273 262 OFFCURVE",
"287 262 OFFCURVE",
"300 262 CURVE SMOOTH",
"474 262 OFFCURVE",
"709 334 OFFCURVE",
"709 471 CURVE SMOOTH",
"709 546 OFFCURVE",
"637 583 OFFCURVE",
"551 582 CURVE",
"491 467 OFFCURVE",
"403 383 OFFCURVE",
"282 357 CURVE",
"260 263 LINE"
);
},
{
closed = 1;
nodes = (
"307 70 OFFCURVE",
"406 -54 OFFCURVE",
"504 -54 CURVE SMOOTH",
"626 -54 OFFCURVE",
"671 91 OFFCURVE",
"658 215 CURVE",
"631 197 OFFCURVE",
"603 188 OFFCURVE",
"575 188 CURVE SMOOTH",
"520 188 OFFCURVE",
"477 221 OFFCURVE",
"452 298 CURVE",
"246 269 LINE"
);
}
);
};
layerId = "A98F2DEB-9BD7-4BE4-83A2-C726E3E192FF";
name = "Regular Italic Mar 28 16, 04:44";
paths = (
{
closed = 1;
nodes = (
"148 -75 OFFCURVE",
"200 -47 OFFCURVE",
"247 -14 CURVE",
"242 2 OFFCURVE",
"239 19 OFFCURVE",
"239 42 CURVE SMOOTH",
"239 242 OFFCURVE",
"418 482 OFFCURVE",
"412 606 CURVE SMOOTH",
"409 661 OFFCURVE",
"373 674 OFFCURVE",
"321 674 CURVE SMOOTH",
"258 674 OFFCURVE",
"182 654 OFFCURVE",
"115 615 CURVE",
"132 584 OFFCURVE",
"135 553 OFFCURVE",
"135 526 CURVE SMOOTH",
"135 327 OFFCURVE",
"-6 185 OFFCURVE",
"-7 22 CURVE SMOOTH",
"-8 -41 OFFCURVE",
"36 -75 OFFCURVE",
"96 -75 CURVE SMOOTH"
);
},
{
closed = 1;
nodes = (
"273 262 OFFCURVE",
"287 262 OFFCURVE",
"300 262 CURVE SMOOTH",
"474 262 OFFCURVE",
"709 365 OFFCURVE",
"709 562 CURVE SMOOTH",
"709 637 OFFCURVE",
"637 674 OFFCURVE",
"551 674 CURVE",
"491 511 OFFCURVE",
"403 394 OFFCURVE",
"282 357 CURVE",
"260 263 LINE"
);
},
{
closed = 1;
nodes = (
"307 70 OFFCURVE",
"406 -54 OFFCURVE",
"504 -54 CURVE SMOOTH",
"626 -54 OFFCURVE",
"671 91 OFFCURVE",
"658 215 CURVE",
"631 197 OFFCURVE",
"603 188 OFFCURVE",
"575 188 CURVE SMOOTH",
"520 188 OFFCURVE",
"477 221 OFFCURVE",
"452 298 CURVE",
"246 269 LINE"
);
}
);
width = 697;
},
{
associatedMasterId = "BE599D47-15C2-4DC8-BE97-05FFE6CA3179";
background = {
paths = (
{
closed = 1;
nodes = (
"148 -75 OFFCURVE",
"200 -47 OFFCURVE",
"247 -14 CURVE",
"242 2 OFFCURVE",
"239 19 OFFCURVE",
"239 42 CURVE SMOOTH",
"239 242 OFFCURVE",
"418 482 OFFCURVE",
"412 606 CURVE SMOOTH",
"409 661 OFFCURVE",
"373 674 OFFCURVE",
"321 674 CURVE SMOOTH",
"258 674 OFFCURVE",
"182 654 OFFCURVE",
"115 615 CURVE",
"132 584 OFFCURVE",
"135 553 OFFCURVE",
"135 526 CURVE SMOOTH",
"135 327 OFFCURVE",
"-6 185 OFFCURVE",
"-7 22 CURVE SMOOTH",
"-8 -41 OFFCURVE",
"36 -75 OFFCURVE",
"96 -75 CURVE SMOOTH"
);
},
{
closed = 1;
nodes = (
"273 262 OFFCURVE",
"287 262 OFFCURVE",
"300 262 CURVE SMOOTH",
"474 262 OFFCURVE",
"709 365 OFFCURVE",
"709 562 CURVE SMOOTH",
"709 637 OFFCURVE",
"637 674 OFFCURVE",
"551 674 CURVE",
"491 511 OFFCURVE",
"403 394 OFFCURVE",
"282 357 CURVE",
"260 263 LINE"
);
},
{
closed = 1;
nodes = (
"307 70 OFFCURVE",
"406 -54 OFFCURVE",
"504 -54 CURVE SMOOTH",
"626 -54 OFFCURVE",
"671 91 OFFCURVE",
"658 215 CURVE",
"631 197 OFFCURVE",
"603 188 OFFCURVE",
"575 188 CURVE SMOOTH",
"520 188 OFFCURVE",
"477 221 OFFCURVE",
"452 298 CURVE",
"246 269 LINE"
);
}
);
};
layerId = "3CD0A2FB-EF22-4968-A6B2-2293E0AD5B54";
name = "Regular Italic Mar 28 16, 04:45";
paths = (
{
closed = 1;
nodes = (
"148 -75 OFFCURVE",
"200 -47 OFFCURVE",
"247 -14 CURVE",
"242 2 OFFCURVE",
"239 19 OFFCURVE",
"239 42 CURVE SMOOTH",
"239 242 OFFCURVE",
"418 482 OFFCURVE",
"412 606 CURVE SMOOTH",
"409 661 OFFCURVE",
"373 674 OFFCURVE",
"321 674 CURVE SMOOTH",
"258 674 OFFCURVE",
"182 654 OFFCURVE",
"115 615 CURVE",
"132 584 OFFCURVE",
"135 553 OFFCURVE",
"135 526 CURVE SMOOTH",
"135 327 OFFCURVE",
"-6 185 OFFCURVE",
"-7 22 CURVE SMOOTH",
"-8 -41 OFFCURVE",
"36 -75 OFFCURVE",
"96 -75 CURVE SMOOTH"
);
},
{
closed = 1;
nodes = (
"273 262 OFFCURVE",
"287 262 OFFCURVE",
"300 262 CURVE SMOOTH",
"474 262 OFFCURVE",
"709 365 OFFCURVE",
"709 562 CURVE SMOOTH",
"709 637 OFFCURVE",
"637 674 OFFCURVE",
"551 674 CURVE",
"491 511 OFFCURVE",
"403 394 OFFCURVE",
"282 357 CURVE",
"260 263 LINE"
);
},
{
closed = 1;
nodes = (
"307 70 OFFCURVE",
"406 -54 OFFCURVE",
"504 -54 CURVE SMOOTH",
"626 -54 OFFCURVE",
"671 48 OFFCURVE",
"658 135 CURVE",
"571 153 OFFCURVE",
"507 179 OFFCURVE",
"452 298 CURVE",
"246 269 LINE"
);
}
);
width = 697;
}
);
unicode = 004B;
},
{
glyphname = L;
lastChange = "2016-04-03 02:12:18 +0000";
layers = (
{
background = {
paths = (
{
closed = 1;
nodes = (
"1 -27 OFFCURVE",
"109 -59 OFFCURVE",
"292 -59 CURVE SMOOTH",
"412 -59 OFFCURVE",
"495 -44 OFFCURVE",
"495 98 CURVE SMOOTH",
"495 126 OFFCURVE",
"493 159 OFFCURVE",
"480 179 CURVE",
"452 153 OFFCURVE",
"396 127 OFFCURVE",
"337 127 CURVE SMOOTH",
"303 127 OFFCURVE",
"276 131 OFFCURVE",
"259 138 CURVE SMOOTH",
"242 144 OFFCURVE",
"240 155 OFFCURVE",
"242 168 CURVE SMOOTH",
"279 330 OFFCURVE",
"401 496 OFFCURVE",
"401 600 CURVE SMOOTH",
"401 660 OFFCURVE",
"365 674 OFFCURVE",
"311 674 CURVE SMOOTH",
"247 674 OFFCURVE",
"176 654 OFFCURVE",
"111 615 CURVE",
"128 584 OFFCURVE",
"132 553 OFFCURVE",
"132 526 CURVE SMOOTH",
"132 336 OFFCURVE",
"4 199 OFFCURVE",
"3 114 CURVE SMOOTH"
);
}
);
};
layerId = "BE599D47-15C2-4DC8-BE97-05FFE6CA3179";
paths = (
{
closed = 1;
nodes = (
"1 16 OFFCURVE",
"98 -15 OFFCURVE",
"264 -15 CURVE SMOOTH",
"406 -15 OFFCURVE",
"472 -1 OFFCURVE",
"472 141 CURVE SMOOTH",
"472 169 OFFCURVE",
"468 185 OFFCURVE",
"452 205 CURVE",
"425 183 OFFCURVE",
"386 171 OFFCURVE",
"341 171 CURVE SMOOTH",
"308 171 OFFCURVE",
"279 175 OFFCURVE",
"261 182 CURVE SMOOTH",
"245 188 OFFCURVE",
"242 199 OFFCURVE",
"245 212 CURVE SMOOTH",
"281 373 OFFCURVE",
"401 539 OFFCURVE",
"401 643 CURVE SMOOTH",
"401 703 OFFCURVE",
"365 717 OFFCURVE",
"311 717 CURVE SMOOTH",
"247 717 OFFCURVE",
"176 697 OFFCURVE",
"111 658 CURVE",
"128 627 OFFCURVE",
"132 596 OFFCURVE",
"132 569 CURVE SMOOTH",
"132 379 OFFCURVE",
"4 242 OFFCURVE",
"3 122 CURVE SMOOTH"
);
}
);
width = 498;
},
{
associatedMasterId = "BE599D47-15C2-4DC8-BE97-05FFE6CA3179";
layerId = "0CBCE923-702A-441B-A9D4-99FFB1224413";
name = "Regular Italic Mar 24 16, 03:09";
paths = (
{
closed = 1;
nodes = (
"5 -27 OFFCURVE",
"112 -59 OFFCURVE",
"295 -59 CURVE SMOOTH",
"429 -59 OFFCURVE",
"520 -44 OFFCURVE",
"520 100 CURVE SMOOTH",
"520 124 OFFCURVE",
"515 148 OFFCURVE",
"502 168 CURVE",
"473 141 OFFCURVE",
"405 113 OFFCURVE",
"337 113 CURVE SMOOTH",
"304 113 OFFCURVE",
"277 117 OFFCURVE",
"259 124 CURVE SMOOTH",
"243 130 OFFCURVE",
"240 141 OFFCURVE",
"243 154 CURVE SMOOTH",
"280 321 OFFCURVE",
"405 493 OFFCURVE",
"405 600 CURVE SMOOTH",
"405 660 OFFCURVE",
"369 674 OFFCURVE",
"314 674 CURVE SMOOTH",
"251 674 OFFCURVE",
"180 654 OFFCURVE",
"115 615 CURVE",
"132 584 OFFCURVE",
"135 553 OFFCURVE",
"135 526 CURVE SMOOTH",
"135 336 OFFCURVE",
"8 199 OFFCURVE",
"6 114 CURVE SMOOTH"
);
}
);
width = 557;
},
{
associatedMasterId = "BE599D47-15C2-4DC8-BE97-05FFE6CA3179";
background = {
paths = (
{
closed = 1;
nodes = (
"5 -27 OFFCURVE",
"112 -59 OFFCURVE",
"295 -59 CURVE SMOOTH",
"429 -59 OFFCURVE",
"520 -44 OFFCURVE",
"520 100 CURVE SMOOTH",
"520 124 OFFCURVE",
"515 148 OFFCURVE",
"502 168 CURVE",
"473 141 OFFCURVE",
"405 113 OFFCURVE",
"337 113 CURVE SMOOTH",
"304 113 OFFCURVE",
"277 117 OFFCURVE",
"259 124 CURVE SMOOTH",
"243 130 OFFCURVE",
"240 141 OFFCURVE",
"243 154 CURVE SMOOTH",
"280 321 OFFCURVE",
"405 493 OFFCURVE",
"405 600 CURVE SMOOTH",
"405 660 OFFCURVE",
"369 674 OFFCURVE",
"314 674 CURVE SMOOTH",
"251 674 OFFCURVE",
"180 654 OFFCURVE",
"115 615 CURVE",
"132 584 OFFCURVE",
"135 553 OFFCURVE",
"135 526 CURVE SMOOTH",
"135 336 OFFCURVE",
"8 199 OFFCURVE",
"6 114 CURVE SMOOTH"
);
}
);
};
layerId = "A2550379-674D-4E9D-8256-665B917E3168";
name = "Regular Italic Mar 25 16, 02:30";
paths = (
{
closed = 1;
nodes = (
"5 -27 OFFCURVE",
"112 -59 OFFCURVE",
"295 -59 CURVE SMOOTH",
"416 -59 OFFCURVE",
"499 -44 OFFCURVE",
"499 98 CURVE SMOOTH",
"499 126 OFFCURVE",
"497 159 OFFCURVE",
"484 179 CURVE",
"455 153 OFFCURVE",
"399 127 OFFCURVE",
"340 127 CURVE SMOOTH",
"307 127 OFFCURVE",
"279 131 OFFCURVE",
"262 138 CURVE SMOOTH",
"246 144 OFFCURVE",
"243 155 OFFCURVE",
"246 168 CURVE SMOOTH",
"282 330 OFFCURVE",
"405 496 OFFCURVE",
"405 600 CURVE SMOOTH",
"405 660 OFFCURVE",
"369 674 OFFCURVE",
"314 674 CURVE SMOOTH",
"251 674 OFFCURVE",
"180 654 OFFCURVE",
"115 615 CURVE",
"132 584 OFFCURVE",
"135 553 OFFCURVE",
"135 526 CURVE SMOOTH",
"135 336 OFFCURVE",
"8 199 OFFCURVE",
"6 114 CURVE SMOOTH"
);
}
);
width = 539;
}
);
unicode = 004C;
},
{
glyphname = M;
lastChange = "2016-04-03 02:12:18 +0000";
layers = (
{
background = {
paths = (
{
closed = 1;
nodes = (
"-29 -33 OFFCURVE",
"-1 -67 OFFCURVE",
"58 -68 CURVE SMOOTH",
"112 -68 OFFCURVE",
"179 -42 OFFCURVE",
"213 -9 CURVE",
"209 7 OFFCURVE",
"207 24 OFFCURVE",
"208 45 CURVE SMOOTH",
"213 141 OFFCURVE",
"290 371 OFFCURVE",
"328 461 CURVE",
"263 449 LINE",
"299 76 LINE SMOOTH",
"305 9 OFFCURVE",
"339 -2 OFFCURVE",
"389 -3 CURVE SMOOTH",
"440 -4 OFFCURVE",
"503 6 OFFCURVE",
"556 31 CURVE",
"555 33 OFFCURVE",
"555 36 OFFCURVE",
"556 41 CURVE SMOOTH",
"557 71 OFFCURVE",
"583 161 OFFCURVE",
"819 472 CURVE",
"792 473 LINE",
"759 396 OFFCURVE",
"651 164 OFFCURVE",
"644 35 CURVE SMOOTH",
"640 -52 OFFCURVE",
"681 -79 OFFCURVE",
"739 -79 CURVE SMOOTH",
"794 -80 OFFCURVE",
"843 -56 OFFCURVE",
"895 -21 CURVE",
"891 -5 OFFCURVE",
"889 10 OFFCURVE",
"890 40 CURVE SMOOTH",
"900 223 OFFCURVE",
"1017 477 OFFCURVE",
"1022 582 CURVE SMOOTH",
"1026 651 OFFCURVE",
"983 665 OFFCURVE",
"878 668 CURVE SMOOTH",
"791 669 OFFCURVE",
"721 660 OFFCURVE",
"659 631 CURVE",
"665 623 OFFCURVE",
"667 609 OFFCURVE",
"667 599 CURVE SMOOTH",
"663 534 OFFCURVE",
"544 332 OFFCURVE",
"460 218 CURVE",
"510 193 LINE",
"480 523 LINE SMOOTH",
"468 649 OFFCURVE",
"450 674 OFFCURVE",
"357 677 CURVE SMOOTH",
"273 678 OFFCURVE",
"209 658 OFFCURVE",
"131 621 CURVE",
"146 590 OFFCURVE",
"148 560 OFFCURVE",
"146 530 CURVE SMOOTH",
"136 337 OFFCURVE",
"-17 185 OFFCURVE",
"-24 34 CURVE SMOOTH"
);
}
);
};
layerId = "BE599D47-15C2-4DC8-BE97-05FFE6CA3179";
paths = (
{
closed = 1;
nodes = (
"-29 2 OFFCURVE",
"-1 -31 OFFCURVE",
"58 -32 CURVE SMOOTH",
"112 -33 OFFCURVE",
"179 -6 OFFCURVE",
"213 26 CURVE",
"209 43 OFFCURVE",
"207 60 OFFCURVE",
"208 80 CURVE SMOOTH",
"213 178 OFFCURVE",
"290 413 OFFCURVE",
"328 504 CURVE",
"263 492 LINE",
"299 119 LINE SMOOTH",
"305 52 OFFCURVE",
"339 41 OFFCURVE",
"389 40 CURVE SMOOTH",
"440 39 OFFCURVE",
"503 49 OFFCURVE",
"556 74 CURVE",
"555 77 OFFCURVE",
"555 79 OFFCURVE",
"556 84 CURVE SMOOTH",
"557 114 OFFCURVE",
"583 204 OFFCURVE",
"819 516 CURVE",
"792 516 LINE",
"759 440 OFFCURVE",
"651 210 OFFCURVE",
"644 82 CURVE SMOOTH",
"640 -4 OFFCURVE",
"681 -31 OFFCURVE",
"739 -32 CURVE SMOOTH",
"794 -33 OFFCURVE",
"843 -8 OFFCURVE",
"895 26 CURVE",
"891 43 OFFCURVE",
"889 58 OFFCURVE",
"890 88 CURVE SMOOTH",
"900 271 OFFCURVE",
"1017 527 OFFCURVE",
"1022 632 CURVE SMOOTH",
"1026 700 OFFCURVE",
"983 715 OFFCURVE",
"878 717 CURVE SMOOTH",
"791 718 OFFCURVE",
"721 709 OFFCURVE",
"659 681 CURVE",
"665 672 OFFCURVE",
"667 658 OFFCURVE",
"667 649 CURVE SMOOTH",
"663 584 OFFCURVE",
"544 378 OFFCURVE",
"460 261 CURVE",
"510 236 LINE",
"480 564 LINE SMOOTH",
"468 690 OFFCURVE",
"450 715 OFFCURVE",
"357 717 CURVE SMOOTH",
"273 718 OFFCURVE",
"209 699 OFFCURVE",
"131 661 CURVE",
"146 631 OFFCURVE",
"148 600 OFFCURVE",
"146 570 CURVE SMOOTH",
"136 376 OFFCURVE",
"-17 222 OFFCURVE",
"-24 70 CURVE SMOOTH"
);
}
);
width = 956;
},
{
associatedMasterId = "BE599D47-15C2-4DC8-BE97-05FFE6CA3179";
background = {
paths = (
{
closed = 1;
nodes = (
"175 -75 OFFCURVE",
"226 -47 OFFCURVE",
"273 -14 CURVE",
"268 2 OFFCURVE",
"265 19 OFFCURVE",
"265 42 CURVE SMOOTH",
"265 235 OFFCURVE",
"445 482 OFFCURVE",
"438 606 CURVE SMOOTH",
"435 661 OFFCURVE",
"400 674 OFFCURVE",
"348 674 CURVE SMOOTH",
"284 674 OFFCURVE",
"208 654 OFFCURVE",
"141 615 CURVE",
"158 584 OFFCURVE",
"162 553 OFFCURVE",
"162 526 CURVE SMOOTH",
"162 327 OFFCURVE",
"22 185 OFFCURVE",
"20 22 CURVE SMOOTH",
"19 -41 OFFCURVE",
"63 -75 OFFCURVE",
"123 -75 CURVE SMOOTH"
);
},
{
closed = 1;
nodes = (
"548 -75 OFFCURVE",
"599 -47 OFFCURVE",
"646 -14 CURVE",
"641 2 OFFCURVE",
"638 19 OFFCURVE",
"638 42 CURVE SMOOTH",
"638 242 OFFCURVE",
"817 482 OFFCURVE",
"811 606 CURVE SMOOTH",
"808 661 OFFCURVE",
"773 674 OFFCURVE",
"720 674 CURVE SMOOTH",
"657 674 OFFCURVE",
"581 654 OFFCURVE",
"514 615 CURVE",
"531 584 OFFCURVE",
"534 553 OFFCURVE",
"534 526 CURVE SMOOTH",
"534 334 OFFCURVE",
"394 185 OFFCURVE",
"392 22 CURVE SMOOTH",
"392 -41 OFFCURVE",
"435 -75 OFFCURVE",
"495 -75 CURVE SMOOTH"
);
},
{
closed = 1;
nodes = (
"247 244 LINE",
"534 244 LINE",
"551 353 LINE",
"265 353 LINE"
);
}
);
};
layerId = "C7EBF0CD-920A-4D11-9742-411A01A64211";
name = "Regular Italic Mar 28 16, 20:41";
paths = (
{
closed = 1;
nodes = (
"175 -75 OFFCURVE",
"226 -47 OFFCURVE",
"273 -14 CURVE",
"268 2 OFFCURVE",
"265 19 OFFCURVE",
"265 42 CURVE SMOOTH",
"265 235 OFFCURVE",
"445 482 OFFCURVE",
"438 606 CURVE SMOOTH",
"435 661 OFFCURVE",
"400 674 OFFCURVE",
"348 674 CURVE SMOOTH",
"284 674 OFFCURVE",
"208 654 OFFCURVE",
"141 615 CURVE",
"158 584 OFFCURVE",
"162 553 OFFCURVE",
"162 526 CURVE SMOOTH",
"162 327 OFFCURVE",
"22 185 OFFCURVE",
"20 22 CURVE SMOOTH",
"19 -41 OFFCURVE",
"63 -75 OFFCURVE",
"123 -75 CURVE SMOOTH"
);
},
{
closed = 1;
nodes = (
"966 -75 OFFCURVE",
"1017 -47 OFFCURVE",
"1064 -14 CURVE",
"1059 2 OFFCURVE",
"1056 19 OFFCURVE",
"1056 42 CURVE SMOOTH",
"1056 242 OFFCURVE",
"1235 482 OFFCURVE",
"1229 606 CURVE SMOOTH",
"1226 661 OFFCURVE",
"1191 674 OFFCURVE",
"1139 674 CURVE SMOOTH",
"1075 674 OFFCURVE",
"999 654 OFFCURVE",
"932 615 CURVE",
"949 584 OFFCURVE",
"952 553 OFFCURVE",
"952 526 CURVE SMOOTH",
"952 334 OFFCURVE",
"812 185 OFFCURVE",
"810 22 CURVE SMOOTH",
"810 -41 OFFCURVE",
"854 -75 OFFCURVE",
"913 -75 CURVE SMOOTH"
);
},
{
closed = 1;
nodes = (
"808 654 OFFCURVE",
"778 542 OFFCURVE",
"762 501 CURVE SMOOTH",
"720 395 OFFCURVE",
"649 296 OFFCURVE",
"577 180 CURVE",
"574 180 LINE",
"573 191 OFFCURVE",
"573 201 OFFCURVE",
"573 212 CURVE SMOOTH",
"573 325 OFFCURVE",
"615 415 OFFCURVE",
"615 525 CURVE SMOOTH",
"615 615 OFFCURVE",
"594 663 OFFCURVE",
"517 663 CURVE SMOOTH",
"450 663 OFFCURVE",
"392 633 OFFCURVE",
"347 594 CURVE",
"369 554 OFFCURVE",
"376 507 OFFCURVE",
"376 452 CURVE SMOOTH",
"376 300 OFFCURVE",
"333 158 OFFCURVE",
"333 48 CURVE SMOOTH",
"333 -40 OFFCURVE",
"365 -70 OFFCURVE",
"435 -70 CURVE SMOOTH",
"534 -70 OFFCURVE",
"630 -59 OFFCURVE",
"702 -32 CURVE",
"674 19 OFFCURVE",
"788 167 OFFCURVE",
"850 267 CURVE SMOOTH",
"920 379 OFFCURVE",
"992 484 OFFCURVE",
"992 567 CURVE SMOOTH",
"992 642 OFFCURVE",
"940 663 OFFCURVE",
"807 679 CURVE"
);
}
);
width = 1143;
},
{
associatedMasterId = "BE599D47-15C2-4DC8-BE97-05FFE6CA3179";
background = {
paths = (
{
closed = 1;
nodes = (
"175 -75 OFFCURVE",
"226 -47 OFFCURVE",
"273 -14 CURVE",
"268 2 OFFCURVE",
"265 19 OFFCURVE",
"265 42 CURVE SMOOTH",
"265 235 OFFCURVE",
"445 482 OFFCURVE",
"438 606 CURVE SMOOTH",
"435 661 OFFCURVE",
"400 674 OFFCURVE",
"348 674 CURVE SMOOTH",
"284 674 OFFCURVE",
"208 654 OFFCURVE",
"141 615 CURVE",
"158 584 OFFCURVE",
"162 553 OFFCURVE",
"162 526 CURVE SMOOTH",
"162 327 OFFCURVE",
"22 185 OFFCURVE",
"20 22 CURVE SMOOTH",
"19 -41 OFFCURVE",
"63 -75 OFFCURVE",
"123 -75 CURVE SMOOTH"
);
},
{
closed = 1;
nodes = (
"548 -75 OFFCURVE",
"599 -47 OFFCURVE",
"646 -14 CURVE",
"641 2 OFFCURVE",
"638 19 OFFCURVE",
"638 42 CURVE SMOOTH",
"638 242 OFFCURVE",
"817 482 OFFCURVE",
"811 606 CURVE SMOOTH",
"808 661 OFFCURVE",
"773 674 OFFCURVE",
"720 674 CURVE SMOOTH",
"657 674 OFFCURVE",
"581 654 OFFCURVE",
"514 615 CURVE",
"531 584 OFFCURVE",
"534 553 OFFCURVE",
"534 526 CURVE SMOOTH",
"534 334 OFFCURVE",
"394 185 OFFCURVE",
"392 22 CURVE SMOOTH",
"392 -41 OFFCURVE",
"435 -75 OFFCURVE",
"495 -75 CURVE SMOOTH"
);
},
{
closed = 1;
nodes = (
"247 244 LINE",
"534 244 LINE",
"551 353 LINE",
"265 353 LINE"
);
}
);
};
layerId = "A28237D4-9A91-4B54-A39A-A9BB7E4F2330";
name = "Regular Italic Mar 28 16, 20:43";
paths = (
{
closed = 1;
nodes = (
"159 -75 OFFCURVE",
"222 -47 OFFCURVE",
"252 -14 CURVE",
"247 2 OFFCURVE",
"245 19 OFFCURVE",
"245 42 CURVE SMOOTH",
"245 235 OFFCURVE",
"417 482 OFFCURVE",
"417 606 CURVE SMOOTH",
"417 661 OFFCURVE",
"382 674 OFFCURVE",
"334 674 CURVE SMOOTH",
"270 674 OFFCURVE",
"204 654 OFFCURVE",
"141 615 CURVE",
"158 584 OFFCURVE",
"162 553 OFFCURVE",
"162 526 CURVE SMOOTH",
"162 327 OFFCURVE",
"22 185 OFFCURVE",
"20 22 CURVE SMOOTH",
"19 -41 OFFCURVE",
"49 -75 OFFCURVE",
"109 -75 CURVE SMOOTH"
);
},
{
closed = 1;
nodes = (
"910 -75 OFFCURVE",
"962 -47 OFFCURVE",
"1008 -14 CURVE",
"1003 2 OFFCURVE",
"1001 19 OFFCURVE",
"1001 42 CURVE SMOOTH",
"1001 242 OFFCURVE",
"1180 482 OFFCURVE",
"1173 606 CURVE SMOOTH",
"1171 661 OFFCURVE",
"1135 674 OFFCURVE",
"1083 674 CURVE SMOOTH",
"1019 674 OFFCURVE",
"943 654 OFFCURVE",
"877 615 CURVE",
"893 584 OFFCURVE",
"897 553 OFFCURVE",
"897 526 CURVE SMOOTH",
"897 334 OFFCURVE",
"757 185 OFFCURVE",
"755 22 CURVE SMOOTH",
"754 -41 OFFCURVE",
"798 -75 OFFCURVE",
"858 -75 CURVE SMOOTH"
);
},
{
closed = 1;
nodes = (
"776 654 OFFCURVE",
"746 542 OFFCURVE",
"730 501 CURVE SMOOTH",
"688 395 OFFCURVE",
"619 296 OFFCURVE",
"550 180 CURVE",
"547 180 LINE",
"546 191 OFFCURVE",
"546 201 OFFCURVE",
"546 212 CURVE SMOOTH",
"546 325 OFFCURVE",
"586 415 OFFCURVE",
"586 525 CURVE SMOOTH",
"586 615 OFFCURVE",
"566 663 OFFCURVE",
"491 663 CURVE SMOOTH",
"426 663 OFFCURVE",
"369 633 OFFCURVE",
"325 594 CURVE",
"347 554 OFFCURVE",
"353 507 OFFCURVE",
"353 452 CURVE SMOOTH",
"353 300 OFFCURVE",
"311 158 OFFCURVE",
"311 48 CURVE SMOOTH",
"311 -40 OFFCURVE",
"343 -70 OFFCURVE",
"411 -70 CURVE SMOOTH",
"500 -70 OFFCURVE",
"586 -59 OFFCURVE",
"651 -32 CURVE",
"644 19 OFFCURVE",
"735 167 OFFCURVE",
"796 267 CURVE SMOOTH",
"863 379 OFFCURVE",
"934 484 OFFCURVE",
"934 567 CURVE SMOOTH",
"934 642 OFFCURVE",
"889 663 OFFCURVE",
"774 679 CURVE"
);
}
);
width = 1087;
},
{
associatedMasterId = "BE599D47-15C2-4DC8-BE97-05FFE6CA3179";
background = {
paths = (
{
closed = 1;
nodes = (
"159 -75 OFFCURVE",
"222 -47 OFFCURVE",
"252 -14 CURVE",
"247 2 OFFCURVE",
"245 19 OFFCURVE",
"245 42 CURVE SMOOTH",
"245 235 OFFCURVE",
"417 482 OFFCURVE",
"417 606 CURVE SMOOTH",
"417 661 OFFCURVE",
"382 674 OFFCURVE",
"334 674 CURVE SMOOTH",
"270 674 OFFCURVE",
"204 654 OFFCURVE",
"141 615 CURVE",
"158 584 OFFCURVE",
"162 553 OFFCURVE",
"162 526 CURVE SMOOTH",
"162 327 OFFCURVE",
"22 185 OFFCURVE",
"20 22 CURVE SMOOTH",
"19 -41 OFFCURVE",
"49 -75 OFFCURVE",
"109 -75 CURVE SMOOTH"
);
},
{
closed = 1;
nodes = (
"910 -75 OFFCURVE",
"962 -47 OFFCURVE",
"1008 -14 CURVE",
"1003 2 OFFCURVE",
"1001 19 OFFCURVE",
"1001 42 CURVE SMOOTH",
"1001 242 OFFCURVE",
"1180 482 OFFCURVE",
"1173 606 CURVE SMOOTH",
"1171 661 OFFCURVE",
"1135 674 OFFCURVE",
"1083 674 CURVE SMOOTH",
"1019 674 OFFCURVE",
"943 654 OFFCURVE",
"877 615 CURVE",
"893 584 OFFCURVE",
"897 553 OFFCURVE",
"897 526 CURVE SMOOTH",
"897 334 OFFCURVE",
"757 185 OFFCURVE",
"755 22 CURVE SMOOTH",
"754 -41 OFFCURVE",
"798 -75 OFFCURVE",
"858 -75 CURVE SMOOTH"
);
},
{
closed = 1;
nodes = (
"776 654 OFFCURVE",
"746 542 OFFCURVE",
"730 501 CURVE SMOOTH",
"688 395 OFFCURVE",
"619 296 OFFCURVE",
"550 180 CURVE",
"547 180 LINE",
"546 191 OFFCURVE",
"546 201 OFFCURVE",
"546 212 CURVE SMOOTH",
"546 325 OFFCURVE",
"586 415 OFFCURVE",
"586 525 CURVE SMOOTH",
"586 615 OFFCURVE",
"566 663 OFFCURVE",
"491 663 CURVE SMOOTH",
"426 663 OFFCURVE",
"369 633 OFFCURVE",
"325 594 CURVE",
"347 554 OFFCURVE",
"353 507 OFFCURVE",
"353 452 CURVE SMOOTH",
"353 300 OFFCURVE",
"311 158 OFFCURVE",
"311 48 CURVE SMOOTH",
"311 -40 OFFCURVE",
"343 -70 OFFCURVE",
"411 -70 CURVE SMOOTH",
"500 -70 OFFCURVE",
"586 -59 OFFCURVE",
"651 -32 CURVE",
"644 19 OFFCURVE",
"735 167 OFFCURVE",
"796 267 CURVE SMOOTH",
"863 379 OFFCURVE",
"934 484 OFFCURVE",
"934 567 CURVE SMOOTH",
"934 642 OFFCURVE",
"889 663 OFFCURVE",
"774 679 CURVE"
);
}
);
};
layerId = "64356029-7413-45D4-94AB-25E993607381";
name = "Regular Italic Mar 28 16, 20:46";
paths = (
{
closed = 1;
nodes = (
"159 -75 OFFCURVE",
"222 -47 OFFCURVE",
"252 -14 CURVE",
"247 2 OFFCURVE",
"245 19 OFFCURVE",
"245 42 CURVE SMOOTH",
"245 235 OFFCURVE",
"417 482 OFFCURVE",
"417 606 CURVE SMOOTH",
"417 661 OFFCURVE",
"382 674 OFFCURVE",
"334 674 CURVE SMOOTH",
"270 674 OFFCURVE",
"204 654 OFFCURVE",
"141 615 CURVE",
"158 584 OFFCURVE",
"162 553 OFFCURVE",
"162 526 CURVE SMOOTH",
"162 327 OFFCURVE",
"22 185 OFFCURVE",
"20 22 CURVE SMOOTH",
"19 -41 OFFCURVE",
"49 -75 OFFCURVE",
"109 -75 CURVE SMOOTH"
);
},
{
closed = 1;
nodes = (
"840 -75 OFFCURVE",
"892 -47 OFFCURVE",
"939 -14 CURVE",
"934 2 OFFCURVE",
"931 19 OFFCURVE",
"931 42 CURVE SMOOTH",
"931 242 OFFCURVE",
"1110 482 OFFCURVE",
"1104 606 CURVE SMOOTH",
"1101 661 OFFCURVE",
"1065 674 OFFCURVE",
"1013 674 CURVE SMOOTH",
"950 674 OFFCURVE",
"766 678 OFFCURVE",
"700 638 CURVE",
"716 608 OFFCURVE",
"827 553 OFFCURVE",
"827 526 CURVE SMOOTH",
"827 334 OFFCURVE",
"687 185 OFFCURVE",
"685 22 CURVE SMOOTH",
"684 -41 OFFCURVE",
"728 -75 OFFCURVE",
"788 -75 CURVE SMOOTH"
);
},
{
closed = 1;
nodes = (
"702 612 OFFCURVE",
"678 548 OFFCURVE",
"664 507 CURVE SMOOTH",
"629 401 OFFCURVE",
"573 295 OFFCURVE",
"530 176 CURVE",
"527 176 LINE",
"525 187 OFFCURVE",
"524 197 OFFCURVE",
"523 208 CURVE SMOOTH",
"516 321 OFFCURVE",
"553 412 OFFCURVE",
"548 523 CURVE SMOOTH",
"543 612 OFFCURVE",
"520 650 OFFCURVE",
"445 656 CURVE SMOOTH",
"380 661 OFFCURVE",
"358 661 OFFCURVE",
"288 658 CURVE",
"312 619 OFFCURVE",
"316 493 OFFCURVE",
"318 438 CURVE SMOOTH",
"325 295 OFFCURVE",
"304 169 OFFCURVE",
"310 67 CURVE SMOOTH",
"315 -21 OFFCURVE",
"341 -43 OFFCURVE",
"409 -38 CURVE SMOOTH",
"493 -33 OFFCURVE",
"560 -40 OFFCURVE",
"619 -10 CURVE",
"622 80 OFFCURVE",
"865 481 OFFCURVE",
"865 583 CURVE SMOOTH",
"865 658 OFFCURVE",
"871 628 OFFCURVE",
"700 638 CURVE"
);
}
);
width = 1087;
},
{
associatedMasterId = "BE599D47-15C2-4DC8-BE97-05FFE6CA3179";
background = {
paths = (
{
closed = 1;
nodes = (
"19 -41 OFFCURVE",
"49 -75 OFFCURVE",
"109 -75 CURVE SMOOTH",
"159 -75 OFFCURVE",
"222 -47 OFFCURVE",
"252 -14 CURVE",
"247 2 OFFCURVE",
"245 19 OFFCURVE",
"245 42 CURVE SMOOTH",
"245 129 OFFCURVE",
"280 228 OFFCURVE",
"319 321 CURVE",
"316 226 OFFCURVE",
"306 140 OFFCURVE",
"310 67 CURVE SMOOTH",
"315 -21 OFFCURVE",
"341 -43 OFFCURVE",
"409 -38 CURVE SMOOTH",
"493 -33 OFFCURVE",
"560 -40 OFFCURVE",
"619 -10 CURVE",
"621 54 OFFCURVE",
"747 279 OFFCURVE",
"818 439 CURVE",
"786 287 OFFCURVE",
"687 160 OFFCURVE",
"685 22 CURVE SMOOTH",
"684 -41 OFFCURVE",
"728 -75 OFFCURVE",
"788 -75 CURVE SMOOTH",
"840 -75 OFFCURVE",
"892 -47 OFFCURVE",
"939 -14 CURVE",
"934 2 OFFCURVE",
"931 19 OFFCURVE",
"931 42 CURVE SMOOTH",
"931 242 OFFCURVE",
"1110 482 OFFCURVE",
"1104 606 CURVE SMOOTH",
"1101 661 OFFCURVE",
"1065 674 OFFCURVE",
"1013 674 CURVE SMOOTH",
"950 674 OFFCURVE",
"766 678 OFFCURVE",
"700 638 CURVE",
"702 612 OFFCURVE",
"678 548 OFFCURVE",
"664 507 CURVE SMOOTH",
"629 401 OFFCURVE",
"573 295 OFFCURVE",
"530 176 CURVE",
"527 176 LINE",
"525 187 OFFCURVE",
"524 197 OFFCURVE",
"523 208 CURVE SMOOTH",
"516 321 OFFCURVE",
"553 412 OFFCURVE",
"548 523 CURVE SMOOTH",
"542 639 OFFCURVE",
"479 674 OFFCURVE",
"334 674 CURVE SMOOTH",
"270 674 OFFCURVE",
"204 654 OFFCURVE",
"141 615 CURVE",
"158 584 OFFCURVE",
"162 553 OFFCURVE",
"162 526 CURVE SMOOTH",
"162 327 OFFCURVE",
"22 185 OFFCURVE",
"20 22 CURVE SMOOTH"
);
}
);
};
layerId = "BF9CDBD3-583E-4400-8F56-8965FFEFAE31";
name = "Regular Italic Mar 28 16, 20:51";
paths = (
{
closed = 1;
nodes = (
"19 -41 OFFCURVE",
"49 -75 OFFCURVE",
"109 -75 CURVE SMOOTH",
"154 -75 OFFCURVE",
"210 -47 OFFCURVE",
"238 -14 CURVE",
"233 2 OFFCURVE",
"231 19 OFFCURVE",
"231 42 CURVE SMOOTH",
"231 135 OFFCURVE",
"307 368 OFFCURVE",
"347 458 CURVE",
"320 458 LINE",
"316 360 OFFCURVE",
"313 173 OFFCURVE",
"317 93 CURVE SMOOTH",
"324 -31 OFFCURVE",
"433 -34 OFFCURVE",
"594 3 CURVE",
"584 66 OFFCURVE",
"750 369 OFFCURVE",
"838 478 CURVE",
"810 478 LINE",
"748 330 OFFCURVE",
"673 167 OFFCURVE",
"671 22 CURVE SMOOTH",
"670 -41 OFFCURVE",
"714 -75 OFFCURVE",
"774 -75 CURVE SMOOTH",
"826 -75 OFFCURVE",
"878 -47 OFFCURVE",
"925 -14 CURVE",
"920 2 OFFCURVE",
"917 19 OFFCURVE",
"917 42 CURVE SMOOTH",
"917 242 OFFCURVE",
"1096 482 OFFCURVE",
"1090 606 CURVE SMOOTH",
"1085 661 OFFCURVE",
"1019 674 OFFCURVE",
"923 674 CURVE SMOOTH",
"875 674 OFFCURVE",
"739 678 OFFCURVE",
"688 638 CURVE",
"691 548 OFFCURVE",
"584 317 OFFCURVE",
"496 185 CURVE",
"538 185 LINE",
"537 295 OFFCURVE",
"530 413 OFFCURVE",
"518 523 CURVE SMOOTH",
"507 639 OFFCURVE",
"479 674 OFFCURVE",
"369 674 CURVE SMOOTH",
"280 674 OFFCURVE",
"213 654 OFFCURVE",
"141 615 CURVE",
"158 584 OFFCURVE",
"162 553 OFFCURVE",
"162 526 CURVE SMOOTH",
"162 327 OFFCURVE",
"22 185 OFFCURVE",
"20 22 CURVE SMOOTH"
);
}
);
width = 1003;
},
{
associatedMasterId = "BE599D47-15C2-4DC8-BE97-05FFE6CA3179";
background = {
paths = (
{
closed = 1;
nodes = (
"19 -41 OFFCURVE",
"49 -75 OFFCURVE",
"109 -75 CURVE SMOOTH",
"159 -75 OFFCURVE",
"222 -47 OFFCURVE",
"252 -14 CURVE",
"247 2 OFFCURVE",
"245 19 OFFCURVE",
"245 42 CURVE SMOOTH",
"245 129 OFFCURVE",
"280 228 OFFCURVE",
"319 321 CURVE",
"316 226 OFFCURVE",
"306 140 OFFCURVE",
"310 67 CURVE SMOOTH",
"315 -21 OFFCURVE",
"341 -43 OFFCURVE",
"409 -38 CURVE SMOOTH",
"493 -33 OFFCURVE",
"560 -40 OFFCURVE",
"619 -10 CURVE",
"621 54 OFFCURVE",
"747 279 OFFCURVE",
"818 439 CURVE",
"786 287 OFFCURVE",
"687 160 OFFCURVE",
"685 22 CURVE SMOOTH",
"684 -41 OFFCURVE",
"728 -75 OFFCURVE",
"788 -75 CURVE SMOOTH",
"840 -75 OFFCURVE",
"892 -47 OFFCURVE",
"939 -14 CURVE",
"934 2 OFFCURVE",
"931 19 OFFCURVE",
"931 42 CURVE SMOOTH",
"931 242 OFFCURVE",
"1110 482 OFFCURVE",
"1104 606 CURVE SMOOTH",
"1101 661 OFFCURVE",
"1065 674 OFFCURVE",
"1013 674 CURVE SMOOTH",
"950 674 OFFCURVE",
"766 678 OFFCURVE",
"700 638 CURVE",
"702 612 OFFCURVE",
"678 548 OFFCURVE",
"664 507 CURVE SMOOTH",
"629 401 OFFCURVE",
"573 295 OFFCURVE",
"530 176 CURVE",
"527 176 LINE",
"525 187 OFFCURVE",
"524 197 OFFCURVE",
"523 208 CURVE SMOOTH",
"516 321 OFFCURVE",
"553 412 OFFCURVE",
"548 523 CURVE SMOOTH",
"542 639 OFFCURVE",
"479 674 OFFCURVE",
"334 674 CURVE SMOOTH",
"270 674 OFFCURVE",
"204 654 OFFCURVE",
"141 615 CURVE",
"158 584 OFFCURVE",
"162 553 OFFCURVE",
"162 526 CURVE SMOOTH",
"162 327 OFFCURVE",
"22 185 OFFCURVE",
"20 22 CURVE SMOOTH"
);
}
);
};
layerId = "2B18E96C-CCB0-49CC-889D-DFCCD9933577";
name = "Regular Italic Mar 28 16, 20:54";
paths = (
{
closed = 1;
nodes = (
"20 -42 OFFCURVE",
"49 -75 OFFCURVE",
"109 -75 CURVE SMOOTH",
"161 -75 OFFCURVE",
"227 -47 OFFCURVE",
"259 -14 CURVE",
"254 2 OFFCURVE",
"252 19 OFFCURVE",
"252 42 CURVE SMOOTH",
"252 135 OFFCURVE",
"314 368 OFFCURVE",
"347 458 CURVE",
"297 445 LINE",
"328 114 LINE SMOOTH",
"333 37 OFFCURVE",
"378 3 OFFCURVE",
"456 3 CURVE SMOOTH",
"497 3 OFFCURVE",
"546 11 OFFCURVE",
"601 24 CURVE",
"592 87 OFFCURVE",
"753 374 OFFCURVE",
"838 478 CURVE",
"810 478 LINE",
"750 329 OFFCURVE",
"678 164 OFFCURVE",
"678 21 CURVE SMOOTH",
"678 -42 OFFCURVE",
"722 -75 OFFCURVE",
"781 -75 CURVE SMOOTH",
"833 -75 OFFCURVE",
"885 -47 OFFCURVE",
"932 -14 CURVE",
"927 2 OFFCURVE",
"924 19 OFFCURVE",
"924 42 CURVE SMOOTH",
"924 238 OFFCURVE",
"1062 474 OFFCURVE",
"1062 600 CURVE SMOOTH",
"1062 660 OFFCURVE",
"1005 674 OFFCURVE",
"923 674 CURVE SMOOTH",
"810 674 OFFCURVE",
"743 663 OFFCURVE",
"674 631 CURVE",
"700 593 OFFCURVE",
"577 349 OFFCURVE",
"491 217 CURVE",
"529 186 LINE",
"528 295 OFFCURVE",
"517 413 OFFCURVE",
"511 523 CURVE SMOOTH",
"500 639 OFFCURVE",
"472 674 OFFCURVE",
"362 674 CURVE SMOOTH",
"273 674 OFFCURVE",
"213 654 OFFCURVE",
"141 615 CURVE",
"158 584 OFFCURVE",
"162 553 OFFCURVE",
"162 526 CURVE SMOOTH",
"162 326 OFFCURVE",
"20 183 OFFCURVE",
"20 20 CURVE SMOOTH"
);
}
);
width = 1003;
},
{
associatedMasterId = "BE599D47-15C2-4DC8-BE97-05FFE6CA3179";
background = {
paths = (
{
closed = 1;
nodes = (
"20 -42 OFFCURVE",
"49 -75 OFFCURVE",
"109 -75 CURVE SMOOTH",
"161 -75 OFFCURVE",
"227 -47 OFFCURVE",
"259 -14 CURVE",
"254 2 OFFCURVE",
"252 19 OFFCURVE",
"252 42 CURVE SMOOTH",
"252 135 OFFCURVE",
"314 368 OFFCURVE",
"347 458 CURVE",
"297 445 LINE",
"328 114 LINE SMOOTH",
"333 37 OFFCURVE",
"378 3 OFFCURVE",
"456 3 CURVE SMOOTH",
"497 3 OFFCURVE",
"546 11 OFFCURVE",
"601 24 CURVE",
"592 87 OFFCURVE",
"753 374 OFFCURVE",
"838 478 CURVE",
"810 478 LINE",
"750 329 OFFCURVE",
"678 164 OFFCURVE",
"678 21 CURVE SMOOTH",
"678 -42 OFFCURVE",
"722 -75 OFFCURVE",
"781 -75 CURVE SMOOTH",
"833 -75 OFFCURVE",
"885 -47 OFFCURVE",
"932 -14 CURVE",
"927 2 OFFCURVE",
"924 19 OFFCURVE",
"924 42 CURVE SMOOTH",
"924 238 OFFCURVE",
"1062 474 OFFCURVE",
"1062 600 CURVE SMOOTH",
"1062 660 OFFCURVE",
"1005 674 OFFCURVE",
"923 674 CURVE SMOOTH",
"810 674 OFFCURVE",
"743 663 OFFCURVE",
"674 631 CURVE",
"700 593 OFFCURVE",
"577 349 OFFCURVE",
"491 217 CURVE",
"529 186 LINE",
"528 295 OFFCURVE",
"517 413 OFFCURVE",
"511 523 CURVE SMOOTH",
"500 639 OFFCURVE",
"472 674 OFFCURVE",
"362 674 CURVE SMOOTH",
"273 674 OFFCURVE",
"213 654 OFFCURVE",
"141 615 CURVE",
"158 584 OFFCURVE",
"162 553 OFFCURVE",
"162 526 CURVE SMOOTH",
"162 326 OFFCURVE",
"20 183 OFFCURVE",
"20 20 CURVE SMOOTH"
);
}
);
};
layerId = "FB05D59A-F259-440E-AC2C-E0BCFAECF65D";
name = "Regular Italic Mar 28 16, 20:59";
paths = (
{
closed = 1;
nodes = (
"17 -43 OFFCURVE",
"45 -75 OFFCURVE",
"105 -75 CURVE SMOOTH",
"159 -75 OFFCURVE",
"224 -47 OFFCURVE",
"256 -14 CURVE",
"252 2 OFFCURVE",
"249 20 OFFCURVE",
"249 40 CURVE SMOOTH",
"249 136 OFFCURVE",
"314 368 OFFCURVE",
"347 458 CURVE",
"283 445 LINE",
"338 72 LINE SMOOTH",
"348 6 OFFCURVE",
"381 -5 OFFCURVE",
"433 -5 CURVE SMOOTH",
"484 -5 OFFCURVE",
"546 6 OFFCURVE",
"597 31 CURVE",
"596 36 OFFCURVE",
"597 53 OFFCURVE",
"601 72 CURVE SMOOTH",
"610 107 OFFCURVE",
"644 200 OFFCURVE",
"838 478 CURVE",
"810 478 LINE",
"780 401 OFFCURVE",
"685 167 OFFCURVE",
"685 38 CURVE SMOOTH",
"685 -49 OFFCURVE",
"728 -75 OFFCURVE",
"785 -75 CURVE SMOOTH",
"841 -75 OFFCURVE",
"888 -49 OFFCURVE",
"939 -14 CURVE",
"934 2 OFFCURVE",
"931 17 OFFCURVE",
"931 47 CURVE SMOOTH",
"931 230 OFFCURVE",
"1034 486 OFFCURVE",
"1034 592 CURVE SMOOTH",
"1034 660 OFFCURVE",
"991 674 OFFCURVE",
"886 674 CURVE SMOOTH",
"798 674 OFFCURVE",
"730 664 OFFCURVE",
"669 634 CURVE",
"675 626 OFFCURVE",
"678 612 OFFCURVE",
"678 602 CURVE SMOOTH",
"678 537 OFFCURVE",
"569 333 OFFCURVE",
"491 217 CURVE",
"543 193 LINE",
"498 523 LINE SMOOTH",
"481 648 OFFCURVE",
"461 674 OFFCURVE",
"366 674 CURVE SMOOTH",
"284 674 OFFCURVE",
"217 654 OFFCURVE",
"141 615 CURVE",
"158 584 OFFCURVE",
"162 553 OFFCURVE",
"162 523 CURVE SMOOTH",
"162 331 OFFCURVE",
"17 176 OFFCURVE",
"17 25 CURVE SMOOTH"
);
}
);
width = 1003;
},
{
associatedMasterId = "BE599D47-15C2-4DC8-BE97-05FFE6CA3179";
background = {
paths = (
{
closed = 1;
nodes = (
"17 -43 OFFCURVE",
"45 -75 OFFCURVE",
"105 -75 CURVE SMOOTH",
"159 -75 OFFCURVE",
"224 -47 OFFCURVE",
"256 -14 CURVE",
"252 2 OFFCURVE",
"249 20 OFFCURVE",
"249 40 CURVE SMOOTH",
"249 136 OFFCURVE",
"314 368 OFFCURVE",
"347 458 CURVE",
"283 445 LINE",
"338 72 LINE SMOOTH",
"348 6 OFFCURVE",
"381 -5 OFFCURVE",
"433 -5 CURVE SMOOTH",
"484 -5 OFFCURVE",
"546 6 OFFCURVE",
"597 31 CURVE",
"596 36 OFFCURVE",
"597 53 OFFCURVE",
"601 72 CURVE SMOOTH",
"610 107 OFFCURVE",
"644 200 OFFCURVE",
"838 478 CURVE",
"810 478 LINE",
"780 401 OFFCURVE",
"685 167 OFFCURVE",
"685 38 CURVE SMOOTH",
"685 -49 OFFCURVE",
"728 -75 OFFCURVE",
"785 -75 CURVE SMOOTH",
"841 -75 OFFCURVE",
"888 -49 OFFCURVE",
"939 -14 CURVE",
"934 2 OFFCURVE",
"931 17 OFFCURVE",
"931 47 CURVE SMOOTH",
"931 230 OFFCURVE",
"1034 486 OFFCURVE",
"1034 592 CURVE SMOOTH",
"1034 660 OFFCURVE",
"991 674 OFFCURVE",
"886 674 CURVE SMOOTH",
"798 674 OFFCURVE",
"730 664 OFFCURVE",
"669 634 CURVE",
"675 626 OFFCURVE",
"678 612 OFFCURVE",
"678 602 CURVE SMOOTH",
"678 537 OFFCURVE",
"569 333 OFFCURVE",
"491 217 CURVE",
"543 193 LINE",
"495 523 LINE SMOOTH",
"477 649 OFFCURVE",
"458 674 OFFCURVE",
"364 674 CURVE SMOOTH",
"281 674 OFFCURVE",
"217 654 OFFCURVE",
"141 615 CURVE",
"158 584 OFFCURVE",
"162 553 OFFCURVE",
"162 523 CURVE SMOOTH",
"162 331 OFFCURVE",
"17 176 OFFCURVE",
"17 25 CURVE SMOOTH"
);
}
);
};
layerId = "E488F9AB-FFEF-4535-AFDD-DAF0A5F4901E";
name = "Regular Italic Mar 28 16, 21:01";
paths = (
{
closed = 1;
nodes = (
"17 -43 OFFCURVE",
"45 -75 OFFCURVE",
"105 -75 CURVE SMOOTH",
"159 -75 OFFCURVE",
"224 -47 OFFCURVE",
"256 -14 CURVE",
"252 2 OFFCURVE",
"249 20 OFFCURVE",
"249 40 CURVE SMOOTH",
"249 136 OFFCURVE",
"314 368 OFFCURVE",
"347 458 CURVE",
"283 445 LINE",
"338 72 LINE SMOOTH",
"348 6 OFFCURVE",
"383 -5 OFFCURVE",
"433 -5 CURVE SMOOTH",
"484 -5 OFFCURVE",
"546 6 OFFCURVE",
"597 31 CURVE",
"596 34 OFFCURVE",
"596 37 OFFCURVE",
"596 42 CURVE SMOOTH",
"596 72 OFFCURVE",
"617 162 OFFCURVE",
"838 478 CURVE",
"810 478 LINE",
"780 401 OFFCURVE",
"685 167 OFFCURVE",
"685 38 CURVE SMOOTH",
"685 -49 OFFCURVE",
"728 -75 OFFCURVE",
"785 -75 CURVE SMOOTH",
"841 -75 OFFCURVE",
"888 -49 OFFCURVE",
"939 -14 CURVE",
"934 2 OFFCURVE",
"931 17 OFFCURVE",
"931 47 CURVE SMOOTH",
"931 230 OFFCURVE",
"1034 486 OFFCURVE",
"1034 592 CURVE SMOOTH",
"1034 660 OFFCURVE",
"991 674 OFFCURVE",
"886 674 CURVE SMOOTH",
"798 674 OFFCURVE",
"730 664 OFFCURVE",
"669 634 CURVE",
"675 626 OFFCURVE",
"678 612 OFFCURVE",
"678 602 CURVE SMOOTH",
"678 537 OFFCURVE",
"569 333 OFFCURVE",
"491 217 CURVE",
"543 193 LINE",
"495 523 LINE SMOOTH",
"477 649 OFFCURVE",
"458 674 OFFCURVE",
"364 674 CURVE SMOOTH",
"281 674 OFFCURVE",
"217 654 OFFCURVE",
"141 615 CURVE",
"158 584 OFFCURVE",
"162 553 OFFCURVE",
"162 523 CURVE SMOOTH",
"162 331 OFFCURVE",
"17 176 OFFCURVE",
"17 25 CURVE SMOOTH"
);
}
);
width = 1003;
},
{
associatedMasterId = "BE599D47-15C2-4DC8-BE97-05FFE6CA3179";
background = {
paths = (
{
closed = 1;
nodes = (
"17 -43 OFFCURVE",
"45 -75 OFFCURVE",
"105 -75 CURVE SMOOTH",
"159 -75 OFFCURVE",
"224 -47 OFFCURVE",
"256 -14 CURVE",
"252 2 OFFCURVE",
"249 20 OFFCURVE",
"249 40 CURVE SMOOTH",
"249 136 OFFCURVE",
"314 368 OFFCURVE",
"347 458 CURVE",
"283 445 LINE",
"338 72 LINE SMOOTH",
"348 6 OFFCURVE",
"381 -5 OFFCURVE",
"433 -5 CURVE SMOOTH",
"484 -5 OFFCURVE",
"546 6 OFFCURVE",
"597 31 CURVE",
"596 36 OFFCURVE",
"597 53 OFFCURVE",
"601 72 CURVE SMOOTH",
"610 107 OFFCURVE",
"644 200 OFFCURVE",
"838 478 CURVE",
"810 478 LINE",
"780 401 OFFCURVE",
"685 167 OFFCURVE",
"685 38 CURVE SMOOTH",
"685 -49 OFFCURVE",
"728 -75 OFFCURVE",
"785 -75 CURVE SMOOTH",
"841 -75 OFFCURVE",
"888 -49 OFFCURVE",
"939 -14 CURVE",
"934 2 OFFCURVE",
"931 17 OFFCURVE",
"931 47 CURVE SMOOTH",
"931 230 OFFCURVE",
"1034 486 OFFCURVE",
"1034 592 CURVE SMOOTH",
"1034 660 OFFCURVE",
"991 674 OFFCURVE",
"886 674 CURVE SMOOTH",
"798 674 OFFCURVE",
"730 664 OFFCURVE",
"669 634 CURVE",
"675 626 OFFCURVE",
"678 612 OFFCURVE",
"678 602 CURVE SMOOTH",
"678 537 OFFCURVE",
"569 333 OFFCURVE",
"491 217 CURVE",
"543 193 LINE",
"495 523 LINE SMOOTH",
"477 649 OFFCURVE",
"458 674 OFFCURVE",
"364 674 CURVE SMOOTH",
"281 674 OFFCURVE",
"217 654 OFFCURVE",
"141 615 CURVE",
"158 584 OFFCURVE",
"162 553 OFFCURVE",
"162 523 CURVE SMOOTH",
"162 331 OFFCURVE",
"17 176 OFFCURVE",
"17 25 CURVE SMOOTH"
);
}
);
};
layerId = "B9E369AF-D2A9-4ACE-B875-06C54A543747";
name = "Regular Italic Mar 28 16, 21:02";
paths = (
{
closed = 1;
nodes = (
"10 -43 OFFCURVE",
"39 -75 OFFCURVE",
"98 -75 CURVE SMOOTH",
"153 -75 OFFCURVE",
"218 -47 OFFCURVE",
"251 -14 CURVE",
"247 2 OFFCURVE",
"244 20 OFFCURVE",
"244 40 CURVE SMOOTH",
"246 136 OFFCURVE",
"315 368 OFFCURVE",
"350 458 CURVE",
"286 445 LINE",
"334 72 LINE SMOOTH",
"343 6 OFFCURVE",
"377 -5 OFFCURVE",
"427 -5 CURVE SMOOTH",
"478 -5 OFFCURVE",
"541 6 OFFCURVE",
"592 31 CURVE",
"592 34 OFFCURVE",
"592 37 OFFCURVE",
"592 42 CURVE SMOOTH",
"592 72 OFFCURVE",
"615 162 OFFCURVE",
"840 478 CURVE",
"812 478 LINE",
"782 401 OFFCURVE",
"683 167 OFFCURVE",
"680 38 CURVE SMOOTH",
"679 -49 OFFCURVE",
"722 -75 OFFCURVE",
"779 -75 CURVE SMOOTH",
"835 -75 OFFCURVE",
"882 -49 OFFCURVE",
"933 -14 CURVE",
"929 2 OFFCURVE",
"926 17 OFFCURVE",
"927 47 CURVE SMOOTH",
"929 230 OFFCURVE",
"1037 486 OFFCURVE",
"1039 592 CURVE SMOOTH",
"1040 660 OFFCURVE",
"997 674 OFFCURVE",
"892 674 CURVE SMOOTH",
"805 674 OFFCURVE",
"736 664 OFFCURVE",
"674 634 CURVE",
"681 626 OFFCURVE",
"684 612 OFFCURVE",
"684 602 CURVE SMOOTH",
"682 537 OFFCURVE",
"570 333 OFFCURVE",
"490 217 CURVE",
"541 193 LINE",
"500 523 LINE SMOOTH",
"484 649 OFFCURVE",
"464 674 OFFCURVE",
"371 674 CURVE SMOOTH",
"287 674 OFFCURVE",
"224 654 OFFCURVE",
"147 615 CURVE",
"163 584 OFFCURVE",
"166 553 OFFCURVE",
"166 523 CURVE SMOOTH",
"162 331 OFFCURVE",
"15 176 OFFCURVE",
"12 25 CURVE SMOOTH"
);
}
);
width = 1003;
},
{
associatedMasterId = "BE599D47-15C2-4DC8-BE97-05FFE6CA3179";
background = {
paths = (
{
closed = 1;
nodes = (
"17 -43 OFFCURVE",
"45 -75 OFFCURVE",
"105 -75 CURVE SMOOTH",
"159 -75 OFFCURVE",
"224 -47 OFFCURVE",
"256 -14 CURVE",
"252 2 OFFCURVE",
"249 20 OFFCURVE",
"249 40 CURVE SMOOTH",
"249 136 OFFCURVE",
"314 368 OFFCURVE",
"347 458 CURVE",
"283 445 LINE",
"338 72 LINE SMOOTH",
"348 6 OFFCURVE",
"381 -5 OFFCURVE",
"433 -5 CURVE SMOOTH",
"484 -5 OFFCURVE",
"546 6 OFFCURVE",
"597 31 CURVE",
"596 36 OFFCURVE",
"597 53 OFFCURVE",
"601 72 CURVE SMOOTH",
"610 107 OFFCURVE",
"644 200 OFFCURVE",
"838 478 CURVE",
"810 478 LINE",
"780 401 OFFCURVE",
"685 167 OFFCURVE",
"685 38 CURVE SMOOTH",
"685 -49 OFFCURVE",
"728 -75 OFFCURVE",
"785 -75 CURVE SMOOTH",
"841 -75 OFFCURVE",
"888 -49 OFFCURVE",
"939 -14 CURVE",
"934 2 OFFCURVE",
"931 17 OFFCURVE",
"931 47 CURVE SMOOTH",
"931 230 OFFCURVE",
"1034 486 OFFCURVE",
"1034 592 CURVE SMOOTH",
"1034 660 OFFCURVE",
"991 674 OFFCURVE",
"886 674 CURVE SMOOTH",
"798 674 OFFCURVE",
"730 664 OFFCURVE",
"669 634 CURVE",
"675 626 OFFCURVE",
"678 612 OFFCURVE",
"678 602 CURVE SMOOTH",
"678 537 OFFCURVE",
"569 333 OFFCURVE",
"491 217 CURVE",
"543 193 LINE",
"495 523 LINE SMOOTH",
"477 649 OFFCURVE",
"458 674 OFFCURVE",
"364 674 CURVE SMOOTH",
"281 674 OFFCURVE",
"217 654 OFFCURVE",
"141 615 CURVE",
"158 584 OFFCURVE",
"162 553 OFFCURVE",
"162 523 CURVE SMOOTH",
"162 331 OFFCURVE",
"17 176 OFFCURVE",
"17 25 CURVE SMOOTH"
);
}
);
};
layerId = "F3036CE5-76CD-4EA1-80B4-CB37CC2B7CBE";
name = "Regular Italic Mar 28 16, 21:08";
paths = (
{
closed = 1;
nodes = (
"-1 -33 OFFCURVE",
"26 -67 OFFCURVE",
"85 -68 CURVE SMOOTH",
"139 -68 OFFCURVE",
"206 -42 OFFCURVE",
"240 -9 CURVE",
"236 7 OFFCURVE",
"234 24 OFFCURVE",
"236 45 CURVE SMOOTH",
"240 141 OFFCURVE",
"317 371 OFFCURVE",
"355 461 CURVE",
"291 449 LINE",
"326 76 LINE SMOOTH",
"332 9 OFFCURVE",
"366 -2 OFFCURVE",
"417 -3 CURVE SMOOTH",
"468 -4 OFFCURVE",
"530 6 OFFCURVE",
"583 31 CURVE",
"582 33 OFFCURVE",
"582 36 OFFCURVE",
"583 41 CURVE SMOOTH",
"585 71 OFFCURVE",
"610 161 OFFCURVE",
"847 472 CURVE",
"819 473 LINE",
"786 396 OFFCURVE",
"678 164 OFFCURVE",
"671 35 CURVE SMOOTH",
"667 -52 OFFCURVE",
"709 -79 OFFCURVE",
"766 -79 CURVE SMOOTH",
"821 -80 OFFCURVE",
"870 -56 OFFCURVE",
"922 -21 CURVE",
"918 -5 OFFCURVE",
"916 10 OFFCURVE",
"918 40 CURVE SMOOTH",
"927 223 OFFCURVE",
"1044 477 OFFCURVE",
"1049 582 CURVE SMOOTH",
"1053 651 OFFCURVE",
"1010 665 OFFCURVE",
"905 668 CURVE SMOOTH",
"818 669 OFFCURVE",
"748 660 OFFCURVE",
"686 631 CURVE",
"692 623 OFFCURVE",
"694 609 OFFCURVE",
"694 599 CURVE SMOOTH",
"690 534 OFFCURVE",
"571 332 OFFCURVE",
"487 218 CURVE",
"537 193 LINE",
"507 523 LINE SMOOTH",
"495 649 OFFCURVE",
"477 674 OFFCURVE",
"384 677 CURVE SMOOTH",
"300 678 OFFCURVE",
"236 658 OFFCURVE",
"158 621 CURVE",
"173 590 OFFCURVE",
"175 560 OFFCURVE",
"173 530 CURVE SMOOTH",
"163 337 OFFCURVE",
"10 185 OFFCURVE",
"3 34 CURVE SMOOTH"
);
}
);
width = 1003;
}
);
unicode = 004D;
},
{
glyphname = N;
lastChange = "2016-04-03 02:12:18 +0000";
layers = (
{
background = {
paths = (
{
closed = 1;
nodes = (
"141 -75 OFFCURVE",
"184 -47 OFFCURVE",
"231 -14 CURVE",
"226 2 OFFCURVE",
"223 19 OFFCURVE",
"223 42 CURVE SMOOTH",
"223 235 OFFCURVE",
"402 482 OFFCURVE",
"396 606 CURVE SMOOTH",
"393 661 OFFCURVE",
"357 674 OFFCURVE",
"305 674 CURVE SMOOTH",
"244 674 OFFCURVE",
"176 654 OFFCURVE",
"113 615 CURVE",
"130 584 OFFCURVE",
"133 553 OFFCURVE",
"133 526 CURVE SMOOTH",
"133 327 OFFCURVE",
"-7 185 OFFCURVE",
"-9 22 CURVE SMOOTH",
"-10 -41 OFFCURVE",
"34 -75 OFFCURVE",
"94 -75 CURVE SMOOTH"
);
},
{
closed = 1;
nodes = (
"526 -75 OFFCURVE",
"578 -47 OFFCURVE",
"624 -14 CURVE",
"619 2 OFFCURVE",
"617 19 OFFCURVE",
"617 42 CURVE SMOOTH",
"617 242 OFFCURVE",
"796 482 OFFCURVE",
"789 606 CURVE SMOOTH",
"787 661 OFFCURVE",
"751 674 OFFCURVE",
"699 674 CURVE SMOOTH",
"640 674 OFFCURVE",
"571 654 OFFCURVE",
"507 615 CURVE",
"523 584 OFFCURVE",
"527 553 OFFCURVE",
"527 526 CURVE SMOOTH",
"527 334 OFFCURVE",
"387 185 OFFCURVE",
"385 22 CURVE SMOOTH",
"384 -41 OFFCURVE",
"422 -75 OFFCURVE",
"474 -75 CURVE SMOOTH"
);
},
{
closed = 1;
nodes = (
"236 415 LINE",
"385 22 LINE",
"509 217 LINE",
"396 606 LINE"
);
}
);
};
layerId = "BE599D47-15C2-4DC8-BE97-05FFE6CA3179";
paths = (
{
closed = 1;
nodes = (
"-9 -2 OFFCURVE",
"34 -32 OFFCURVE",
"91 -32 CURVE SMOOTH",
"143 -32 OFFCURVE",
"180 -6 OFFCURVE",
"231 29 CURVE",
"226 45 OFFCURVE",
"223 62 OFFCURVE",
"223 86 CURVE SMOOTH",
"223 171 OFFCURVE",
"259 268 OFFCURVE",
"298 360 CURVE",
"268 382 LINE",
"364 41 OFFCURVE",
"395 -32 OFFCURVE",
"476 -32 CURVE SMOOTH",
"525 -32 OFFCURVE",
"578 -4 OFFCURVE",
"624 29 CURVE",
"619 45 OFFCURVE",
"617 61 OFFCURVE",
"617 86 CURVE SMOOTH",
"617 284 OFFCURVE",
"795 525 OFFCURVE",
"789 649 CURVE SMOOTH",
"787 704 OFFCURVE",
"750 717 OFFCURVE",
"700 717 CURVE SMOOTH",
"639 717 OFFCURVE",
"571 697 OFFCURVE",
"507 658 CURVE",
"523 627 OFFCURVE",
"527 596 OFFCURVE",
"527 568 CURVE SMOOTH",
"527 495 OFFCURVE",
"504 419 OFFCURVE",
"478 355 CURVE",
"495 328 LINE",
"406 661 OFFCURVE",
"407 717 OFFCURVE",
"305 717 CURVE SMOOTH",
"245 717 OFFCURVE",
"176 697 OFFCURVE",
"113 658 CURVE",
"130 627 OFFCURVE",
"133 596 OFFCURVE",
"133 566 CURVE SMOOTH",
"133 377 OFFCURVE",
"-9 212 OFFCURVE",
"-9 74 CURVE SMOOTH"
);
}
);
width = 699;
},
{
associatedMasterId = "BE599D47-15C2-4DC8-BE97-05FFE6CA3179";
background = {
paths = (
{
closed = 1;
nodes = (
"162 -75 OFFCURVE",
"214 -47 OFFCURVE",
"261 -14 CURVE",
"256 2 OFFCURVE",
"253 19 OFFCURVE",
"253 42 CURVE SMOOTH",
"253 235 OFFCURVE",
"432 482 OFFCURVE",
"426 606 CURVE SMOOTH",
"423 661 OFFCURVE",
"387 674 OFFCURVE",
"335 674 CURVE SMOOTH",
"272 674 OFFCURVE",
"196 654 OFFCURVE",
"129 615 CURVE",
"146 584 OFFCURVE",
"149 553 OFFCURVE",
"149 526 CURVE SMOOTH",
"149 327 OFFCURVE",
"9 185 OFFCURVE",
"7 22 CURVE SMOOTH",
"6 -41 OFFCURVE",
"50 -75 OFFCURVE",
"110 -75 CURVE SMOOTH"
);
},
{
closed = 1;
nodes = (
"535 -75 OFFCURVE",
"587 -47 OFFCURVE",
"633 -14 CURVE",
"628 2 OFFCURVE",
"626 19 OFFCURVE",
"626 42 CURVE SMOOTH",
"626 242 OFFCURVE",
"805 482 OFFCURVE",
"798 606 CURVE SMOOTH",
"796 661 OFFCURVE",
"760 674 OFFCURVE",
"708 674 CURVE SMOOTH",
"645 674 OFFCURVE",
"569 654 OFFCURVE",
"502 615 CURVE",
"518 584 OFFCURVE",
"522 553 OFFCURVE",
"522 526 CURVE SMOOTH",
"522 334 OFFCURVE",
"382 185 OFFCURVE",
"380 22 CURVE SMOOTH",
"379 -41 OFFCURVE",
"423 -75 OFFCURVE",
"483 -75 CURVE SMOOTH"
);
},
{
closed = 1;
nodes = (
"235 244 LINE",
"521 244 LINE",
"539 353 LINE",
"252 353 LINE"
);
}
);
};
layerId = "30A8892D-99E0-4ECD-8451-2A604FB84249";
name = "Regular Italic Apr 1 16, 00:48";
paths = (
{
closed = 1;
nodes = (
"162 -75 OFFCURVE",
"214 -47 OFFCURVE",
"261 -14 CURVE",
"256 2 OFFCURVE",
"253 19 OFFCURVE",
"253 42 CURVE SMOOTH",
"253 235 OFFCURVE",
"432 482 OFFCURVE",
"426 606 CURVE SMOOTH",
"423 661 OFFCURVE",
"387 674 OFFCURVE",
"335 674 CURVE SMOOTH",
"272 674 OFFCURVE",
"196 654 OFFCURVE",
"129 615 CURVE",
"146 584 OFFCURVE",
"149 553 OFFCURVE",
"149 526 CURVE SMOOTH",
"149 327 OFFCURVE",
"9 185 OFFCURVE",
"7 22 CURVE SMOOTH",
"6 -41 OFFCURVE",
"50 -75 OFFCURVE",
"110 -75 CURVE SMOOTH"
);
},
{
closed = 1;
nodes = (
"535 -75 OFFCURVE",
"587 -47 OFFCURVE",
"633 -14 CURVE",
"628 2 OFFCURVE",
"626 19 OFFCURVE",
"626 42 CURVE SMOOTH",
"626 242 OFFCURVE",
"805 482 OFFCURVE",
"798 606 CURVE SMOOTH",
"796 661 OFFCURVE",
"760 674 OFFCURVE",
"708 674 CURVE SMOOTH",
"645 674 OFFCURVE",
"569 654 OFFCURVE",
"502 615 CURVE",
"518 584 OFFCURVE",
"522 553 OFFCURVE",
"522 526 CURVE SMOOTH",
"522 334 OFFCURVE",
"382 185 OFFCURVE",
"380 22 CURVE SMOOTH",
"379 -41 OFFCURVE",
"423 -75 OFFCURVE",
"483 -75 CURVE SMOOTH"
);
},
{
closed = 1;
nodes = (
"300 510 LINE",
"437 -24 LINE",
"454 85 LINE",
"318 619 LINE"
);
}
);
width = 718;
},
{
associatedMasterId = "BE599D47-15C2-4DC8-BE97-05FFE6CA3179";
background = {
paths = (
{
closed = 1;
nodes = (
"162 -75 OFFCURVE",
"214 -47 OFFCURVE",
"261 -14 CURVE",
"256 2 OFFCURVE",
"253 19 OFFCURVE",
"253 42 CURVE SMOOTH",
"253 235 OFFCURVE",
"432 482 OFFCURVE",
"426 606 CURVE SMOOTH",
"423 661 OFFCURVE",
"387 674 OFFCURVE",
"335 674 CURVE SMOOTH",
"272 674 OFFCURVE",
"196 654 OFFCURVE",
"129 615 CURVE",
"146 584 OFFCURVE",
"149 553 OFFCURVE",
"149 526 CURVE SMOOTH",
"149 327 OFFCURVE",
"9 185 OFFCURVE",
"7 22 CURVE SMOOTH",
"6 -41 OFFCURVE",
"50 -75 OFFCURVE",
"110 -75 CURVE SMOOTH"
);
},
{
closed = 1;
nodes = (
"535 -75 OFFCURVE",
"587 -47 OFFCURVE",
"633 -14 CURVE",
"628 2 OFFCURVE",
"626 19 OFFCURVE",
"626 42 CURVE SMOOTH",
"626 242 OFFCURVE",
"805 482 OFFCURVE",
"798 606 CURVE SMOOTH",
"796 661 OFFCURVE",
"760 674 OFFCURVE",
"708 674 CURVE SMOOTH",
"645 674 OFFCURVE",
"569 654 OFFCURVE",
"502 615 CURVE",
"518 584 OFFCURVE",
"522 553 OFFCURVE",
"522 526 CURVE SMOOTH",
"522 334 OFFCURVE",
"382 185 OFFCURVE",
"380 22 CURVE SMOOTH",
"379 -41 OFFCURVE",
"423 -75 OFFCURVE",
"483 -75 CURVE SMOOTH"
);
},
{
closed = 1;
nodes = (
"235 244 LINE",
"521 244 LINE",
"539 353 LINE",
"252 353 LINE"
);
}
);
};
layerId = "0BA4C065-D230-45F7-9EC0-609FB2E84399";
name = "Regular Italic Apr 1 16, 00:50";
paths = (
{
closed = 1;
nodes = (
"160 -75 OFFCURVE",
"207 -47 OFFCURVE",
"254 -14 CURVE",
"249 2 OFFCURVE",
"246 19 OFFCURVE",
"246 42 CURVE SMOOTH",
"246 235 OFFCURVE",
"425 482 OFFCURVE",
"419 606 CURVE SMOOTH",
"416 661 OFFCURVE",
"380 674 OFFCURVE",
"328 674 CURVE SMOOTH",
"265 674 OFFCURVE",
"194 654 OFFCURVE",
"129 615 CURVE",
"146 584 OFFCURVE",
"149 553 OFFCURVE",
"149 526 CURVE SMOOTH",
"149 327 OFFCURVE",
"9 185 OFFCURVE",
"7 22 CURVE SMOOTH",
"6 -41 OFFCURVE",
"50 -75 OFFCURVE",
"110 -75 CURVE SMOOTH"
);
},
{
closed = 1;
nodes = (
"542 -75 OFFCURVE",
"594 -47 OFFCURVE",
"640 -14 CURVE",
"635 2 OFFCURVE",
"633 19 OFFCURVE",
"633 42 CURVE SMOOTH",
"633 242 OFFCURVE",
"812 482 OFFCURVE",
"805 606 CURVE SMOOTH",
"803 661 OFFCURVE",
"767 674 OFFCURVE",
"715 674 CURVE SMOOTH",
"654 674 OFFCURVE",
"582 654 OFFCURVE",
"516 615 CURVE",
"532 584 OFFCURVE",
"536 553 OFFCURVE",
"536 526 CURVE SMOOTH",
"536 334 OFFCURVE",
"396 185 OFFCURVE",
"394 22 CURVE SMOOTH",
"393 -41 OFFCURVE",
"434 -75 OFFCURVE",
"490 -75 CURVE SMOOTH"
);
},
{
closed = 1;
nodes = (
"259 415 LINE",
"394 22 LINE",
"518 217 LINE",
"419 606 LINE"
);
}
);
width = 725;
},
{
associatedMasterId = "BE599D47-15C2-4DC8-BE97-05FFE6CA3179";
background = {
paths = (
{
closed = 1;
nodes = (
"157 -75 OFFCURVE",
"200 -47 OFFCURVE",
"247 -14 CURVE",
"242 2 OFFCURVE",
"239 19 OFFCURVE",
"239 42 CURVE SMOOTH",
"239 235 OFFCURVE",
"418 482 OFFCURVE",
"412 606 CURVE SMOOTH",
"409 661 OFFCURVE",
"373 674 OFFCURVE",
"321 674 CURVE SMOOTH",
"260 674 OFFCURVE",
"192 654 OFFCURVE",
"129 615 CURVE",
"146 584 OFFCURVE",
"149 553 OFFCURVE",
"149 526 CURVE SMOOTH",
"149 327 OFFCURVE",
"9 185 OFFCURVE",
"7 22 CURVE SMOOTH",
"6 -41 OFFCURVE",
"50 -75 OFFCURVE",
"110 -75 CURVE SMOOTH"
);
},
{
closed = 1;
nodes = (
"542 -75 OFFCURVE",
"594 -47 OFFCURVE",
"640 -14 CURVE",
"635 2 OFFCURVE",
"633 19 OFFCURVE",
"633 42 CURVE SMOOTH",
"633 242 OFFCURVE",
"812 482 OFFCURVE",
"805 606 CURVE SMOOTH",
"803 661 OFFCURVE",
"767 674 OFFCURVE",
"715 674 CURVE SMOOTH",
"656 674 OFFCURVE",
"587 654 OFFCURVE",
"523 615 CURVE",
"539 584 OFFCURVE",
"543 553 OFFCURVE",
"543 526 CURVE SMOOTH",
"543 334 OFFCURVE",
"403 185 OFFCURVE",
"401 22 CURVE SMOOTH",
"400 -41 OFFCURVE",
"438 -75 OFFCURVE",
"490 -75 CURVE SMOOTH"
);
},
{
closed = 1;
nodes = (
"252 415 LINE",
"401 22 LINE",
"525 217 LINE",
"412 606 LINE"
);
}
);
};
layerId = "F230F2D8-5ECE-4696-B755-9E0991E97455";
name = "Regular Italic Apr 1 16, 00:51";
paths = (
{
closed = 1;
nodes = (
"157 -75 OFFCURVE",
"200 -47 OFFCURVE",
"247 -14 CURVE",
"242 2 OFFCURVE",
"239 19 OFFCURVE",
"239 42 CURVE SMOOTH",
"239 235 OFFCURVE",
"418 482 OFFCURVE",
"412 606 CURVE SMOOTH",
"409 661 OFFCURVE",
"373 674 OFFCURVE",
"321 674 CURVE SMOOTH",
"260 674 OFFCURVE",
"192 654 OFFCURVE",
"129 615 CURVE",
"146 584 OFFCURVE",
"149 553 OFFCURVE",
"149 526 CURVE SMOOTH",
"149 327 OFFCURVE",
"9 185 OFFCURVE",
"7 22 CURVE SMOOTH",
"6 -41 OFFCURVE",
"50 -75 OFFCURVE",
"110 -75 CURVE SMOOTH"
);
},
{
closed = 1;
nodes = (
"542 -75 OFFCURVE",
"594 -47 OFFCURVE",
"640 -14 CURVE",
"635 2 OFFCURVE",
"633 19 OFFCURVE",
"633 42 CURVE SMOOTH",
"633 242 OFFCURVE",
"812 482 OFFCURVE",
"805 606 CURVE SMOOTH",
"803 661 OFFCURVE",
"767 674 OFFCURVE",
"715 674 CURVE SMOOTH",
"656 674 OFFCURVE",
"587 654 OFFCURVE",
"523 615 CURVE",
"539 584 OFFCURVE",
"543 553 OFFCURVE",
"543 526 CURVE SMOOTH",
"543 334 OFFCURVE",
"403 185 OFFCURVE",
"401 22 CURVE SMOOTH",
"400 -41 OFFCURVE",
"438 -75 OFFCURVE",
"490 -75 CURVE SMOOTH"
);
},
{
closed = 1;
nodes = (
"259 429 LINE",
"401 22 LINE",
"539 224 LINE",
"412 606 LINE"
);
}
);
width = 725;
}
);
unicode = 004E;
},
{
glyphname = O;
lastChange = "2016-04-03 02:12:18 +0000";
layers = (
{
background = {
paths = (
{
closed = 1;
nodes = (
"309 111 OFFCURVE",
"301 129 OFFCURVE",
"301 165 CURVE SMOOTH",
"301 288 OFFCURVE",
"391 503 OFFCURVE",
"449 503 CURVE SMOOTH",
"466 503 OFFCURVE",
"470 486 OFFCURVE",
"470 454 CURVE SMOOTH",
"470 321 OFFCURVE",
"383 111 OFFCURVE",
"325 111 CURVE SMOOTH"
);
},
{
closed = 1;
nodes = (
"17 24 OFFCURVE",
"147 -52 OFFCURVE",
"281 -56 CURVE SMOOTH",
"534 -64 OFFCURVE",
"725 166 OFFCURVE",
"734 431 CURVE SMOOTH",
"741 610 OFFCURVE",
"610 674 OFFCURVE",
"488 678 CURVE SMOOTH",
"231 687 OFFCURVE",
"33 468 OFFCURVE",
"24 221 CURVE SMOOTH"
);
}
);
};
layerId = "BE599D47-15C2-4DC8-BE97-05FFE6CA3179";
paths = (
{
closed = 1;
nodes = (
"309 153 OFFCURVE",
"301 171 OFFCURVE",
"301 207 CURVE SMOOTH",
"301 330 OFFCURVE",
"391 545 OFFCURVE",
"449 545 CURVE SMOOTH",
"466 545 OFFCURVE",
"470 527 OFFCURVE",
"470 496 CURVE SMOOTH",
"470 362 OFFCURVE",
"383 153 OFFCURVE",
"325 153 CURVE SMOOTH"
);
},
{
closed = 1;
nodes = (
"16 59 OFFCURVE",
"157 -15 OFFCURVE",
"296 -15 CURVE SMOOTH",
"541 -15 OFFCURVE",
"725 213 OFFCURVE",
"734 472 CURVE SMOOTH",
"741 659 OFFCURVE",
"599 720 OFFCURVE",
"472 720 CURVE SMOOTH",
"224 720 OFFCURVE",
"33 504 OFFCURVE",
"24 263 CURVE SMOOTH"
);
}
);
width = 686;
},
{
associatedMasterId = "BE599D47-15C2-4DC8-BE97-05FFE6CA3179";
layerId = "99127A64-36F0-4EBD-BD71-E4CCDD784759";
name = "Regular Italic Mar 24 16, 01:55";
paths = (
{
closed = 1;
nodes = (
"9 -3 OFFCURVE",
"111 -56 OFFCURVE",
"237 -56 CURVE SMOOTH",
"439 -56 OFFCURVE",
"580 82 OFFCURVE",
"580 245 CURVE SMOOTH",
"580 384 OFFCURVE",
"478 437 OFFCURVE",
"352 437 CURVE SMOOTH",
"150 437 OFFCURVE",
"9 300 OFFCURVE",
"9 137 CURVE SMOOTH"
);
},
{
closed = 1;
nodes = (
"233 63 OFFCURVE",
"227 75 OFFCURVE",
"227 101 CURVE SMOOTH",
"227 183 OFFCURVE",
"296 327 OFFCURVE",
"345 327 CURVE SMOOTH",
"359 327 OFFCURVE",
"362 316 OFFCURVE",
"362 295 CURVE SMOOTH",
"362 204 OFFCURVE",
"294 63 OFFCURVE",
"247 63 CURVE SMOOTH"
);
}
);
width = 690;
},
{
associatedMasterId = "BE599D47-15C2-4DC8-BE97-05FFE6CA3179";
layerId = "EE8527E5-F617-4280-93FC-9474E75AD7BC";
name = "Regular Italic Mar 24 16, 02:03";
paths = (
{
closed = 1;
nodes = (
"337 118 OFFCURVE",
"329 136 OFFCURVE",
"329 172 CURVE SMOOTH",
"329 295 OFFCURVE",
"419 510 OFFCURVE",
"477 510 CURVE SMOOTH",
"494 510 OFFCURVE",
"498 493 OFFCURVE",
"498 461 CURVE SMOOTH",
"498 327 OFFCURVE",
"411 118 OFFCURVE",
"353 118 CURVE SMOOTH"
);
},
{
closed = 1;
nodes = (
"55 22 OFFCURVE",
"192 -53 OFFCURVE",
"336 -53 CURVE SMOOTH",
"582 -53 OFFCURVE",
"756 165 OFFCURVE",
"756 410 CURVE SMOOTH",
"756 620 OFFCURVE",
"628 688 OFFCURVE",
"489 688 CURVE SMOOTH",
"244 688 OFFCURVE",
"55 470 OFFCURVE",
"55 229 CURVE SMOOTH"
);
}
);
width = 740;
},
{
associatedMasterId = "BE599D47-15C2-4DC8-BE97-05FFE6CA3179";
background = {
paths = (
{
closed = 1;
nodes = (
"337 118 OFFCURVE",
"329 136 OFFCURVE",
"329 172 CURVE SMOOTH",
"329 295 OFFCURVE",
"419 510 OFFCURVE",
"477 510 CURVE SMOOTH",
"494 510 OFFCURVE",
"498 493 OFFCURVE",
"498 461 CURVE SMOOTH",
"498 327 OFFCURVE",
"411 118 OFFCURVE",
"353 118 CURVE SMOOTH"
);
},
{
closed = 1;
nodes = (
"49 22 OFFCURVE",
"185 -53 OFFCURVE",
"322 -53 CURVE SMOOTH",
"576 -53 OFFCURVE",
"732 167 OFFCURVE",
"756 410 CURVE SMOOTH",
"777 620 OFFCURVE",
"635 688 OFFCURVE",
"503 688 CURVE SMOOTH",
"250 688 OFFCURVE",
"62 470 OFFCURVE",
"55 229 CURVE SMOOTH"
);
}
);
};
layerId = "65C6D169-50D5-47C4-BE53-1FA551490203";
name = "Regular Italic Mar 24 16, 02:05";
paths = (
{
closed = 1;
nodes = (
"337 118 OFFCURVE",
"329 136 OFFCURVE",
"329 172 CURVE SMOOTH",
"329 295 OFFCURVE",
"419 510 OFFCURVE",
"477 510 CURVE SMOOTH",
"494 510 OFFCURVE",
"498 493 OFFCURVE",
"498 461 CURVE SMOOTH",
"498 327 OFFCURVE",
"411 118 OFFCURVE",
"353 118 CURVE SMOOTH"
);
},
{
closed = 1;
nodes = (
"55 19 OFFCURVE",
"187 -53 OFFCURVE",
"322 -53 CURVE SMOOTH",
"575 -53 OFFCURVE",
"758 185 OFFCURVE",
"758 450 CURVE SMOOTH",
"758 629 OFFCURVE",
"626 688 OFFCURVE",
"503 688 CURVE SMOOTH",
"246 688 OFFCURVE",
"55 463 OFFCURVE",
"55 215 CURVE SMOOTH"
);
}
);
width = 740;
}
);
unicode = 004F;
},
{
glyphname = P;
lastChange = "2016-04-03 02:12:18 +0000";
layers = (
{
background = {
paths = (
{
closed = 1;
nodes = (
"307 288 OFFCURVE",
"272 295 OFFCURVE",
"214 307 CURVE",
"278 238 LINE",
"289 271 OFFCURVE",
"383 488 OFFCURVE",
"404 525 CURVE",
"316 488 LINE",
"364 502 OFFCURVE",
"391 504 OFFCURVE",
"401 504 CURVE SMOOTH",
"443 504 OFFCURVE",
"469 486 OFFCURVE",
"468 441 CURVE SMOOTH",
"466 387 OFFCURVE",
"435 305 OFFCURVE",
"353 294 CURVE SMOOTH"
);
},
{
closed = 1;
nodes = (
"145 353 OFFCURVE",
"6 171 OFFCURVE",
"6 47 CURVE SMOOTH",
"6 -20 OFFCURVE",
"47 -54 OFFCURVE",
"111 -54 CURVE SMOOTH",
"167 -54 OFFCURVE",
"222 -29 OFFCURVE",
"261 7 CURVE",
"247 31 OFFCURVE",
"240 56 OFFCURVE",
"240 89 CURVE SMOOTH",
"240 118 OFFCURVE",
"254 169 OFFCURVE",
"262 200 CURVE",
"166 171 LINE",
"206 151 OFFCURVE",
"260 141 OFFCURVE",
"318 141 CURVE SMOOTH",
"562 141 OFFCURVE",
"670 260 OFFCURVE",
"698 416 CURVE SMOOTH",
"726 569 OFFCURVE",
"618 674 OFFCURVE",
"433 674 CURVE SMOOTH",
"245 674 LINE SMOOTH",
"176 674 OFFCURVE",
"119 663 OFFCURVE",
"85 521 CURVE",
"133 521 OFFCURVE",
"145 514 OFFCURVE",
"145 477 CURVE"
);
}
);
};
layerId = "BE599D47-15C2-4DC8-BE97-05FFE6CA3179";
paths = (
{
closed = 1;
nodes = (
"415 335 OFFCURVE",
"321 335 CURVE SMOOTH",
"288 335 OFFCURVE",
"258 341 OFFCURVE",
"214 350 CURVE",
"278 281 LINE",
"289 314 OFFCURVE",
"383 531 OFFCURVE",
"404 569 CURVE",
"316 531 LINE",
"364 546 OFFCURVE",
"391 547 OFFCURVE",
"401 547 CURVE SMOOTH",
"442 547 OFFCURVE",
"468 530 OFFCURVE",
"468 488 CURVE SMOOTH",
"468 400 OFFCURVE"
);
},
{
closed = 1;
nodes = (
"145 396 OFFCURVE",
"6 215 OFFCURVE",
"6 91 CURVE SMOOTH",
"6 23 OFFCURVE",
"47 -11 OFFCURVE",
"111 -11 CURVE SMOOTH",
"167 -11 OFFCURVE",
"222 15 OFFCURVE",
"261 50 CURVE",
"247 74 OFFCURVE",
"240 99 OFFCURVE",
"240 132 CURVE SMOOTH",
"240 162 OFFCURVE",
"254 212 OFFCURVE",
"262 243 CURVE",
"166 214 LINE",
"206 194 OFFCURVE",
"260 185 OFFCURVE",
"318 185 CURVE SMOOTH",
"541 185 OFFCURVE",
"702 302 OFFCURVE",
"702 506 CURVE SMOOTH",
"702 633 OFFCURVE",
"599 717 OFFCURVE",
"433 717 CURVE SMOOTH",
"245 717 LINE SMOOTH",
"176 717 OFFCURVE",
"119 707 OFFCURVE",
"85 564 CURVE",
"133 564 OFFCURVE",
"145 557 OFFCURVE",
"145 520 CURVE"
);
}
);
width = 633;
},
{
associatedMasterId = "BE599D47-15C2-4DC8-BE97-05FFE6CA3179";
background = {
paths = (
{
closed = 1;
nodes = (
"520 -55 OFFCURVE",
"715 167 OFFCURVE",
"715 403 CURVE SMOOTH",
"715 574 OFFCURVE",
"617 674 OFFCURVE",
"432 674 CURVE SMOOTH",
"245 674 LINE SMOOTH",
"176 674 OFFCURVE",
"118 663 OFFCURVE",
"84 521 CURVE",
"132 521 OFFCURVE",
"144 514 OFFCURVE",
"144 477 CURVE SMOOTH",
"144 352 OFFCURVE",
"12 180 OFFCURVE",
"12 77 CURVE SMOOTH",
"12 -13 OFFCURVE",
"114 -55 OFFCURVE",
"236 -55 CURVE SMOOTH"
);
},
{
closed = 1;
nodes = (
"269 123 OFFCURVE",
"250 130 OFFCURVE",
"250 148 CURVE SMOOTH",
"250 196 OFFCURVE",
"369 450 OFFCURVE",
"404 516 CURVE",
"317 477 LINE",
"365 492 OFFCURVE",
"392 493 OFFCURVE",
"401 493 CURVE SMOOTH",
"443 493 OFFCURVE",
"467 468 OFFCURVE",
"467 407 CURVE SMOOTH",
"467 292 OFFCURVE",
"384 123 OFFCURVE",
"288 123 CURVE SMOOTH"
);
}
);
};
layerId = "8B01F2BE-8006-4B7C-B261-D8CA120AD9AE";
name = "Regular Italic Mar 25 16, 23:36";
paths = (
{
closed = 1;
nodes = (
"306 288 OFFCURVE",
"272 295 OFFCURVE",
"213 307 CURVE",
"277 238 LINE",
"288 271 OFFCURVE",
"383 488 OFFCURVE",
"403 525 CURVE",
"316 488 LINE",
"364 502 OFFCURVE",
"390 504 OFFCURVE",
"400 504 CURVE SMOOTH",
"442 504 OFFCURVE",
"468 486 OFFCURVE",
"467 441 CURVE SMOOTH",
"465 387 OFFCURVE",
"435 305 OFFCURVE",
"352 294 CURVE SMOOTH"
);
},
{
closed = 1;
nodes = (
"144 353 OFFCURVE",
"6 171 OFFCURVE",
"6 47 CURVE SMOOTH",
"6 -20 OFFCURVE",
"46 -54 OFFCURVE",
"111 -54 CURVE SMOOTH",
"167 -54 OFFCURVE",
"221 -29 OFFCURVE",
"260 7 CURVE",
"247 31 OFFCURVE",
"239 56 OFFCURVE",
"239 89 CURVE SMOOTH",
"239 118 OFFCURVE",
"253 169 OFFCURVE",
"261 200 CURVE",
"165 171 LINE",
"206 151 OFFCURVE",
"259 141 OFFCURVE",
"318 141 CURVE SMOOTH",
"561 141 OFFCURVE",
"669 260 OFFCURVE",
"697 416 CURVE SMOOTH",
"725 569 OFFCURVE",
"617 674 OFFCURVE",
"432 674 CURVE SMOOTH",
"245 674 LINE SMOOTH",
"176 674 OFFCURVE",
"118 663 OFFCURVE",
"84 521 CURVE",
"132 521 OFFCURVE",
"144 514 OFFCURVE",
"144 477 CURVE"
);
}
);
width = 725;
},
{
associatedMasterId = "BE599D47-15C2-4DC8-BE97-05FFE6CA3179";
background = {
paths = (
{
closed = 1;
nodes = (
"520 -55 OFFCURVE",
"715 167 OFFCURVE",
"715 403 CURVE SMOOTH",
"715 574 OFFCURVE",
"617 674 OFFCURVE",
"432 674 CURVE SMOOTH",
"245 674 LINE SMOOTH",
"176 674 OFFCURVE",
"118 663 OFFCURVE",
"84 521 CURVE",
"132 521 OFFCURVE",
"144 514 OFFCURVE",
"144 477 CURVE SMOOTH",
"144 352 OFFCURVE",
"12 180 OFFCURVE",
"12 77 CURVE SMOOTH",
"12 -13 OFFCURVE",
"114 -55 OFFCURVE",
"236 -55 CURVE SMOOTH"
);
},
{
closed = 1;
nodes = (
"269 123 OFFCURVE",
"250 130 OFFCURVE",
"250 148 CURVE SMOOTH",
"250 196 OFFCURVE",
"369 450 OFFCURVE",
"404 516 CURVE",
"317 477 LINE",
"365 492 OFFCURVE",
"392 493 OFFCURVE",
"401 493 CURVE SMOOTH",
"443 493 OFFCURVE",
"467 468 OFFCURVE",
"467 407 CURVE SMOOTH",
"467 292 OFFCURVE",
"384 123 OFFCURVE",
"288 123 CURVE SMOOTH"
);
}
);
};
layerId = "80881496-AD5B-4548-82AC-F61A5042D1A1";
name = "Regular Italic Mar 25 16, 23:44";
paths = (
{
closed = 1;
nodes = (
"306 288 OFFCURVE",
"272 295 OFFCURVE",
"213 307 CURVE",
"277 238 LINE",
"288 271 OFFCURVE",
"383 488 OFFCURVE",
"403 525 CURVE",
"316 488 LINE",
"364 502 OFFCURVE",
"390 504 OFFCURVE",
"400 504 CURVE SMOOTH",
"442 504 OFFCURVE",
"468 486 OFFCURVE",
"467 441 CURVE SMOOTH",
"465 387 OFFCURVE",
"435 305 OFFCURVE",
"352 294 CURVE SMOOTH"
);
},
{
closed = 1;
nodes = (
"144 353 OFFCURVE",
"6 171 OFFCURVE",
"6 47 CURVE SMOOTH",
"6 -20 OFFCURVE",
"46 -54 OFFCURVE",
"111 -54 CURVE SMOOTH",
"167 -54 OFFCURVE",
"221 -29 OFFCURVE",
"260 7 CURVE",
"247 31 OFFCURVE",
"239 56 OFFCURVE",
"239 89 CURVE SMOOTH",
"239 118 OFFCURVE",
"253 169 OFFCURVE",
"261 200 CURVE",
"165 171 LINE",
"206 151 OFFCURVE",
"259 141 OFFCURVE",
"318 141 CURVE SMOOTH",
"561 141 OFFCURVE",
"669 260 OFFCURVE",
"697 416 CURVE SMOOTH",
"725 569 OFFCURVE",
"617 674 OFFCURVE",
"432 674 CURVE SMOOTH",
"245 674 LINE SMOOTH",
"176 674 OFFCURVE",
"118 663 OFFCURVE",
"84 521 CURVE",
"132 521 OFFCURVE",
"144 514 OFFCURVE",
"144 477 CURVE"
);
}
);
width = 645;
}
);
unicode = 0050;
},
{
glyphname = Q;
lastChange = "2016-04-03 02:12:18 +0000";
layers = (
{
background = {
paths = (
{
closed = 1;
nodes = (
"372 -236 OFFCURVE",
"484 -236 CURVE SMOOTH",
"555 -236 OFFCURVE",
"605 -199 OFFCURVE",
"644 -91 CURVE",
"623 -95 OFFCURVE",
"603 -97 OFFCURVE",
"585 -97 CURVE SMOOTH",
"463 -97 OFFCURVE",
"314 -35 OFFCURVE",
"261 -35 CURVE SMOOTH",
"160 -35 OFFCURVE",
"91 -69 OFFCURVE",
"91 -153 CURVE",
"99 -152 OFFCURVE",
"107 -152 OFFCURVE",
"114 -152 CURVE SMOOTH",
"235 -152 OFFCURVE"
);
},
{
closed = 1;
nodes = (
"308 110 OFFCURVE",
"300 128 OFFCURVE",
"300 164 CURVE SMOOTH",
"300 286 OFFCURVE",
"390 502 OFFCURVE",
"449 502 CURVE SMOOTH",
"465 502 OFFCURVE",
"470 484 OFFCURVE",
"470 453 CURVE SMOOTH",
"470 319 OFFCURVE",
"383 110 OFFCURVE",
"325 110 CURVE SMOOTH"
);
},
{
closed = 1;
nodes = (
"15 15 OFFCURVE",
"156 -58 OFFCURVE",
"295 -58 CURVE SMOOTH",
"540 -58 OFFCURVE",
"725 169 OFFCURVE",
"734 429 CURVE SMOOTH",
"740 616 OFFCURVE",
"599 677 OFFCURVE",
"472 677 CURVE SMOOTH",
"223 677 OFFCURVE",
"32 461 OFFCURVE",
"23 219 CURVE SMOOTH"
);
}
);
};
layerId = "BE599D47-15C2-4DC8-BE97-05FFE6CA3179";
paths = (
{
closed = 1;
nodes = (
"372 -214 OFFCURVE",
"484 -214 CURVE SMOOTH",
"555 -214 OFFCURVE",
"605 -161 OFFCURVE",
"644 -47 CURVE",
"623 -52 OFFCURVE",
"603 -54 OFFCURVE",
"585 -54 CURVE SMOOTH",
"463 -54 OFFCURVE",
"314 8 OFFCURVE",
"261 8 CURVE SMOOTH",
"160 8 OFFCURVE",
"91 -13 OFFCURVE",
"91 -130 CURVE",
"99 -130 OFFCURVE",
"107 -130 OFFCURVE",
"114 -130 CURVE SMOOTH",
"235 -130 OFFCURVE"
);
},
{
closed = 1;
nodes = (
"308 153 OFFCURVE",
"300 171 OFFCURVE",
"300 207 CURVE SMOOTH",
"300 330 OFFCURVE",
"390 545 OFFCURVE",
"449 545 CURVE SMOOTH",
"465 545 OFFCURVE",
"470 527 OFFCURVE",
"470 496 CURVE SMOOTH",
"470 362 OFFCURVE",
"383 153 OFFCURVE",
"325 153 CURVE SMOOTH"
);
},
{
closed = 1;
nodes = (
"15 59 OFFCURVE",
"156 -15 OFFCURVE",
"295 -15 CURVE SMOOTH",
"540 -15 OFFCURVE",
"725 213 OFFCURVE",
"734 472 CURVE SMOOTH",
"740 659 OFFCURVE",
"599 720 OFFCURVE",
"472 720 CURVE SMOOTH",
"223 720 OFFCURVE",
"32 504 OFFCURVE",
"23 263 CURVE SMOOTH"
);
}
);
width = 684;
},
{
associatedMasterId = "BE599D47-15C2-4DC8-BE97-05FFE6CA3179";
layerId = "9FE25CE0-8305-4FC9-BE72-D53589CB2B38";
name = "Regular Italic Mar 25 16, 02:37";
paths = (
{
closed = 1;
nodes = (
"401 -236 OFFCURVE",
"513 -236 CURVE SMOOTH",
"584 -236 OFFCURVE",
"633 -199 OFFCURVE",
"672 -91 CURVE",
"651 -95 OFFCURVE",
"632 -97 OFFCURVE",
"613 -97 CURVE SMOOTH",
"492 -97 OFFCURVE",
"342 -35 OFFCURVE",
"290 -35 CURVE SMOOTH",
"189 -35 OFFCURVE",
"120 -69 OFFCURVE",
"120 -153 CURVE",
"128 -152 OFFCURVE",
"135 -152 OFFCURVE",
"143 -152 CURVE SMOOTH",
"263 -152 OFFCURVE"
);
},
{
closed = 1;
nodes = (
"337 110 OFFCURVE",
"329 128 OFFCURVE",
"329 164 CURVE SMOOTH",
"329 286 OFFCURVE",
"419 502 OFFCURVE",
"477 502 CURVE SMOOTH",
"494 502 OFFCURVE",
"498 484 OFFCURVE",
"498 453 CURVE SMOOTH",
"498 319 OFFCURVE",
"411 110 OFFCURVE",
"353 110 CURVE SMOOTH"
);
},
{
closed = 1;
nodes = (
"44 15 OFFCURVE",
"185 -58 OFFCURVE",
"324 -58 CURVE SMOOTH",
"569 -58 OFFCURVE",
"753 169 OFFCURVE",
"762 429 CURVE SMOOTH",
"769 616 OFFCURVE",
"627 677 OFFCURVE",
"500 677 CURVE SMOOTH",
"252 677 OFFCURVE",
"61 461 OFFCURVE",
"52 219 CURVE SMOOTH"
);
}
);
width = 740;
}
);
unicode = 0051;
},
{
glyphname = R;
lastChange = "2016-04-03 02:12:18 +0000";
layers = (
{
background = {
paths = (
{
closed = 1;
nodes = (
"306 323 OFFCURVE",
"272 330 OFFCURVE",
"213 342 CURVE",
"277 273 LINE",
"288 302 OFFCURVE",
"383 493 OFFCURVE",
"403 525 CURVE",
"316 488 LINE",
"364 502 OFFCURVE",
"390 504 OFFCURVE",
"400 504 CURVE SMOOTH",
"442 504 OFFCURVE",
"468 486 OFFCURVE",
"467 441 CURVE SMOOTH",
"465 399 OFFCURVE",
"435 337 OFFCURVE",
"352 329 CURVE SMOOTH"
);
},
{
closed = 1;
nodes = (
"144 353 OFFCURVE",
"6 171 OFFCURVE",
"6 47 CURVE SMOOTH",
"6 -20 OFFCURVE",
"46 -54 OFFCURVE",
"111 -54 CURVE SMOOTH",
"167 -54 OFFCURVE",
"221 -29 OFFCURVE",
"260 7 CURVE",
"247 31 OFFCURVE",
"239 56 OFFCURVE",
"239 89 CURVE SMOOTH",
"239 128 OFFCURVE",
"253 194 OFFCURVE",
"261 235 CURVE",
"165 206 LINE",
"206 186 OFFCURVE",
"259 176 OFFCURVE",
"318 176 CURVE SMOOTH",
"561 176 OFFCURVE",
"669 279 OFFCURVE",
"697 416 CURVE SMOOTH",
"725 569 OFFCURVE",
"617 674 OFFCURVE",
"432 674 CURVE SMOOTH",
"245 674 LINE SMOOTH",
"176 674 OFFCURVE",
"118 663 OFFCURVE",
"84 521 CURVE",
"132 521 OFFCURVE",
"144 514 OFFCURVE",
"144 477 CURVE"
);
},
{
closed = 1;
nodes = (
"266 263 LINE",
"308 97 OFFCURVE",
"382 -68 OFFCURVE",
"461 -68 CURVE SMOOTH",
"530 -68 OFFCURVE",
"575 -12 OFFCURVE",
"613 65 CURVE",
"535 86 OFFCURVE",
"505 134 OFFCURVE",
"423 311 CURVE"
);
}
);
};
layerId = "BE599D47-15C2-4DC8-BE97-05FFE6CA3179";
paths = (
{
closed = 1;
nodes = (
"408 370 OFFCURVE",
"320 370 CURVE SMOOTH",
"295 370 OFFCURVE",
"274 373 OFFCURVE",
"213 385 CURVE",
"277 316 LINE",
"291 351 OFFCURVE",
"386 541 OFFCURVE",
"403 569 CURVE",
"316 531 LINE",
"348 541 OFFCURVE",
"380 547 OFFCURVE",
"400 547 CURVE SMOOTH",
"444 547 OFFCURVE",
"467 527 OFFCURVE",
"467 488 CURVE SMOOTH",
"467 417 OFFCURVE"
);
},
{
closed = 1;
nodes = (
"144 396 OFFCURVE",
"6 215 OFFCURVE",
"6 91 CURVE SMOOTH",
"6 23 OFFCURVE",
"46 -11 OFFCURVE",
"111 -11 CURVE SMOOTH",
"167 -11 OFFCURVE",
"221 15 OFFCURVE",
"260 50 CURVE",
"247 74 OFFCURVE",
"239 99 OFFCURVE",
"239 132 CURVE SMOOTH",
"239 171 OFFCURVE",
"253 237 OFFCURVE",
"261 278 CURVE",
"165 249 LINE",
"206 229 OFFCURVE",
"259 219 OFFCURVE",
"318 219 CURVE SMOOTH",
"534 219 OFFCURVE",
"702 325 OFFCURVE",
"702 516 CURVE SMOOTH",
"702 632 OFFCURVE",
"598 717 OFFCURVE",
"432 717 CURVE SMOOTH",
"245 717 LINE SMOOTH",
"176 717 OFFCURVE",
"118 707 OFFCURVE",
"84 564 CURVE",
"132 564 OFFCURVE",
"144 557 OFFCURVE",
"144 520 CURVE"
);
},
{
closed = 1;
nodes = (
"266 307 LINE",
"308 140 OFFCURVE",
"382 -25 OFFCURVE",
"461 -25 CURVE SMOOTH",
"530 -25 OFFCURVE",
"575 31 OFFCURVE",
"613 108 CURVE",
"535 129 OFFCURVE",
"505 177 OFFCURVE",
"423 354 CURVE"
);
}
);
width = 645;
},
{
associatedMasterId = "BE599D47-15C2-4DC8-BE97-05FFE6CA3179";
background = {
paths = (
{
closed = 1;
nodes = (
"54 -25 OFFCURVE",
"99 -62 OFFCURVE",
"144 -61 CURVE SMOOTH",
"187 -59 OFFCURVE",
"240 -15 OFFCURVE",
"303 48 CURVE",
"331 1 OFFCURVE",
"358 -58 OFFCURVE",
"403 -56 CURVE SMOOTH",
"474 -54 OFFCURVE",
"523 0 OFFCURVE",
"562 77 CURVE",
"513 89 OFFCURVE",
"477 131 OFFCURVE",
"455 178 CURVE",
"530 237 OFFCURVE",
"586 305 OFFCURVE",
"585 362 CURVE SMOOTH",
"585 402 OFFCURVE",
"541 439 OFFCURVE",
"454 447 CURVE",
"451 407 OFFCURVE",
"424 366 OFFCURVE",
"383 321 CURVE",
"352 406 OFFCURVE",
"321 437 OFFCURVE",
"224 433 CURVE SMOOTH",
"182 432 OFFCURVE",
"132 406 OFFCURVE",
"102 379 CURVE",
"146 336 OFFCURVE",
"180 277 OFFCURVE",
"221 185 CURVE",
"161 140 OFFCURVE",
"100 90 OFFCURVE",
"40 70 CURVE"
);
}
);
};
layerId = "78BC9198-40C6-4CB7-89EA-647C92FB6CB8";
name = "Regular Italic Mar 25 16, 23:41";
paths = (
{
closed = 1;
nodes = (
"306 288 OFFCURVE",
"272 295 OFFCURVE",
"213 307 CURVE",
"277 238 LINE",
"288 271 OFFCURVE",
"383 488 OFFCURVE",
"403 525 CURVE",
"316 488 LINE",
"364 502 OFFCURVE",
"390 504 OFFCURVE",
"400 504 CURVE SMOOTH",
"442 504 OFFCURVE",
"468 486 OFFCURVE",
"467 441 CURVE SMOOTH",
"465 387 OFFCURVE",
"435 305 OFFCURVE",
"352 294 CURVE SMOOTH"
);
},
{
closed = 1;
nodes = (
"144 353 OFFCURVE",
"6 171 OFFCURVE",
"6 47 CURVE SMOOTH",
"6 -20 OFFCURVE",
"46 -54 OFFCURVE",
"111 -54 CURVE SMOOTH",
"167 -54 OFFCURVE",
"221 -29 OFFCURVE",
"260 7 CURVE",
"247 31 OFFCURVE",
"239 56 OFFCURVE",
"239 89 CURVE SMOOTH",
"239 118 OFFCURVE",
"253 169 OFFCURVE",
"261 200 CURVE",
"165 171 LINE",
"206 151 OFFCURVE",
"259 141 OFFCURVE",
"318 141 CURVE SMOOTH",
"561 141 OFFCURVE",
"669 260 OFFCURVE",
"697 416 CURVE SMOOTH",
"725 569 OFFCURVE",
"617 674 OFFCURVE",
"432 674 CURVE SMOOTH",
"245 674 LINE SMOOTH",
"176 674 OFFCURVE",
"118 663 OFFCURVE",
"84 521 CURVE",
"132 521 OFFCURVE",
"144 514 OFFCURVE",
"144 477 CURVE"
);
},
{
closed = 1;
nodes = (
"245 215 LINE",
"249 206 OFFCURVE",
"254 196 OFFCURVE",
"258 187 CURVE",
"340 50 LINE",
"368 3 OFFCURVE",
"395 -54 OFFCURVE",
"440 -54 CURVE SMOOTH",
"511 -54 OFFCURVE",
"560 2 OFFCURVE",
"599 79 CURVE",
"550 91 OFFCURVE",
"514 133 OFFCURVE",
"492 180 CURVE",
"451 262 LINE"
);
}
);
width = 645;
},
{
associatedMasterId = "BE599D47-15C2-4DC8-BE97-05FFE6CA3179";
background = {
paths = (
{
closed = 1;
nodes = (
"306 288 OFFCURVE",
"272 295 OFFCURVE",
"213 307 CURVE",
"277 238 LINE",
"288 271 OFFCURVE",
"383 488 OFFCURVE",
"403 525 CURVE",
"316 488 LINE",
"364 502 OFFCURVE",
"390 504 OFFCURVE",
"400 504 CURVE SMOOTH",
"442 504 OFFCURVE",
"468 486 OFFCURVE",
"467 441 CURVE SMOOTH",
"465 387 OFFCURVE",
"435 305 OFFCURVE",
"352 294 CURVE SMOOTH"
);
},
{
closed = 1;
nodes = (
"144 353 OFFCURVE",
"6 171 OFFCURVE",
"6 47 CURVE SMOOTH",
"6 -20 OFFCURVE",
"46 -54 OFFCURVE",
"111 -54 CURVE SMOOTH",
"167 -54 OFFCURVE",
"221 -29 OFFCURVE",
"260 7 CURVE",
"247 31 OFFCURVE",
"239 56 OFFCURVE",
"239 89 CURVE SMOOTH",
"239 118 OFFCURVE",
"253 169 OFFCURVE",
"261 200 CURVE",
"165 171 LINE",
"206 151 OFFCURVE",
"259 141 OFFCURVE",
"318 141 CURVE SMOOTH",
"561 141 OFFCURVE",
"669 260 OFFCURVE",
"697 416 CURVE SMOOTH",
"725 569 OFFCURVE",
"617 674 OFFCURVE",
"432 674 CURVE SMOOTH",
"245 674 LINE SMOOTH",
"176 674 OFFCURVE",
"118 663 OFFCURVE",
"84 521 CURVE",
"132 521 OFFCURVE",
"144 514 OFFCURVE",
"144 477 CURVE"
);
},
{
closed = 1;
nodes = (
"245 215 LINE",
"249 206 OFFCURVE",
"254 196 OFFCURVE",
"258 187 CURVE",
"340 50 LINE",
"368 3 OFFCURVE",
"395 -54 OFFCURVE",
"440 -54 CURVE SMOOTH",
"511 -54 OFFCURVE",
"560 2 OFFCURVE",
"599 79 CURVE",
"550 91 OFFCURVE",
"514 133 OFFCURVE",
"492 180 CURVE",
"451 262 LINE"
);
}
);
};
layerId = "D902065B-5AB6-48B9-9279-E29860DA9991";
name = "Regular Italic Mar 25 16, 23:41";
paths = (
{
closed = 1;
nodes = (
"306 288 OFFCURVE",
"272 295 OFFCURVE",
"213 307 CURVE",
"277 238 LINE",
"288 271 OFFCURVE",
"383 488 OFFCURVE",
"403 525 CURVE",
"316 488 LINE",
"364 502 OFFCURVE",
"390 504 OFFCURVE",
"400 504 CURVE SMOOTH",
"442 504 OFFCURVE",
"468 486 OFFCURVE",
"467 441 CURVE SMOOTH",
"465 387 OFFCURVE",
"435 305 OFFCURVE",
"352 294 CURVE SMOOTH"
);
},
{
closed = 1;
nodes = (
"144 353 OFFCURVE",
"6 171 OFFCURVE",
"6 47 CURVE SMOOTH",
"6 -20 OFFCURVE",
"46 -54 OFFCURVE",
"111 -54 CURVE SMOOTH",
"167 -54 OFFCURVE",
"221 -29 OFFCURVE",
"260 7 CURVE",
"247 31 OFFCURVE",
"239 56 OFFCURVE",
"239 89 CURVE SMOOTH",
"239 118 OFFCURVE",
"253 169 OFFCURVE",
"261 200 CURVE",
"165 171 LINE",
"206 151 OFFCURVE",
"259 141 OFFCURVE",
"318 141 CURVE SMOOTH",
"561 141 OFFCURVE",
"669 260 OFFCURVE",
"697 416 CURVE SMOOTH",
"725 569 OFFCURVE",
"617 674 OFFCURVE",
"432 674 CURVE SMOOTH",
"245 674 LINE SMOOTH",
"176 674 OFFCURVE",
"118 663 OFFCURVE",
"84 521 CURVE",
"132 521 OFFCURVE",
"144 514 OFFCURVE",
"144 477 CURVE"
);
},
{
closed = 1;
nodes = (
"245 215 LINE",
"249 206 OFFCURVE",
"254 196 OFFCURVE",
"258 187 CURVE",
"340 50 LINE",
"368 3 OFFCURVE",
"395 -54 OFFCURVE",
"440 -54 CURVE SMOOTH",
"511 -54 OFFCURVE",
"560 2 OFFCURVE",
"599 79 CURVE",
"550 91 OFFCURVE",
"514 133 OFFCURVE",
"492 180 CURVE",
"451 262 LINE"
);
}
);
width = 645;
},
{
associatedMasterId = "BE599D47-15C2-4DC8-BE97-05FFE6CA3179";
background = {
paths = (
{
closed = 1;
nodes = (
"306 288 OFFCURVE",
"272 295 OFFCURVE",
"213 307 CURVE",
"277 238 LINE",
"288 271 OFFCURVE",
"383 488 OFFCURVE",
"403 525 CURVE",
"316 488 LINE",
"364 502 OFFCURVE",
"390 504 OFFCURVE",
"400 504 CURVE SMOOTH",
"442 504 OFFCURVE",
"468 486 OFFCURVE",
"467 441 CURVE SMOOTH",
"465 387 OFFCURVE",
"435 305 OFFCURVE",
"352 294 CURVE SMOOTH"
);
},
{
closed = 1;
nodes = (
"144 353 OFFCURVE",
"6 171 OFFCURVE",
"6 47 CURVE SMOOTH",
"6 -20 OFFCURVE",
"46 -54 OFFCURVE",
"111 -54 CURVE SMOOTH",
"167 -54 OFFCURVE",
"221 -29 OFFCURVE",
"260 7 CURVE",
"247 31 OFFCURVE",
"239 56 OFFCURVE",
"239 89 CURVE SMOOTH",
"239 118 OFFCURVE",
"253 169 OFFCURVE",
"261 200 CURVE",
"165 171 LINE",
"206 151 OFFCURVE",
"259 141 OFFCURVE",
"318 141 CURVE SMOOTH",
"561 141 OFFCURVE",
"669 260 OFFCURVE",
"697 416 CURVE SMOOTH",
"725 569 OFFCURVE",
"617 674 OFFCURVE",
"432 674 CURVE SMOOTH",
"245 674 LINE SMOOTH",
"176 674 OFFCURVE",
"118 663 OFFCURVE",
"84 521 CURVE",
"132 521 OFFCURVE",
"144 514 OFFCURVE",
"144 477 CURVE"
);
},
{
closed = 1;
nodes = (
"245 215 LINE",
"249 206 OFFCURVE",
"254 196 OFFCURVE",
"258 187 CURVE",
"340 50 LINE",
"368 3 OFFCURVE",
"395 -54 OFFCURVE",
"440 -54 CURVE SMOOTH",
"511 -54 OFFCURVE",
"560 2 OFFCURVE",
"599 79 CURVE",
"550 91 OFFCURVE",
"514 133 OFFCURVE",
"492 180 CURVE",
"451 262 LINE"
);
}
);
};
layerId = "029954DD-C2EC-4520-BADB-211DFBBAF206";
name = "Regular Italic Mar 25 16, 23:43";
paths = (
{
closed = 1;
nodes = (
"306 323 OFFCURVE",
"272 330 OFFCURVE",
"213 342 CURVE",
"277 273 LINE",
"288 302 OFFCURVE",
"383 493 OFFCURVE",
"403 525 CURVE",
"316 488 LINE",
"364 502 OFFCURVE",
"390 504 OFFCURVE",
"400 504 CURVE SMOOTH",
"442 504 OFFCURVE",
"468 486 OFFCURVE",
"467 441 CURVE SMOOTH",
"465 399 OFFCURVE",
"435 337 OFFCURVE",
"352 329 CURVE SMOOTH"
);
},
{
closed = 1;
nodes = (
"144 353 OFFCURVE",
"6 171 OFFCURVE",
"6 47 CURVE SMOOTH",
"6 -20 OFFCURVE",
"46 -54 OFFCURVE",
"111 -54 CURVE SMOOTH",
"167 -54 OFFCURVE",
"221 -29 OFFCURVE",
"260 7 CURVE",
"247 31 OFFCURVE",
"239 56 OFFCURVE",
"239 89 CURVE SMOOTH",
"239 128 OFFCURVE",
"253 194 OFFCURVE",
"261 235 CURVE",
"165 206 LINE",
"206 186 OFFCURVE",
"259 176 OFFCURVE",
"318 176 CURVE SMOOTH",
"561 176 OFFCURVE",
"669 279 OFFCURVE",
"697 416 CURVE SMOOTH",
"725 569 OFFCURVE",
"617 674 OFFCURVE",
"432 674 CURVE SMOOTH",
"245 674 LINE SMOOTH",
"176 674 OFFCURVE",
"118 663 OFFCURVE",
"84 521 CURVE",
"132 521 OFFCURVE",
"144 514 OFFCURVE",
"144 477 CURVE"
);
},
{
closed = 1;
nodes = (
"266 263 LINE",
"308 97 OFFCURVE",
"382 -68 OFFCURVE",
"461 -68 CURVE SMOOTH",
"530 -68 OFFCURVE",
"575 -12 OFFCURVE",
"613 65 CURVE",
"535 86 OFFCURVE",
"505 134 OFFCURVE",
"423 311 CURVE"
);
}
);
width = 645;
}
);
unicode = 0052;
},
{
glyphname = S;
lastChange = "2016-04-03 02:12:18 +0000";
layers = (
{
background = {
paths = (
{
closed = 1;
nodes = (
"13 196 OFFCURVE",
"-2 164 OFFCURVE",
"-3 103 CURVE SMOOTH",
"-5 6 OFFCURVE",
"98 -54 OFFCURVE",
"245 -54 CURVE SMOOTH",
"430 -54 OFFCURVE",
"574 26 OFFCURVE",
"576 208 CURVE SMOOTH",
"579 394 OFFCURVE",
"353 401 OFFCURVE",
"354 447 CURVE SMOOTH",
"355 472 OFFCURVE",
"383 486 OFFCURVE",
"425 486 CURVE SMOOTH",
"482 486 OFFCURVE",
"543 462 OFFCURVE",
"587 425 CURVE",
"635 445 OFFCURVE",
"657 502 OFFCURVE",
"657 533 CURVE SMOOTH",
"658 634 OFFCURVE",
"534 677 OFFCURVE",
"434 677 CURVE SMOOTH",
"246 677 OFFCURVE",
"82 586 OFFCURVE",
"79 415 CURVE SMOOTH",
"77 257 OFFCURVE",
"291 255 OFFCURVE",
"290 207 CURVE SMOOTH",
"289 169 OFFCURVE",
"272 152 OFFCURVE",
"238 152 CURVE SMOOTH",
"194 152 OFFCURVE",
"102 180 OFFCURVE",
"50 240 CURVE"
);
}
);
};
layerId = "BE599D47-15C2-4DC8-BE97-05FFE6CA3179";
paths = (
{
closed = 1;
nodes = (
"17 245 OFFCURVE",
"-3 203 OFFCURVE",
"-3 154 CURVE SMOOTH",
"-3 43 OFFCURVE",
"98 -11 OFFCURVE",
"245 -11 CURVE SMOOTH",
"430 -11 OFFCURVE",
"576 75 OFFCURVE",
"576 242 CURVE SMOOTH",
"576 446 OFFCURVE",
"360 438 OFFCURVE",
"354 490 CURVE SMOOTH",
"353 506 OFFCURVE",
"371 529 OFFCURVE",
"426 529 CURVE SMOOTH",
"481 529 OFFCURVE",
"543 505 OFFCURVE",
"587 468 CURVE",
"637 491 OFFCURVE",
"657 543 OFFCURVE",
"657 582 CURVE SMOOTH",
"657 669 OFFCURVE",
"551 720 OFFCURVE",
"424 720 CURVE SMOOTH",
"250 720 OFFCURVE",
"79 624 OFFCURVE",
"79 466 CURVE SMOOTH",
"79 290 OFFCURVE",
"290 313 OFFCURVE",
"290 239 CURVE SMOOTH",
"290 218 OFFCURVE",
"272 195 OFFCURVE",
"236 195 CURVE SMOOTH",
"195 195 OFFCURVE",
"102 224 OFFCURVE",
"50 284 CURVE"
);
}
);
width = 584;
},
{
associatedMasterId = "BE599D47-15C2-4DC8-BE97-05FFE6CA3179";
layerId = "E6D89D02-6F16-40A0-8FDC-A46309A62962";
name = "Regular Italic Mar 28 16, 04:50";
paths = (
{
closed = 1;
nodes = (
"49 160 OFFCURVE",
"49 107 CURVE SMOOTH",
"49 17 OFFCURVE",
"160 -40 OFFCURVE",
"317 -40 CURVE SMOOTH",
"495 -40 OFFCURVE",
"634 26 OFFCURVE",
"634 175 CURVE SMOOTH",
"634 330 OFFCURVE",
"441 335 OFFCURVE",
"441 371 CURVE SMOOTH",
"441 390 OFFCURVE",
"465 400 OFFCURVE",
"502 400 CURVE SMOOTH",
"550 400 OFFCURVE",
"602 380 OFFCURVE",
"640 350 CURVE",
"681 367 OFFCURVE",
"700 416 OFFCURVE",
"700 443 CURVE SMOOTH",
"700 526 OFFCURVE",
"555 561 OFFCURVE",
"441 561 CURVE SMOOTH",
"266 561 OFFCURVE",
"117 488 OFFCURVE",
"117 347 CURVE SMOOTH",
"117 229 OFFCURVE",
"300 215 OFFCURVE",
"300 174 CURVE SMOOTH",
"300 162 OFFCURVE",
"284 155 OFFCURVE",
"255 155 CURVE SMOOTH",
"218 155 OFFCURVE",
"139 178 OFFCURVE",
"93 229 CURVE",
"63 193 OFFCURVE"
);
}
);
width = 683;
},
{
associatedMasterId = "BE599D47-15C2-4DC8-BE97-05FFE6CA3179";
layerId = "B66F1134-B14F-409A-A723-E0BE6579664A";
name = "Regular Italic Mar 28 16, 05:10";
paths = (
{
closed = 1;
nodes = (
"27 189 OFFCURVE",
"26 124 CURVE SMOOTH",
"24 15 OFFCURVE",
"128 -54 OFFCURVE",
"274 -54 CURVE SMOOTH",
"459 -54 OFFCURVE",
"603 26 OFFCURVE",
"605 208 CURVE SMOOTH",
"608 394 OFFCURVE",
"383 401 OFFCURVE",
"383 447 CURVE SMOOTH",
"384 468 OFFCURVE",
"412 480 OFFCURVE",
"454 480 CURVE SMOOTH",
"511 480 OFFCURVE",
"572 456 OFFCURVE",
"616 419 CURVE",
"664 441 OFFCURVE",
"686 500 OFFCURVE",
"686 533 CURVE SMOOTH",
"688 634 OFFCURVE",
"563 677 OFFCURVE",
"463 677 CURVE SMOOTH",
"275 677 OFFCURVE",
"111 586 OFFCURVE",
"109 415 CURVE SMOOTH",
"107 271 OFFCURVE",
"320 255 OFFCURVE",
"319 207 CURVE SMOOTH",
"318 190 OFFCURVE",
"301 183 OFFCURVE",
"268 183 CURVE SMOOTH",
"223 183 OFFCURVE",
"131 211 OFFCURVE",
"79 271 CURVE",
"43 229 OFFCURVE"
);
}
);
width = 628;
},
{
associatedMasterId = "BE599D47-15C2-4DC8-BE97-05FFE6CA3179";
background = {
paths = (
{
closed = 1;
nodes = (
"43 196 OFFCURVE",
"27 164 OFFCURVE",
"26 103 CURVE SMOOTH",
"24 6 OFFCURVE",
"128 -54 OFFCURVE",
"274 -54 CURVE SMOOTH",
"459 -54 OFFCURVE",
"603 26 OFFCURVE",
"605 208 CURVE SMOOTH",
"608 394 OFFCURVE",
"383 401 OFFCURVE",
"383 447 CURVE SMOOTH",
"384 472 OFFCURVE",
"412 486 OFFCURVE",
"454 486 CURVE SMOOTH",
"511 486 OFFCURVE",
"572 462 OFFCURVE",
"616 425 CURVE",
"664 445 OFFCURVE",
"686 502 OFFCURVE",
"686 533 CURVE SMOOTH",
"688 634 OFFCURVE",
"563 677 OFFCURVE",
"463 677 CURVE SMOOTH",
"275 677 OFFCURVE",
"111 586 OFFCURVE",
"109 415 CURVE SMOOTH",
"107 257 OFFCURVE",
"320 255 OFFCURVE",
"319 207 CURVE SMOOTH",
"318 169 OFFCURVE",
"301 152 OFFCURVE",
"268 152 CURVE SMOOTH",
"223 152 OFFCURVE",
"131 180 OFFCURVE",
"79 240 CURVE"
);
}
);
};
layerId = "2E28A237-2436-4176-8332-1FD741639E13";
name = "Regular Italic Mar 28 16, 05:12";
paths = (
{
closed = 1;
nodes = (
"43 196 OFFCURVE",
"27 164 OFFCURVE",
"26 103 CURVE SMOOTH",
"24 6 OFFCURVE",
"128 -54 OFFCURVE",
"274 -54 CURVE SMOOTH",
"459 -54 OFFCURVE",
"603 26 OFFCURVE",
"605 208 CURVE SMOOTH",
"608 394 OFFCURVE",
"383 401 OFFCURVE",
"383 447 CURVE SMOOTH",
"384 472 OFFCURVE",
"412 486 OFFCURVE",
"454 486 CURVE SMOOTH",
"511 486 OFFCURVE",
"572 462 OFFCURVE",
"616 425 CURVE",
"664 445 OFFCURVE",
"686 502 OFFCURVE",
"686 533 CURVE SMOOTH",
"688 634 OFFCURVE",
"563 677 OFFCURVE",
"463 677 CURVE SMOOTH",
"275 677 OFFCURVE",
"111 586 OFFCURVE",
"109 415 CURVE SMOOTH",
"107 257 OFFCURVE",
"320 255 OFFCURVE",
"319 207 CURVE SMOOTH",
"318 169 OFFCURVE",
"301 152 OFFCURVE",
"268 152 CURVE SMOOTH",
"223 152 OFFCURVE",
"131 180 OFFCURVE",
"79 240 CURVE"
);
}
);
width = 628;
}
);
unicode = 0053;
},
{
glyphname = T;
lastChange = "2016-04-03 02:12:18 +0000";
layers = (
{
layerId = "BE599D47-15C2-4DC8-BE97-05FFE6CA3179";
paths = (
{
closed = 1;
nodes = (
"93 23 OFFCURVE",
"134 -11 OFFCURVE",
"199 -11 CURVE SMOOTH",
"254 -11 OFFCURVE",
"309 15 OFFCURVE",
"348 50 CURVE",
"334 74 OFFCURVE",
"327 99 OFFCURVE",
"327 135 CURVE SMOOTH",
"327 268 OFFCURVE",
"428 480 OFFCURVE",
"481 576 CURVE",
"433 524 LINE",
"505 521 LINE SMOOTH",
"586 516 OFFCURVE",
"633 536 OFFCURVE",
"633 649 CURVE SMOOTH",
"633 677 OFFCURVE",
"628 700 OFFCURVE",
"617 723 CURVE",
"572 707 OFFCURVE",
"523 700 OFFCURVE",
"473 700 CURVE SMOOTH",
"397 700 OFFCURVE",
"305 717 OFFCURVE",
"229 717 CURVE SMOOTH",
"148 717 OFFCURVE",
"103 661 OFFCURVE",
"73 525 CURVE",
"122 534 OFFCURVE",
"180 547 OFFCURVE",
"296 530 CURVE",
"240 585 LINE",
"240 458 OFFCURVE",
"93 222 OFFCURVE",
"93 91 CURVE SMOOTH"
);
}
);
width = 511;
},
{
associatedMasterId = "BE599D47-15C2-4DC8-BE97-05FFE6CA3179";
layerId = "86C2F621-93AD-4205-B26E-4FDA6BB0B092";
name = "Regular Italic Mar 25 16, 02:34";
paths = (
{
closed = 1;
nodes = (
"98 -20 OFFCURVE",
"138 -54 OFFCURVE",
"203 -54 CURVE SMOOTH",
"259 -54 OFFCURVE",
"313 -29 OFFCURVE",
"352 7 CURVE",
"339 31 OFFCURVE",
"331 56 OFFCURVE",
"331 89 CURVE SMOOTH",
"331 176 OFFCURVE",
"439 458 OFFCURVE",
"485 532 CURVE",
"437 481 LINE",
"509 478 LINE SMOOTH",
"590 473 OFFCURVE",
"638 493 OFFCURVE",
"638 605 CURVE SMOOTH",
"638 634 OFFCURVE",
"632 657 OFFCURVE",
"622 679 CURVE",
"576 664 OFFCURVE",
"534 657 OFFCURVE",
"491 657 CURVE SMOOTH",
"429 657 OFFCURVE",
"309 674 OFFCURVE",
"233 674 CURVE SMOOTH",
"153 674 OFFCURVE",
"107 618 OFFCURVE",
"77 481 CURVE",
"126 491 OFFCURVE",
"185 504 OFFCURVE",
"300 487 CURVE",
"245 541 LINE",
"244 415 OFFCURVE",
"98 179 OFFCURVE",
"98 47 CURVE SMOOTH"
);
}
);
width = 523;
}
);
unicode = 0054;
},
{
glyphname = U;
lastChange = "2016-04-03 02:12:18 +0000";
layers = (
{
background = {
paths = (
{
closed = 1;
nodes = (
"151 -75 OFFCURVE",
"202 -47 OFFCURVE",
"249 -14 CURVE",
"244 2 OFFCURVE",
"241 19 OFFCURVE",
"241 42 CURVE SMOOTH",
"241 235 OFFCURVE",
"420 482 OFFCURVE",
"414 606 CURVE SMOOTH",
"411 661 OFFCURVE",
"376 674 OFFCURVE",
"323 674 CURVE SMOOTH",
"260 674 OFFCURVE",
"184 654 OFFCURVE",
"117 615 CURVE",
"134 584 OFFCURVE",
"137 553 OFFCURVE",
"137 526 CURVE SMOOTH",
"137 327 OFFCURVE",
"-3 185 OFFCURVE",
"-5 22 CURVE SMOOTH",
"-6 -41 OFFCURVE",
"38 -75 OFFCURVE",
"98 -75 CURVE SMOOTH"
);
},
{
closed = 1;
nodes = (
"523 -75 OFFCURVE",
"575 -47 OFFCURVE",
"622 -14 CURVE",
"617 2 OFFCURVE",
"614 19 OFFCURVE",
"614 42 CURVE SMOOTH",
"614 242 OFFCURVE",
"793 482 OFFCURVE",
"787 606 CURVE SMOOTH",
"784 661 OFFCURVE",
"748 674 OFFCURVE",
"696 674 CURVE SMOOTH",
"633 674 OFFCURVE",
"557 654 OFFCURVE",
"490 615 CURVE",
"507 584 OFFCURVE",
"510 553 OFFCURVE",
"510 526 CURVE SMOOTH",
"510 334 OFFCURVE",
"370 185 OFFCURVE",
"368 22 CURVE SMOOTH",
"367 -41 OFFCURVE",
"411 -75 OFFCURVE",
"471 -75 CURVE SMOOTH"
);
},
{
closed = 1;
nodes = (
"222 240 LINE",
"509 240 LINE",
"526 369 LINE",
"240 369 LINE"
);
}
);
};
layerId = "BE599D47-15C2-4DC8-BE97-05FFE6CA3179";
paths = (
{
closed = 1;
nodes = (
"24 51 OFFCURVE",
"91 -11 OFFCURVE",
"169 -11 CURVE SMOOTH",
"246 -11 OFFCURVE",
"312 47 OFFCURVE",
"373 109 CURVE",
"380 109 LINE",
"353 28 OFFCURVE",
"374 -11 OFFCURVE",
"459 -11 CURVE SMOOTH",
"527 -11 OFFCURVE",
"574 13 OFFCURVE",
"634 38 CURVE",
"620 54 OFFCURVE",
"615 82 OFFCURVE",
"617 121 CURVE SMOOTH",
"624 305 OFFCURVE",
"774 497 OFFCURVE",
"783 619 CURVE SMOOTH",
"788 688 OFFCURVE",
"748 708 OFFCURVE",
"686 708 CURVE SMOOTH",
"634 708 OFFCURVE",
"563 693 OFFCURVE",
"499 662 CURVE",
"509 630 OFFCURVE",
"511 606 OFFCURVE",
"511 580 CURVE SMOOTH",
"507 461 OFFCURVE",
"429 231 OFFCURVE",
"350 231 CURVE SMOOTH",
"325 231 OFFCURVE",
"319 256 OFFCURVE",
"319 280 CURVE SMOOTH",
"319 369 OFFCURVE",
"402 509 OFFCURVE",
"406 601 CURVE SMOOTH",
"409 670 OFFCURVE",
"366 708 OFFCURVE",
"287 708 CURVE SMOOTH",
"226 708 OFFCURVE",
"176 686 OFFCURVE",
"98 646 CURVE",
"123 615 OFFCURVE",
"129 599 OFFCURVE",
"128 556 CURVE SMOOTH",
"122 400 OFFCURVE",
"31 245 OFFCURVE",
"27 142 CURVE SMOOTH"
);
}
);
width = 697;
},
{
associatedMasterId = "BE599D47-15C2-4DC8-BE97-05FFE6CA3179";
background = {
paths = (
{
closed = 1;
nodes = (
"211 -75 OFFCURVE",
"263 -47 OFFCURVE",
"309 -14 CURVE",
"304 2 OFFCURVE",
"302 19 OFFCURVE",
"302 42 CURVE SMOOTH",
"302 235 OFFCURVE",
"481 482 OFFCURVE",
"474 606 CURVE SMOOTH",
"472 661 OFFCURVE",
"436 674 OFFCURVE",
"384 674 CURVE SMOOTH",
"321 674 OFFCURVE",
"245 654 OFFCURVE",
"178 615 CURVE",
"194 584 OFFCURVE",
"198 553 OFFCURVE",
"198 526 CURVE SMOOTH",
"198 327 OFFCURVE",
"58 185 OFFCURVE",
"56 22 CURVE SMOOTH",
"55 -41 OFFCURVE",
"99 -75 OFFCURVE",
"159 -75 CURVE SMOOTH"
);
},
{
closed = 1;
nodes = (
"584 -75 OFFCURVE",
"635 -47 OFFCURVE",
"682 -14 CURVE",
"677 2 OFFCURVE",
"674 19 OFFCURVE",
"674 42 CURVE SMOOTH",
"674 242 OFFCURVE",
"854 482 OFFCURVE",
"847 606 CURVE SMOOTH",
"844 661 OFFCURVE",
"809 674 OFFCURVE",
"757 674 CURVE SMOOTH",
"693 674 OFFCURVE",
"617 654 OFFCURVE",
"550 615 CURVE",
"567 584 OFFCURVE",
"571 553 OFFCURVE",
"571 526 CURVE SMOOTH",
"571 334 OFFCURVE",
"431 185 OFFCURVE",
"429 22 CURVE SMOOTH",
"428 -41 OFFCURVE",
"472 -75 OFFCURVE",
"532 -75 CURVE SMOOTH"
);
},
{
closed = 1;
nodes = (
"283 240 LINE",
"569 240 LINE",
"587 369 LINE",
"300 369 LINE"
);
}
);
};
layerId = "4A9A88C6-0EF2-4E8B-9A63-D21FF49ABA7D";
name = "Regular Italic Apr 1 16, 03:58";
paths = (
{
closed = 1;
nodes = (
"17 11 OFFCURVE",
"80 -54 OFFCURVE",
"166 -54 CURVE SMOOTH",
"261 -54 OFFCURVE",
"364 26 OFFCURVE",
"449 114 CURVE",
"456 114 LINE",
"426 -1 OFFCURVE",
"461 -54 OFFCURVE",
"562 -54 CURVE SMOOTH",
"661 -54 OFFCURVE",
"749 -6 OFFCURVE",
"808 44 CURVE",
"791 60 OFFCURVE",
"786 95 OFFCURVE",
"786 126 CURVE SMOOTH",
"786 295 OFFCURVE",
"937 476 OFFCURVE",
"937 576 CURVE SMOOTH",
"937 647 OFFCURVE",
"861 665 OFFCURVE",
"775 665 CURVE SMOOTH",
"694 665 OFFCURVE",
"623 649 OFFCURVE",
"549 619 CURVE",
"558 594 OFFCURVE",
"564 566 OFFCURVE",
"564 537 CURVE SMOOTH",
"564 433 OFFCURVE",
"500 229 OFFCURVE",
"423 229 CURVE SMOOTH",
"396 229 OFFCURVE",
"389 253 OFFCURVE",
"389 277 CURVE SMOOTH",
"389 356 OFFCURVE",
"459 480 OFFCURVE",
"459 557 CURVE SMOOTH",
"459 624 OFFCURVE",
"408 665 OFFCURVE",
"301 665 CURVE SMOOTH",
"225 665 OFFCURVE",
"139 643 OFFCURVE",
"71 603 CURVE",
"96 572 OFFCURVE",
"103 557 OFFCURVE",
"103 513 CURVE SMOOTH",
"103 360 OFFCURVE",
"17 201 OFFCURVE",
"17 99 CURVE SMOOTH"
);
}
);
width = 718;
}
);
unicode = 0055;
},
{
glyphname = V;
lastChange = "2016-04-03 02:12:18 +0000";
layers = (
{
background = {
paths = (
{
closed = 1;
nodes = (
"355 -75 OFFCURVE",
"462 -24 OFFCURVE",
"585 139 CURVE SMOOTH",
"679 263 OFFCURVE",
"767 472 OFFCURVE",
"768 564 CURVE SMOOTH",
"769 647 OFFCURVE",
"718 664 OFFCURVE",
"678 664 CURVE SMOOTH",
"637 664 OFFCURVE",
"601 648 OFFCURVE",
"562 617 CURVE",
"569 591 OFFCURVE",
"571 560 OFFCURVE",
"571 535 CURVE SMOOTH",
"570 379 OFFCURVE",
"478 185 OFFCURVE",
"389 185 CURVE SMOOTH",
"360 185 OFFCURVE",
"352 206 OFFCURVE",
"352 238 CURVE SMOOTH",
"353 332 OFFCURVE",
"433 454 OFFCURVE",
"434 544 CURVE SMOOTH",
"435 617 OFFCURVE",
"396 664 OFFCURVE",
"296 664 CURVE SMOOTH",
"225 664 OFFCURVE",
"168 642 OFFCURVE",
"93 601 CURVE",
"118 569 OFFCURVE",
"134 538 OFFCURVE",
"133 477 CURVE SMOOTH",
"132 338 OFFCURVE",
"56 196 OFFCURVE",
"55 100 CURVE SMOOTH",
"54 -13 OFFCURVE",
"128 -75 OFFCURVE",
"240 -75 CURVE SMOOTH"
);
}
);
};
layerId = "BE599D47-15C2-4DC8-BE97-05FFE6CA3179";
paths = (
{
closed = 1;
nodes = (
"351 -32 OFFCURVE",
"479 20 OFFCURVE",
"599 183 CURVE SMOOTH",
"698 317 OFFCURVE",
"782 518 OFFCURVE",
"782 611 CURVE SMOOTH",
"782 688 OFFCURVE",
"725 707 OFFCURVE",
"679 707 CURVE SMOOTH",
"637 707 OFFCURVE",
"599 691 OFFCURVE",
"557 660 CURVE",
"564 634 OFFCURVE",
"566 603 OFFCURVE",
"566 580 CURVE SMOOTH",
"566 404 OFFCURVE",
"446 186 OFFCURVE",
"356 186 CURVE SMOOTH",
"329 186 OFFCURVE",
"319 206 OFFCURVE",
"319 237 CURVE SMOOTH",
"319 339 OFFCURVE",
"429 481 OFFCURVE",
"429 592 CURVE SMOOTH",
"429 659 OFFCURVE",
"390 707 OFFCURVE",
"291 707 CURVE SMOOTH",
"222 707 OFFCURVE",
"167 685 OFFCURVE",
"93 644 CURVE",
"121 610 OFFCURVE",
"133 579 OFFCURVE",
"133 523 CURVE SMOOTH",
"133 382 OFFCURVE",
"55 244 OFFCURVE",
"55 136 CURVE SMOOTH",
"55 31 OFFCURVE",
"129 -32 OFFCURVE",
"245 -32 CURVE SMOOTH"
);
}
);
width = 688;
},
{
associatedMasterId = "BE599D47-15C2-4DC8-BE97-05FFE6CA3179";
background = {
paths = (
{
closed = 1;
nodes = (
"487 -75 OFFCURVE",
"642 -24 OFFCURVE",
"764 139 CURVE SMOOTH",
"856 263 OFFCURVE",
"943 472 OFFCURVE",
"943 564 CURVE SMOOTH",
"943 647 OFFCURVE",
"870 664 OFFCURVE",
"815 664 CURVE SMOOTH",
"763 664 OFFCURVE",
"712 648 OFFCURVE",
"661 617 CURVE",
"670 591 OFFCURVE",
"672 560 OFFCURVE",
"672 535 CURVE SMOOTH",
"672 379 OFFCURVE",
"582 185 OFFCURVE",
"493 185 CURVE SMOOTH",
"464 185 OFFCURVE",
"455 206 OFFCURVE",
"455 238 CURVE SMOOTH",
"455 332 OFFCURVE",
"534 454 OFFCURVE",
"534 544 CURVE SMOOTH",
"534 617 OFFCURVE",
"484 664 OFFCURVE",
"358 664 CURVE SMOOTH",
"272 664 OFFCURVE",
"181 642 OFFCURVE",
"118 601 CURVE",
"144 569 OFFCURVE",
"159 538 OFFCURVE",
"159 477 CURVE SMOOTH",
"159 338 OFFCURVE",
"84 196 OFFCURVE",
"84 100 CURVE SMOOTH",
"84 -13 OFFCURVE",
"189 -75 OFFCURVE",
"346 -75 CURVE SMOOTH"
);
}
);
};
layerId = "414EA992-A274-4A55-BA35-EA39E363C0B1";
name = "Regular Italic Apr 1 16, 14:41";
paths = (
{
closed = 1;
nodes = (
"487 -75 OFFCURVE",
"642 -24 OFFCURVE",
"764 139 CURVE SMOOTH",
"856 263 OFFCURVE",
"943 472 OFFCURVE",
"943 564 CURVE SMOOTH",
"943 647 OFFCURVE",
"870 664 OFFCURVE",
"815 664 CURVE SMOOTH",
"763 664 OFFCURVE",
"712 648 OFFCURVE",
"661 617 CURVE",
"670 591 OFFCURVE",
"672 560 OFFCURVE",
"672 535 CURVE SMOOTH",
"672 379 OFFCURVE",
"582 185 OFFCURVE",
"493 185 CURVE SMOOTH",
"464 185 OFFCURVE",
"455 206 OFFCURVE",
"455 238 CURVE SMOOTH",
"455 332 OFFCURVE",
"534 454 OFFCURVE",
"534 544 CURVE SMOOTH",
"534 617 OFFCURVE",
"484 664 OFFCURVE",
"358 664 CURVE SMOOTH",
"272 664 OFFCURVE",
"181 642 OFFCURVE",
"118 601 CURVE",
"144 569 OFFCURVE",
"159 538 OFFCURVE",
"159 477 CURVE SMOOTH",
"159 338 OFFCURVE",
"84 196 OFFCURVE",
"84 100 CURVE SMOOTH",
"84 -13 OFFCURVE",
"189 -75 OFFCURVE",
"346 -75 CURVE SMOOTH"
);
}
);
width = 864;
},
{
associatedMasterId = "BE599D47-15C2-4DC8-BE97-05FFE6CA3179";
background = {
paths = (
{
closed = 1;
nodes = (
"468 -75 OFFCURVE",
"623 -24 OFFCURVE",
"745 139 CURVE SMOOTH",
"837 263 OFFCURVE",
"924 472 OFFCURVE",
"924 564 CURVE SMOOTH",
"924 647 OFFCURVE",
"851 664 OFFCURVE",
"796 664 CURVE SMOOTH",
"743 664 OFFCURVE",
"693 648 OFFCURVE",
"642 617 CURVE",
"650 591 OFFCURVE",
"652 560 OFFCURVE",
"652 535 CURVE SMOOTH",
"652 379 OFFCURVE",
"562 185 OFFCURVE",
"474 185 CURVE SMOOTH",
"445 185 OFFCURVE",
"435 206 OFFCURVE",
"435 238 CURVE SMOOTH",
"435 332 OFFCURVE",
"515 454 OFFCURVE",
"515 544 CURVE SMOOTH",
"515 617 OFFCURVE",
"465 664 OFFCURVE",
"339 664 CURVE SMOOTH",
"252 664 OFFCURVE",
"162 642 OFFCURVE",
"99 601 CURVE",
"124 569 OFFCURVE",
"139 538 OFFCURVE",
"139 477 CURVE SMOOTH",
"139 338 OFFCURVE",
"65 196 OFFCURVE",
"65 100 CURVE SMOOTH",
"65 -13 OFFCURVE",
"169 -75 OFFCURVE",
"326 -75 CURVE SMOOTH"
);
}
);
};
layerId = "D3CF1655-F892-4C70-942B-EA316EADB6D5";
name = "Regular Italic Apr 1 16, 14:44";
paths = (
{
closed = 1;
nodes = (
"380 -75 OFFCURVE",
"487 -24 OFFCURVE",
"610 139 CURVE SMOOTH",
"704 263 OFFCURVE",
"792 472 OFFCURVE",
"793 564 CURVE SMOOTH",
"794 647 OFFCURVE",
"743 664 OFFCURVE",
"703 664 CURVE SMOOTH",
"662 664 OFFCURVE",
"626 648 OFFCURVE",
"587 617 CURVE",
"594 591 OFFCURVE",
"596 560 OFFCURVE",
"596 535 CURVE SMOOTH",
"595 379 OFFCURVE",
"503 185 OFFCURVE",
"415 185 CURVE SMOOTH",
"385 185 OFFCURVE",
"377 206 OFFCURVE",
"377 238 CURVE SMOOTH",
"378 332 OFFCURVE",
"458 454 OFFCURVE",
"459 544 CURVE SMOOTH",
"460 617 OFFCURVE",
"421 664 OFFCURVE",
"321 664 CURVE SMOOTH",
"250 664 OFFCURVE",
"193 642 OFFCURVE",
"118 601 CURVE",
"144 569 OFFCURVE",
"159 538 OFFCURVE",
"158 477 CURVE SMOOTH",
"157 338 OFFCURVE",
"81 196 OFFCURVE",
"80 100 CURVE SMOOTH",
"79 -13 OFFCURVE",
"153 -75 OFFCURVE",
"265 -75 CURVE SMOOTH"
);
}
);
width = 713;
}
);
unicode = 0056;
},
{
glyphname = W;
lastChange = "2016-04-03 02:12:18 +0000";
layers = (
{
background = {
paths = (
{
closed = 1;
nodes = (
"327 -75 OFFCURVE",
"411 -31 OFFCURVE",
"479 69 CURVE",
"483 69 LINE",
"500 -39 OFFCURVE",
"545 -75 OFFCURVE",
"612 -75 CURVE SMOOTH",
"695 -75 OFFCURVE",
"790 -20 OFFCURVE",
"894 141 CURVE SMOOTH",
"985 280 OFFCURVE",
"1065 473 OFFCURVE",
"1066 581 CURVE SMOOTH",
"1067 658 OFFCURVE",
"1028 674 OFFCURVE",
"984 674 CURVE SMOOTH",
"929 674 OFFCURVE",
"885 651 OFFCURVE",
"842 626 CURVE",
"850 599 OFFCURVE",
"851 568 OFFCURVE",
"851 543 CURVE SMOOTH",
"849 389 OFFCURVE",
"762 198 OFFCURVE",
"682 198 CURVE SMOOTH",
"658 198 OFFCURVE",
"651 215 OFFCURVE",
"652 243 CURVE SMOOTH",
"654 340 OFFCURVE",
"736 458 OFFCURVE",
"738 557 CURVE SMOOTH",
"739 624 OFFCURVE",
"702 674 OFFCURVE",
"624 674 CURVE SMOOTH",
"580 674 OFFCURVE",
"531 658 OFFCURVE",
"494 626 CURVE",
"502 599 OFFCURVE",
"503 568 OFFCURVE",
"502 543 CURVE SMOOTH",
"500 389 OFFCURVE",
"413 198 OFFCURVE",
"332 198 CURVE SMOOTH",
"315 198 OFFCURVE",
"303 206 OFFCURVE",
"304 241 CURVE SMOOTH",
"305 332 OFFCURVE",
"388 456 OFFCURVE",
"390 558 CURVE SMOOTH",
"392 626 OFFCURVE",
"357 674 OFFCURVE",
"267 674 CURVE SMOOTH",
"196 674 OFFCURVE",
"144 644 OFFCURVE",
"97 609 CURVE",
"118 585 OFFCURVE",
"137 546 OFFCURVE",
"135 493 CURVE SMOOTH",
"134 396 OFFCURVE",
"68 233 OFFCURVE",
"66 125 CURVE SMOOTH",
"65 40 OFFCURVE",
"102 -75 OFFCURVE",
"240 -75 CURVE SMOOTH"
);
}
);
};
layerId = "BE599D47-15C2-4DC8-BE97-05FFE6CA3179";
paths = (
{
closed = 1;
nodes = (
"327 -32 OFFCURVE",
"411 13 OFFCURVE",
"479 112 CURVE",
"483 112 LINE",
"500 4 OFFCURVE",
"545 -32 OFFCURVE",
"612 -32 CURVE SMOOTH",
"695 -32 OFFCURVE",
"790 24 OFFCURVE",
"894 184 CURVE SMOOTH",
"986 326 OFFCURVE",
"1065 516 OFFCURVE",
"1066 624 CURVE SMOOTH",
"1067 702 OFFCURVE",
"1028 717 OFFCURVE",
"984 717 CURVE SMOOTH",
"929 717 OFFCURVE",
"885 694 OFFCURVE",
"842 669 CURVE",
"850 642 OFFCURVE",
"851 612 OFFCURVE",
"851 587 CURVE SMOOTH",
"847 421 OFFCURVE",
"757 226 OFFCURVE",
"674 226 CURVE SMOOTH",
"651 226 OFFCURVE",
"644 242 OFFCURVE",
"645 271 CURVE SMOOTH",
"647 371 OFFCURVE",
"736 497 OFFCURVE",
"738 600 CURVE SMOOTH",
"739 667 OFFCURVE",
"702 717 OFFCURVE",
"624 717 CURVE SMOOTH",
"580 717 OFFCURVE",
"531 701 OFFCURVE",
"494 669 CURVE",
"502 642 OFFCURVE",
"503 612 OFFCURVE",
"502 587 CURVE SMOOTH",
"498 421 OFFCURVE",
"409 226 OFFCURVE",
"325 226 CURVE SMOOTH",
"307 226 OFFCURVE",
"295 234 OFFCURVE",
"296 269 CURVE SMOOTH",
"298 364 OFFCURVE",
"388 494 OFFCURVE",
"390 601 CURVE SMOOTH",
"392 669 OFFCURVE",
"357 717 OFFCURVE",
"267 717 CURVE SMOOTH",
"196 717 OFFCURVE",
"144 687 OFFCURVE",
"97 652 CURVE",
"117 628 OFFCURVE",
"137 592 OFFCURVE",
"135 536 CURVE SMOOTH",
"133 437 OFFCURVE",
"68 276 OFFCURVE",
"66 169 CURVE SMOOTH",
"65 83 OFFCURVE",
"102 -32 OFFCURVE",
"240 -32 CURVE SMOOTH"
);
}
);
width = 973;
},
{
associatedMasterId = "BE599D47-15C2-4DC8-BE97-05FFE6CA3179";
background = {
paths = (
{
closed = 1;
nodes = (
"466 -75 OFFCURVE",
"571 -39 OFFCURVE",
"658 69 CURVE",
"662 69 LINE",
"662 -43 OFFCURVE",
"749 -75 OFFCURVE",
"841 -75 CURVE SMOOTH",
"962 -75 OFFCURVE",
"1097 -20 OFFCURVE",
"1212 142 CURVE SMOOTH",
"1306 276 OFFCURVE",
"1382 479 OFFCURVE",
"1382 566 CURVE SMOOTH",
"1382 658 OFFCURVE",
"1297 674 OFFCURVE",
"1233 674 CURVE SMOOTH",
"1166 674 OFFCURVE",
"1116 658 OFFCURVE",
"1060 626 CURVE",
"1069 599 OFFCURVE",
"1071 568 OFFCURVE",
"1071 543 CURVE SMOOTH",
"1071 389 OFFCURVE",
"987 198 OFFCURVE",
"908 198 CURVE SMOOTH",
"884 198 OFFCURVE",
"877 215 OFFCURVE",
"877 243 CURVE SMOOTH",
"877 338 OFFCURVE",
"957 464 OFFCURVE",
"957 552 CURVE SMOOTH",
"957 626 OFFCURVE",
"900 674 OFFCURVE",
"792 674 CURVE SMOOTH",
"730 674 OFFCURVE",
"672 658 OFFCURVE",
"615 626 CURVE",
"624 599 OFFCURVE",
"626 568 OFFCURVE",
"626 543 CURVE SMOOTH",
"626 389 OFFCURVE",
"542 198 OFFCURVE",
"461 198 CURVE SMOOTH",
"444 198 OFFCURVE",
"432 206 OFFCURVE",
"432 240 CURVE SMOOTH",
"432 330 OFFCURVE",
"513 463 OFFCURVE",
"513 552 CURVE SMOOTH",
"513 626 OFFCURVE",
"456 674 OFFCURVE",
"332 674 CURVE SMOOTH",
"244 674 OFFCURVE",
"173 649 OFFCURVE",
"122 609 CURVE",
"143 585 OFFCURVE",
"162 546 OFFCURVE",
"162 493 CURVE SMOOTH",
"162 394 OFFCURVE",
"100 239 OFFCURVE",
"100 120 CURVE SMOOTH",
"100 10 OFFCURVE",
"153 -75 OFFCURVE",
"342 -75 CURVE SMOOTH"
);
}
);
};
layerId = "8521A39D-13AC-426D-802D-5981BAAA1653";
name = "Regular Italic Apr 1 16, 14:54";
paths = (
{
closed = 1;
nodes = (
"466 -75 OFFCURVE",
"571 -39 OFFCURVE",
"658 69 CURVE",
"662 69 LINE",
"662 -43 OFFCURVE",
"749 -75 OFFCURVE",
"841 -75 CURVE SMOOTH",
"962 -75 OFFCURVE",
"1097 -20 OFFCURVE",
"1212 142 CURVE SMOOTH",
"1306 276 OFFCURVE",
"1382 479 OFFCURVE",
"1382 566 CURVE SMOOTH",
"1382 658 OFFCURVE",
"1297 674 OFFCURVE",
"1233 674 CURVE SMOOTH",
"1166 674 OFFCURVE",
"1116 658 OFFCURVE",
"1060 626 CURVE",
"1069 599 OFFCURVE",
"1071 568 OFFCURVE",
"1071 543 CURVE SMOOTH",
"1071 389 OFFCURVE",
"987 198 OFFCURVE",
"908 198 CURVE SMOOTH",
"884 198 OFFCURVE",
"877 215 OFFCURVE",
"877 243 CURVE SMOOTH",
"877 338 OFFCURVE",
"957 464 OFFCURVE",
"957 552 CURVE SMOOTH",
"957 626 OFFCURVE",
"900 674 OFFCURVE",
"792 674 CURVE SMOOTH",
"730 674 OFFCURVE",
"672 658 OFFCURVE",
"615 626 CURVE",
"624 599 OFFCURVE",
"626 568 OFFCURVE",
"626 543 CURVE SMOOTH",
"626 389 OFFCURVE",
"542 198 OFFCURVE",
"461 198 CURVE SMOOTH",
"444 198 OFFCURVE",
"432 206 OFFCURVE",
"432 240 CURVE SMOOTH",
"432 330 OFFCURVE",
"513 463 OFFCURVE",
"513 552 CURVE SMOOTH",
"513 626 OFFCURVE",
"456 674 OFFCURVE",
"332 674 CURVE SMOOTH",
"244 674 OFFCURVE",
"173 649 OFFCURVE",
"122 609 CURVE",
"143 585 OFFCURVE",
"162 546 OFFCURVE",
"162 493 CURVE SMOOTH",
"162 394 OFFCURVE",
"100 239 OFFCURVE",
"100 120 CURVE SMOOTH",
"100 10 OFFCURVE",
"153 -75 OFFCURVE",
"342 -75 CURVE SMOOTH"
);
}
);
width = 1304;
}
);
unicode = 0057;
},
{
glyphname = X;
lastChange = "2016-04-03 02:12:18 +0000";
layers = (
{
background = {
paths = (
{
closed = 1;
nodes = (
"-8 -20 OFFCURVE",
"36 -75 OFFCURVE",
"98 -75 CURVE SMOOTH",
"173 -75 OFFCURVE",
"272 25 OFFCURVE",
"369 148 CURVE",
"313 201 LINE",
"406 22 OFFCURVE",
"429 -75 OFFCURVE",
"530 -75 CURVE SMOOTH",
"583 -75 OFFCURVE",
"647 -17 OFFCURVE",
"675 79 CURVE",
"619 93 OFFCURVE",
"520 216 OFFCURVE",
"486 323 CURVE",
"481 235 LINE",
"610 337 OFFCURVE",
"728 482 OFFCURVE",
"728 573 CURVE SMOOTH",
"728 624 OFFCURVE",
"672 673 OFFCURVE",
"557 682 CURVE",
"545 603 OFFCURVE",
"493 520 OFFCURVE",
"412 435 CURVE",
"438 420 LINE",
"392 577 OFFCURVE",
"336 674 OFFCURVE",
"224 674 CURVE SMOOTH",
"144 674 OFFCURVE",
"98 615 OFFCURVE",
"82 528 CURVE",
"139 522 OFFCURVE",
"195 470 OFFCURVE",
"254 286 CURVE",
"261 320 LINE",
"183 231 OFFCURVE",
"92 160 OFFCURVE",
"-23 110 CURVE"
);
}
);
};
layerId = "BE599D47-15C2-4DC8-BE97-05FFE6CA3179";
paths = (
{
closed = 1;
nodes = (
"-26 24 OFFCURVE",
"15 -31 OFFCURVE",
"78 -31 CURVE SMOOTH",
"153 -31 OFFCURVE",
"257 68 OFFCURVE",
"361 192 CURVE",
"307 244 LINE",
"390 65 OFFCURVE",
"408 -32 OFFCURVE",
"509 -32 CURVE SMOOTH",
"562 -32 OFFCURVE",
"629 26 OFFCURVE",
"663 123 CURVE",
"608 137 OFFCURVE",
"516 259 OFFCURVE",
"488 366 CURVE",
"477 278 LINE",
"612 380 OFFCURVE",
"739 525 OFFCURVE",
"743 617 CURVE SMOOTH",
"746 667 OFFCURVE",
"693 716 OFFCURVE",
"578 725 CURVE",
"562 647 OFFCURVE",
"504 563 OFFCURVE",
"420 478 CURVE",
"445 463 LINE",
"407 620 OFFCURVE",
"357 717 OFFCURVE",
"245 717 CURVE SMOOTH",
"164 717 OFFCURVE",
"115 658 OFFCURVE",
"94 571 CURVE",
"151 565 OFFCURVE",
"204 513 OFFCURVE",
"254 329 CURVE",
"262 363 LINE",
"179 275 OFFCURVE",
"84 203 OFFCURVE",
"-33 153 CURVE"
);
}
);
width = 678;
},
{
associatedMasterId = "BE599D47-15C2-4DC8-BE97-05FFE6CA3179";
layerId = "3A85FAF1-BAD3-4458-99F7-140465AA0BC5";
name = "Regular Italic Apr 1 16, 15:15";
paths = (
{
closed = 1;
nodes = (
"20 -11 OFFCURVE",
"77 -79 OFFCURVE",
"151 -79 CURVE SMOOTH",
"240 -79 OFFCURVE",
"344 16 OFFCURVE",
"455 137 CURVE",
"383 134 LINE",
"465 -3 OFFCURVE",
"487 -75 OFFCURVE",
"574 -75 CURVE SMOOTH",
"665 -75 OFFCURVE",
"763 3 OFFCURVE",
"806 122 CURVE",
"720 142 OFFCURVE",
"661 227 OFFCURVE",
"629 311 CURVE",
"635 252 LINE",
"758 342 OFFCURVE",
"863 486 OFFCURVE",
"863 566 CURVE SMOOTH",
"863 627 OFFCURVE",
"800 671 OFFCURVE",
"651 683 CURVE",
"641 612 OFFCURVE",
"584 535 OFFCURVE",
"495 459 CURVE",
"542 439 LINE",
"489 584 OFFCURVE",
"425 674 OFFCURVE",
"313 674 CURVE SMOOTH",
"201 674 OFFCURVE",
"116 583 OFFCURVE",
"96 488 CURVE",
"148 481 OFFCURVE",
"217 435 OFFCURVE",
"286 271 CURVE",
"302 323 LINE",
"222 242 OFFCURVE",
"114 175 OFFCURVE",
"1 129 CURVE"
);
}
);
width = 828;
},
{
associatedMasterId = "BE599D47-15C2-4DC8-BE97-05FFE6CA3179";
background = {
paths = (
{
closed = 1;
nodes = (
"18 -14 OFFCURVE",
"64 -75 OFFCURVE",
"127 -75 CURVE SMOOTH",
"203 -75 OFFCURVE",
"294 22 OFFCURVE",
"392 145 CURVE",
"342 189 LINE",
"433 13 OFFCURVE",
"458 -75 OFFCURVE",
"558 -75 CURVE SMOOTH",
"614 -75 OFFCURVE",
"675 -15 OFFCURVE",
"704 83 CURVE",
"647 98 OFFCURVE",
"551 217 OFFCURVE",
"517 323 CURVE",
"512 236 LINE",
"640 338 OFFCURVE",
"752 495 OFFCURVE",
"752 585 CURVE SMOOTH",
"752 637 OFFCURVE",
"702 673 OFFCURVE",
"584 682 CURVE",
"571 604 OFFCURVE",
"519 521 OFFCURVE",
"438 437 CURVE",
"458 422 LINE",
"410 578 OFFCURVE",
"354 674 OFFCURVE",
"249 674 CURVE SMOOTH",
"167 674 OFFCURVE",
"118 615 OFFCURVE",
"102 527 CURVE",
"159 521 OFFCURVE",
"215 469 OFFCURVE",
"276 284 CURVE",
"288 325 LINE",
"210 238 OFFCURVE",
"118 166 OFFCURVE",
"3 117 CURVE"
);
}
);
};
layerId = "85B62FCE-BB9B-4BF8-8081-82AA02A29275";
name = "Regular Italic Apr 1 16, 15:29";
paths = (
{
closed = 1;
nodes = (
"18 -20 OFFCURVE",
"63 -75 OFFCURVE",
"125 -75 CURVE SMOOTH",
"199 -75 OFFCURVE",
"299 25 OFFCURVE",
"396 148 CURVE",
"339 201 LINE",
"432 22 OFFCURVE",
"455 -75 OFFCURVE",
"557 -75 CURVE SMOOTH",
"610 -75 OFFCURVE",
"673 -17 OFFCURVE",
"702 79 CURVE",
"646 93 OFFCURVE",
"547 216 OFFCURVE",
"513 323 CURVE",
"507 235 LINE",
"636 337 OFFCURVE",
"755 482 OFFCURVE",
"755 573 CURVE SMOOTH",
"755 624 OFFCURVE",
"699 673 OFFCURVE",
"584 682 CURVE",
"571 603 OFFCURVE",
"519 520 OFFCURVE",
"439 435 CURVE",
"465 420 LINE",
"418 577 OFFCURVE",
"362 674 OFFCURVE",
"250 674 CURVE SMOOTH",
"170 674 OFFCURVE",
"124 615 OFFCURVE",
"108 528 CURVE",
"166 522 OFFCURVE",
"222 470 OFFCURVE",
"281 286 CURVE",
"287 320 LINE",
"209 231 OFFCURVE",
"118 160 OFFCURVE",
"3 110 CURVE"
);
}
);
width = 736;
},
{
associatedMasterId = "BE599D47-15C2-4DC8-BE97-05FFE6CA3179";
background = {
paths = (
{
closed = 1;
nodes = (
"-4 -20 OFFCURVE",
"37 -75 OFFCURVE",
"100 -75 CURVE SMOOTH",
"174 -75 OFFCURVE",
"279 25 OFFCURVE",
"382 148 CURVE",
"328 201 LINE",
"412 22 OFFCURVE",
"429 -75 OFFCURVE",
"531 -75 CURVE SMOOTH",
"584 -75 OFFCURVE",
"651 -17 OFFCURVE",
"684 79 CURVE",
"629 93 OFFCURVE",
"537 216 OFFCURVE",
"508 323 CURVE",
"498 235 LINE",
"633 337 OFFCURVE",
"758 482 OFFCURVE",
"763 573 CURVE SMOOTH",
"766 624 OFFCURVE",
"713 673 OFFCURVE",
"598 682 CURVE",
"582 603 OFFCURVE",
"525 520 OFFCURVE",
"440 435 CURVE",
"465 420 LINE",
"427 577 OFFCURVE",
"376 674 OFFCURVE",
"264 674 CURVE SMOOTH",
"184 674 OFFCURVE",
"134 615 OFFCURVE",
"114 528 CURVE",
"171 522 OFFCURVE",
"224 470 OFFCURVE",
"275 286 CURVE",
"282 320 LINE",
"200 231 OFFCURVE",
"105 160 OFFCURVE",
"-13 110 CURVE"
);
}
);
};
layerId = "36F222CD-0DF5-4D8D-BE50-C09461F6EEE8";
name = "Regular Italic Apr 1 16, 15:30";
paths = (
{
closed = 1;
nodes = (
"13 -20 OFFCURVE",
"57 -75 OFFCURVE",
"119 -75 CURVE SMOOTH",
"194 -75 OFFCURVE",
"293 25 OFFCURVE",
"390 148 CURVE",
"334 201 LINE",
"426 22 OFFCURVE",
"449 -75 OFFCURVE",
"551 -75 CURVE SMOOTH",
"604 -75 OFFCURVE",
"668 -17 OFFCURVE",
"696 79 CURVE",
"640 93 OFFCURVE",
"541 216 OFFCURVE",
"507 323 CURVE",
"502 235 LINE",
"631 337 OFFCURVE",
"749 482 OFFCURVE",
"749 573 CURVE SMOOTH",
"749 624 OFFCURVE",
"693 673 OFFCURVE",
"578 682 CURVE",
"566 603 OFFCURVE",
"514 520 OFFCURVE",
"433 435 CURVE",
"459 420 LINE",
"412 577 OFFCURVE",
"357 674 OFFCURVE",
"245 674 CURVE SMOOTH",
"164 674 OFFCURVE",
"118 615 OFFCURVE",
"102 528 CURVE",
"160 522 OFFCURVE",
"216 470 OFFCURVE",
"275 286 CURVE",
"281 320 LINE",
"203 231 OFFCURVE",
"113 160 OFFCURVE",
"-2 110 CURVE"
);
}
);
width = 718;
}
);
unicode = 0058;
},
{
glyphname = Y;
lastChange = "2016-04-03 02:12:18 +0000";
layers = (
{
background = {
paths = (
{
closed = 1;
nodes = (
"328 -75 OFFCURVE",
"380 -47 OFFCURVE",
"426 -14 CURVE",
"422 2 OFFCURVE",
"419 19 OFFCURVE",
"419 42 CURVE SMOOTH",
"419 242 OFFCURVE",
"598 482 OFFCURVE",
"592 606 CURVE SMOOTH",
"589 661 OFFCURVE",
"553 674 OFFCURVE",
"501 674 CURVE SMOOTH",
"438 674 OFFCURVE",
"362 654 OFFCURVE",
"295 615 CURVE",
"311 584 OFFCURVE",
"315 553 OFFCURVE",
"315 526 CURVE SMOOTH",
"315 327 OFFCURVE",
"175 185 OFFCURVE",
"173 22 CURVE SMOOTH",
"172 -41 OFFCURVE",
"216 -75 OFFCURVE",
"276 -75 CURVE SMOOTH"
);
}
);
};
layerId = "BE599D47-15C2-4DC8-BE97-05FFE6CA3179";
paths = (
{
closed = 1;
nodes = (
"232 287 OFFCURVE",
"173 141 OFFCURVE",
"173 78 CURVE SMOOTH",
"173 10 OFFCURVE",
"213 -32 OFFCURVE",
"265 -32 CURVE SMOOTH",
"329 -32 OFFCURVE",
"367 -14 OFFCURVE",
"426 29 CURVE",
"403 120 OFFCURVE",
"438 226 OFFCURVE",
"494 366 CURVE",
"391 208 LINE",
"562 331 OFFCURVE",
"722 507 OFFCURVE",
"728 617 CURVE SMOOTH",
"731 667 OFFCURVE",
"678 716 OFFCURVE",
"563 725 CURVE",
"544 635 OFFCURVE",
"479 540 OFFCURVE",
"384 443 CURVE",
"409 429 LINE",
"375 607 OFFCURVE",
"330 717 OFFCURVE",
"229 717 CURVE SMOOTH",
"149 717 OFFCURVE",
"100 658 OFFCURVE",
"79 571 CURVE",
"137 562 OFFCURVE",
"190 484 OFFCURVE",
"240 208 CURVE",
"291 415 LINE"
);
}
);
width = 611;
},
{
associatedMasterId = "BE599D47-15C2-4DC8-BE97-05FFE6CA3179";
background = {
paths = (
{
closed = 1;
nodes = (
"-5 -20 OFFCURVE",
"36 -75 OFFCURVE",
"99 -75 CURVE SMOOTH",
"173 -75 OFFCURVE",
"278 25 OFFCURVE",
"382 148 CURVE",
"328 201 LINE",
"411 22 OFFCURVE",
"429 -75 OFFCURVE",
"530 -75 CURVE SMOOTH",
"583 -75 OFFCURVE",
"650 -17 OFFCURVE",
"684 79 CURVE",
"629 93 OFFCURVE",
"537 216 OFFCURVE",
"509 323 CURVE",
"498 235 LINE",
"633 337 OFFCURVE",
"759 482 OFFCURVE",
"764 573 CURVE SMOOTH",
"767 624 OFFCURVE",
"714 673 OFFCURVE",
"599 682 CURVE",
"582 603 OFFCURVE",
"525 520 OFFCURVE",
"441 435 CURVE",
"466 420 LINE",
"428 577 OFFCURVE",
"378 674 OFFCURVE",
"265 674 CURVE SMOOTH",
"185 674 OFFCURVE",
"136 615 OFFCURVE",
"115 528 CURVE",
"172 522 OFFCURVE",
"225 470 OFFCURVE",
"275 286 CURVE",
"283 320 LINE",
"200 231 OFFCURVE",
"105 160 OFFCURVE",
"-13 110 CURVE"
);
}
);
};
layerId = "41728D36-81EB-4D97-B4C8-AC1AC54AC472";
name = "Regular Italic Apr 2 16, 00:34";
paths = (
{
closed = 1;
nodes = (
"-5 -20 OFFCURVE",
"36 -75 OFFCURVE",
"99 -75 CURVE SMOOTH",
"173 -75 OFFCURVE",
"278 25 OFFCURVE",
"382 148 CURVE",
"328 201 LINE",
"411 22 OFFCURVE",
"429 -75 OFFCURVE",
"530 -75 CURVE SMOOTH",
"583 -75 OFFCURVE",
"650 -17 OFFCURVE",
"684 79 CURVE",
"629 93 OFFCURVE",
"537 216 OFFCURVE",
"509 323 CURVE",
"498 235 LINE",
"633 337 OFFCURVE",
"759 482 OFFCURVE",
"764 573 CURVE SMOOTH",
"767 624 OFFCURVE",
"714 673 OFFCURVE",
"599 682 CURVE",
"582 603 OFFCURVE",
"525 520 OFFCURVE",
"441 435 CURVE",
"466 420 LINE",
"428 577 OFFCURVE",
"378 674 OFFCURVE",
"265 674 CURVE SMOOTH",
"185 674 OFFCURVE",
"136 615 OFFCURVE",
"115 528 CURVE",
"172 522 OFFCURVE",
"225 470 OFFCURVE",
"275 286 CURVE",
"283 320 LINE",
"200 231 OFFCURVE",
"105 160 OFFCURVE",
"-13 110 CURVE"
);
}
);
width = 718;
},
{
associatedMasterId = "BE599D47-15C2-4DC8-BE97-05FFE6CA3179";
background = {
paths = (
{
closed = 1;
nodes = (
"364 -75 OFFCURVE",
"416 -47 OFFCURVE",
"463 -14 CURVE",
"458 2 OFFCURVE",
"455 19 OFFCURVE",
"455 42 CURVE SMOOTH",
"455 242 OFFCURVE",
"634 482 OFFCURVE",
"628 606 CURVE SMOOTH",
"625 661 OFFCURVE",
"589 674 OFFCURVE",
"537 674 CURVE SMOOTH",
"474 674 OFFCURVE",
"398 654 OFFCURVE",
"331 615 CURVE",
"348 584 OFFCURVE",
"351 553 OFFCURVE",
"351 526 CURVE SMOOTH",
"351 327 OFFCURVE",
"211 185 OFFCURVE",
"209 22 CURVE SMOOTH",
"208 -41 OFFCURVE",
"252 -75 OFFCURVE",
"312 -75 CURVE SMOOTH"
);
}
);
};
layerId = "585D9451-0EA8-4960-9FD3-231B4812822F";
name = "Regular Italic Apr 2 16, 00:36";
paths = (
{
closed = 1;
nodes = (
"268 244 OFFCURVE",
"209 98 OFFCURVE",
"209 35 CURVE SMOOTH",
"209 -33 OFFCURVE",
"249 -75 OFFCURVE",
"301 -75 CURVE SMOOTH",
"365 -75 OFFCURVE",
"403 -57 OFFCURVE",
"463 -14 CURVE",
"439 77 OFFCURVE",
"474 183 OFFCURVE",
"530 323 CURVE",
"427 164 LINE",
"598 288 OFFCURVE",
"758 463 OFFCURVE",
"764 573 CURVE SMOOTH",
"767 624 OFFCURVE",
"714 673 OFFCURVE",
"599 682 CURVE",
"580 592 OFFCURVE",
"516 497 OFFCURVE",
"420 400 CURVE",
"445 385 LINE",
"411 564 OFFCURVE",
"366 674 OFFCURVE",
"265 674 CURVE SMOOTH",
"185 674 OFFCURVE",
"136 615 OFFCURVE",
"115 528 CURVE",
"173 519 OFFCURVE",
"226 440 OFFCURVE",
"277 164 CURVE",
"327 371 LINE"
);
}
);
width = 718;
}
);
unicode = 0059;
},
